<?xml version="1.0" encoding="utf-8" standalone="no"?>
<!DOCTYPE svg PUBLIC "-//W3C//DTD SVG 1.1//EN"
  "http://www.w3.org/Graphics/SVG/1.1/DTD/svg11.dtd">
<svg height="288pt" version="1.1" viewBox="0 0 576 288" width="576pt" xmlns="http://www.w3.org/2000/svg" xmlns:xlink="http://www.w3.org/1999/xlink">
 <metadata>
  <rdf:RDF xmlns:cc="http://creativecommons.org/ns#" xmlns:dc="http://purl.org/dc/elements/1.1/" xmlns:rdf="http://www.w3.org/1999/02/22-rdf-syntax-ns#">
   <cc:Work>
    <dc:type rdf:resource="http://purl.org/dc/dcmitype/StillImage"/>
    <dc:date>2022-04-26T17:41:32.040610</dc:date>
    <dc:format>image/svg+xml</dc:format>
    <dc:creator>
     <cc:Agent>
      <dc:title>Matplotlib v3.4.2, https://matplotlib.org/</dc:title>
     </cc:Agent>
    </dc:creator>
   </cc:Work>
  </rdf:RDF>
 </metadata>
 <defs>
  <style type="text/css">*{stroke-linecap:butt;stroke-linejoin:round;}</style>
 </defs>
 <g id="figure_1">
  <g id="patch_1">
   <path d="M 0 288 
L 576 288 
L 576 0 
L 0 0 
z
" style="fill:none;"/>
  </g>
  <g id="axes_1">
   <g id="patch_2">
    <path d="M 72 252 
L 518.4 252 
L 518.4 34.56 
L 72 34.56 
z
" style="fill:#ffffff;"/>
   </g>
   <g id="patch_3">
    <path clip-path="url(#pe5534144ec)" d="M 85.065366 252 
L 102.485854 252 
L 102.485854 252 
L 85.065366 252 
z
" style="fill:#1f77b4;"/>
   </g>
   <g id="patch_4">
    <path clip-path="url(#pe5534144ec)" d="M 106.840976 252 
L 124.261463 252 
L 124.261463 252 
L 106.840976 252 
z
" style="fill:#1f77b4;"/>
   </g>
   <g id="patch_5">
    <path clip-path="url(#pe5534144ec)" d="M 128.616585 252 
L 146.037073 252 
L 146.037073 252 
L 128.616585 252 
z
" style="fill:#1f77b4;"/>
   </g>
   <g id="patch_6">
    <path clip-path="url(#pe5534144ec)" d="M 150.392195 252 
L 167.812683 252 
L 167.812683 250.446857 
L 150.392195 250.446857 
z
" style="fill:#1f77b4;"/>
   </g>
   <g id="patch_7">
    <path clip-path="url(#pe5534144ec)" d="M 172.167805 252 
L 189.588293 252 
L 189.588293 252 
L 172.167805 252 
z
" style="fill:#1f77b4;"/>
   </g>
   <g id="patch_8">
    <path clip-path="url(#pe5534144ec)" d="M 193.943415 252 
L 211.363902 252 
L 211.363902 247.340571 
L 193.943415 247.340571 
z
" style="fill:#1f77b4;"/>
   </g>
   <g id="patch_9">
    <path clip-path="url(#pe5534144ec)" d="M 215.719024 252 
L 233.139512 252 
L 233.139512 242.681143 
L 215.719024 242.681143 
z
" style="fill:#1f77b4;"/>
   </g>
   <g id="patch_10">
    <path clip-path="url(#pe5534144ec)" d="M 237.494634 252 
L 254.915122 252 
L 254.915122 250.446857 
L 237.494634 250.446857 
z
" style="fill:#1f77b4;"/>
   </g>
   <g id="patch_11">
    <path clip-path="url(#pe5534144ec)" d="M 259.270244 252 
L 276.690732 252 
L 276.690732 244.234286 
L 259.270244 244.234286 
z
" style="fill:#1f77b4;"/>
   </g>
   <g id="patch_12">
    <path clip-path="url(#pe5534144ec)" d="M 281.045854 252 
L 298.466341 252 
L 298.466341 245.787429 
L 281.045854 245.787429 
z
" style="fill:#1f77b4;"/>
   </g>
   <g id="patch_13">
    <path clip-path="url(#pe5534144ec)" d="M 302.821463 252 
L 320.241951 252 
L 320.241951 236.468571 
L 302.821463 236.468571 
z
" style="fill:#1f77b4;"/>
   </g>
   <g id="patch_14">
    <path clip-path="url(#pe5534144ec)" d="M 324.597073 252 
L 342.017561 252 
L 342.017561 238.021714 
L 324.597073 238.021714 
z
" style="fill:#1f77b4;"/>
   </g>
   <g id="patch_15">
    <path clip-path="url(#pe5534144ec)" d="M 346.372683 252 
L 363.793171 252 
L 363.793171 238.021714 
L 346.372683 238.021714 
z
" style="fill:#1f77b4;"/>
   </g>
   <g id="patch_16">
    <path clip-path="url(#pe5534144ec)" d="M 368.148293 252 
L 385.56878 252 
L 385.56878 242.681143 
L 368.148293 242.681143 
z
" style="fill:#1f77b4;"/>
   </g>
   <g id="patch_17">
    <path clip-path="url(#pe5534144ec)" d="M 389.923902 252 
L 407.34439 252 
L 407.34439 219.384 
L 389.923902 219.384 
z
" style="fill:#1f77b4;"/>
   </g>
   <g id="patch_18">
    <path clip-path="url(#pe5534144ec)" d="M 411.699512 252 
L 429.12 252 
L 429.12 220.937143 
L 411.699512 220.937143 
z
" style="fill:#1f77b4;"/>
   </g>
   <g id="patch_19">
    <path clip-path="url(#pe5534144ec)" d="M 433.475122 252 
L 450.89561 252 
L 450.89561 217.830857 
L 433.475122 217.830857 
z
" style="fill:#1f77b4;"/>
   </g>
   <g id="patch_20">
    <path clip-path="url(#pe5534144ec)" d="M 455.250732 252 
L 472.67122 252 
L 472.67122 211.618286 
L 455.250732 211.618286 
z
" style="fill:#1f77b4;"/>
   </g>
   <g id="patch_21">
    <path clip-path="url(#pe5534144ec)" d="M 477.026341 252 
L 494.446829 252 
L 494.446829 202.299429 
L 477.026341 202.299429 
z
" style="fill:#1f77b4;"/>
   </g>
   <g id="patch_22">
    <path clip-path="url(#pe5534144ec)" d="M 498.801951 252 
L 516.222439 252 
L 516.222439 216.277714 
L 498.801951 216.277714 
z
" style="fill:#1f77b4;"/>
   </g>
   <g id="patch_23">
    <path clip-path="url(#pe5534144ec)" d="M 520.577561 252 
L 537.998049 252 
L 537.998049 252 
L 520.577561 252 
z
" style="fill:#1f77b4;"/>
   </g>
   <g id="patch_24">
    <path clip-path="url(#pe5534144ec)" d="M 85.065366 252 
L 102.485854 252 
L 102.485854 252 
L 85.065366 252 
z
" style="fill:#aec7e8;"/>
   </g>
   <g id="patch_25">
    <path clip-path="url(#pe5534144ec)" d="M 106.840976 252 
L 124.261463 252 
L 124.261463 252 
L 106.840976 252 
z
" style="fill:#aec7e8;"/>
   </g>
   <g id="patch_26">
    <path clip-path="url(#pe5534144ec)" d="M 128.616585 252 
L 146.037073 252 
L 146.037073 252 
L 128.616585 252 
z
" style="fill:#aec7e8;"/>
   </g>
   <g id="patch_27">
    <path clip-path="url(#pe5534144ec)" d="M 150.392195 250.446857 
L 167.812683 250.446857 
L 167.812683 250.446857 
L 150.392195 250.446857 
z
" style="fill:#aec7e8;"/>
   </g>
   <g id="patch_28">
    <path clip-path="url(#pe5534144ec)" d="M 172.167805 252 
L 189.588293 252 
L 189.588293 252 
L 172.167805 252 
z
" style="fill:#aec7e8;"/>
   </g>
   <g id="patch_29">
    <path clip-path="url(#pe5534144ec)" d="M 193.943415 247.340571 
L 211.363902 247.340571 
L 211.363902 247.340571 
L 193.943415 247.340571 
z
" style="fill:#aec7e8;"/>
   </g>
   <g id="patch_30">
    <path clip-path="url(#pe5534144ec)" d="M 215.719024 242.681143 
L 233.139512 242.681143 
L 233.139512 241.128 
L 215.719024 241.128 
z
" style="fill:#aec7e8;"/>
   </g>
   <g id="patch_31">
    <path clip-path="url(#pe5534144ec)" d="M 237.494634 250.446857 
L 254.915122 250.446857 
L 254.915122 250.446857 
L 237.494634 250.446857 
z
" style="fill:#aec7e8;"/>
   </g>
   <g id="patch_32">
    <path clip-path="url(#pe5534144ec)" d="M 259.270244 244.234286 
L 276.690732 244.234286 
L 276.690732 242.681143 
L 259.270244 242.681143 
z
" style="fill:#aec7e8;"/>
   </g>
   <g id="patch_33">
    <path clip-path="url(#pe5534144ec)" d="M 281.045854 245.787429 
L 298.466341 245.787429 
L 298.466341 242.681143 
L 281.045854 242.681143 
z
" style="fill:#aec7e8;"/>
   </g>
   <g id="patch_34">
    <path clip-path="url(#pe5534144ec)" d="M 302.821463 236.468571 
L 320.241951 236.468571 
L 320.241951 233.362286 
L 302.821463 233.362286 
z
" style="fill:#aec7e8;"/>
   </g>
   <g id="patch_35">
    <path clip-path="url(#pe5534144ec)" d="M 324.597073 238.021714 
L 342.017561 238.021714 
L 342.017561 233.362286 
L 324.597073 233.362286 
z
" style="fill:#aec7e8;"/>
   </g>
   <g id="patch_36">
    <path clip-path="url(#pe5534144ec)" d="M 346.372683 238.021714 
L 363.793171 238.021714 
L 363.793171 236.468571 
L 346.372683 236.468571 
z
" style="fill:#aec7e8;"/>
   </g>
   <g id="patch_37">
    <path clip-path="url(#pe5534144ec)" d="M 368.148293 242.681143 
L 385.56878 242.681143 
L 385.56878 236.468571 
L 368.148293 236.468571 
z
" style="fill:#aec7e8;"/>
   </g>
   <g id="patch_38">
    <path clip-path="url(#pe5534144ec)" d="M 389.923902 219.384 
L 407.34439 219.384 
L 407.34439 217.830857 
L 389.923902 217.830857 
z
" style="fill:#aec7e8;"/>
   </g>
   <g id="patch_39">
    <path clip-path="url(#pe5534144ec)" d="M 411.699512 220.937143 
L 429.12 220.937143 
L 429.12 205.405714 
L 411.699512 205.405714 
z
" style="fill:#aec7e8;"/>
   </g>
   <g id="patch_40">
    <path clip-path="url(#pe5534144ec)" d="M 433.475122 217.830857 
L 450.89561 217.830857 
L 450.89561 205.405714 
L 433.475122 205.405714 
z
" style="fill:#aec7e8;"/>
   </g>
   <g id="patch_41">
    <path clip-path="url(#pe5534144ec)" d="M 455.250732 211.618286 
L 472.67122 211.618286 
L 472.67122 202.299429 
L 455.250732 202.299429 
z
" style="fill:#aec7e8;"/>
   </g>
   <g id="patch_42">
    <path clip-path="url(#pe5534144ec)" d="M 477.026341 202.299429 
L 494.446829 202.299429 
L 494.446829 196.086857 
L 477.026341 196.086857 
z
" style="fill:#aec7e8;"/>
   </g>
   <g id="patch_43">
    <path clip-path="url(#pe5534144ec)" d="M 498.801951 216.277714 
L 516.222439 216.277714 
L 516.222439 202.299429 
L 498.801951 202.299429 
z
" style="fill:#aec7e8;"/>
   </g>
   <g id="patch_44">
    <path clip-path="url(#pe5534144ec)" d="M 520.577561 252 
L 537.998049 252 
L 537.998049 252 
L 520.577561 252 
z
" style="fill:#aec7e8;"/>
   </g>
   <g id="patch_45">
    <path clip-path="url(#pe5534144ec)" d="M 85.065366 252 
L 102.485854 252 
L 102.485854 250.446857 
L 85.065366 250.446857 
z
" style="fill:#ff7f0e;"/>
   </g>
   <g id="patch_46">
    <path clip-path="url(#pe5534144ec)" d="M 106.840976 252 
L 124.261463 252 
L 124.261463 252 
L 106.840976 252 
z
" style="fill:#ff7f0e;"/>
   </g>
   <g id="patch_47">
    <path clip-path="url(#pe5534144ec)" d="M 128.616585 252 
L 146.037073 252 
L 146.037073 248.893714 
L 128.616585 248.893714 
z
" style="fill:#ff7f0e;"/>
   </g>
   <g id="patch_48">
    <path clip-path="url(#pe5534144ec)" d="M 150.392195 250.446857 
L 167.812683 250.446857 
L 167.812683 248.893714 
L 150.392195 248.893714 
z
" style="fill:#ff7f0e;"/>
   </g>
   <g id="patch_49">
    <path clip-path="url(#pe5534144ec)" d="M 172.167805 252 
L 189.588293 252 
L 189.588293 250.446857 
L 172.167805 250.446857 
z
" style="fill:#ff7f0e;"/>
   </g>
   <g id="patch_50">
    <path clip-path="url(#pe5534144ec)" d="M 193.943415 247.340571 
L 211.363902 247.340571 
L 211.363902 242.681143 
L 193.943415 242.681143 
z
" style="fill:#ff7f0e;"/>
   </g>
   <g id="patch_51">
    <path clip-path="url(#pe5534144ec)" d="M 215.719024 241.128 
L 233.139512 241.128 
L 233.139512 230.256 
L 215.719024 230.256 
z
" style="fill:#ff7f0e;"/>
   </g>
   <g id="patch_52">
    <path clip-path="url(#pe5534144ec)" d="M 237.494634 250.446857 
L 254.915122 250.446857 
L 254.915122 242.681143 
L 237.494634 242.681143 
z
" style="fill:#ff7f0e;"/>
   </g>
   <g id="patch_53">
    <path clip-path="url(#pe5534144ec)" d="M 259.270244 242.681143 
L 276.690732 242.681143 
L 276.690732 233.362286 
L 259.270244 233.362286 
z
" style="fill:#ff7f0e;"/>
   </g>
   <g id="patch_54">
    <path clip-path="url(#pe5534144ec)" d="M 281.045854 242.681143 
L 298.466341 242.681143 
L 298.466341 231.809143 
L 281.045854 231.809143 
z
" style="fill:#ff7f0e;"/>
   </g>
   <g id="patch_55">
    <path clip-path="url(#pe5534144ec)" d="M 302.821463 233.362286 
L 320.241951 233.362286 
L 320.241951 206.958857 
L 302.821463 206.958857 
z
" style="fill:#ff7f0e;"/>
   </g>
   <g id="patch_56">
    <path clip-path="url(#pe5534144ec)" d="M 324.597073 233.362286 
L 342.017561 233.362286 
L 342.017561 213.171429 
L 324.597073 213.171429 
z
" style="fill:#ff7f0e;"/>
   </g>
   <g id="patch_57">
    <path clip-path="url(#pe5534144ec)" d="M 346.372683 236.468571 
L 363.793171 236.468571 
L 363.793171 217.830857 
L 346.372683 217.830857 
z
" style="fill:#ff7f0e;"/>
   </g>
   <g id="patch_58">
    <path clip-path="url(#pe5534144ec)" d="M 368.148293 236.468571 
L 385.56878 236.468571 
L 385.56878 206.958857 
L 368.148293 206.958857 
z
" style="fill:#ff7f0e;"/>
   </g>
   <g id="patch_59">
    <path clip-path="url(#pe5534144ec)" d="M 389.923902 217.830857 
L 407.34439 217.830857 
L 407.34439 179.002286 
L 389.923902 179.002286 
z
" style="fill:#ff7f0e;"/>
   </g>
   <g id="patch_60">
    <path clip-path="url(#pe5534144ec)" d="M 411.699512 205.405714 
L 429.12 205.405714 
L 429.12 151.045714 
L 411.699512 151.045714 
z
" style="fill:#ff7f0e;"/>
   </g>
   <g id="patch_61">
    <path clip-path="url(#pe5534144ec)" d="M 433.475122 205.405714 
L 450.89561 205.405714 
L 450.89561 147.939429 
L 433.475122 147.939429 
z
" style="fill:#ff7f0e;"/>
   </g>
   <g id="patch_62">
    <path clip-path="url(#pe5534144ec)" d="M 455.250732 202.299429 
L 472.67122 202.299429 
L 472.67122 160.364571 
L 455.250732 160.364571 
z
" style="fill:#ff7f0e;"/>
   </g>
   <g id="patch_63">
    <path clip-path="url(#pe5534144ec)" d="M 477.026341 196.086857 
L 494.446829 196.086857 
L 494.446829 138.620571 
L 477.026341 138.620571 
z
" style="fill:#ff7f0e;"/>
   </g>
   <g id="patch_64">
    <path clip-path="url(#pe5534144ec)" d="M 498.801951 202.299429 
L 516.222439 202.299429 
L 516.222439 119.982857 
L 498.801951 119.982857 
z
" style="fill:#ff7f0e;"/>
   </g>
   <g id="patch_65">
    <path clip-path="url(#pe5534144ec)" d="M 520.577561 252 
L 537.998049 252 
L 537.998049 248.893714 
L 520.577561 248.893714 
z
" style="fill:#ff7f0e;"/>
   </g>
   <g id="patch_66">
    <path clip-path="url(#pe5534144ec)" d="M 85.065366 250.446857 
L 102.485854 250.446857 
L 102.485854 250.446857 
L 85.065366 250.446857 
z
" style="fill:#ffbb78;"/>
   </g>
   <g id="patch_67">
    <path clip-path="url(#pe5534144ec)" d="M 106.840976 252 
L 124.261463 252 
L 124.261463 252 
L 106.840976 252 
z
" style="fill:#ffbb78;"/>
   </g>
   <g id="patch_68">
    <path clip-path="url(#pe5534144ec)" d="M 128.616585 248.893714 
L 146.037073 248.893714 
L 146.037073 248.893714 
L 128.616585 248.893714 
z
" style="fill:#ffbb78;"/>
   </g>
   <g id="patch_69">
    <path clip-path="url(#pe5534144ec)" d="M 150.392195 248.893714 
L 167.812683 248.893714 
L 167.812683 248.893714 
L 150.392195 248.893714 
z
" style="fill:#ffbb78;"/>
   </g>
   <g id="patch_70">
    <path clip-path="url(#pe5534144ec)" d="M 172.167805 250.446857 
L 189.588293 250.446857 
L 189.588293 250.446857 
L 172.167805 250.446857 
z
" style="fill:#ffbb78;"/>
   </g>
   <g id="patch_71">
    <path clip-path="url(#pe5534144ec)" d="M 193.943415 242.681143 
L 211.363902 242.681143 
L 211.363902 241.128 
L 193.943415 241.128 
z
" style="fill:#ffbb78;"/>
   </g>
   <g id="patch_72">
    <path clip-path="url(#pe5534144ec)" d="M 215.719024 230.256 
L 233.139512 230.256 
L 233.139512 228.702857 
L 215.719024 228.702857 
z
" style="fill:#ffbb78;"/>
   </g>
   <g id="patch_73">
    <path clip-path="url(#pe5534144ec)" d="M 237.494634 242.681143 
L 254.915122 242.681143 
L 254.915122 242.681143 
L 237.494634 242.681143 
z
" style="fill:#ffbb78;"/>
   </g>
   <g id="patch_74">
    <path clip-path="url(#pe5534144ec)" d="M 259.270244 233.362286 
L 276.690732 233.362286 
L 276.690732 228.702857 
L 259.270244 228.702857 
z
" style="fill:#ffbb78;"/>
   </g>
   <g id="patch_75">
    <path clip-path="url(#pe5534144ec)" d="M 281.045854 231.809143 
L 298.466341 231.809143 
L 298.466341 222.490286 
L 281.045854 222.490286 
z
" style="fill:#ffbb78;"/>
   </g>
   <g id="patch_76">
    <path clip-path="url(#pe5534144ec)" d="M 302.821463 206.958857 
L 320.241951 206.958857 
L 320.241951 202.299429 
L 302.821463 202.299429 
z
" style="fill:#ffbb78;"/>
   </g>
   <g id="patch_77">
    <path clip-path="url(#pe5534144ec)" d="M 324.597073 213.171429 
L 342.017561 213.171429 
L 342.017561 205.405714 
L 324.597073 205.405714 
z
" style="fill:#ffbb78;"/>
   </g>
   <g id="patch_78">
    <path clip-path="url(#pe5534144ec)" d="M 346.372683 217.830857 
L 363.793171 217.830857 
L 363.793171 210.065143 
L 346.372683 210.065143 
z
" style="fill:#ffbb78;"/>
   </g>
   <g id="patch_79">
    <path clip-path="url(#pe5534144ec)" d="M 368.148293 206.958857 
L 385.56878 206.958857 
L 385.56878 196.086857 
L 368.148293 196.086857 
z
" style="fill:#ffbb78;"/>
   </g>
   <g id="patch_80">
    <path clip-path="url(#pe5534144ec)" d="M 389.923902 179.002286 
L 407.34439 179.002286 
L 407.34439 152.598857 
L 389.923902 152.598857 
z
" style="fill:#ffbb78;"/>
   </g>
   <g id="patch_81">
    <path clip-path="url(#pe5534144ec)" d="M 411.699512 151.045714 
L 429.12 151.045714 
L 429.12 121.536 
L 411.699512 121.536 
z
" style="fill:#ffbb78;"/>
   </g>
   <g id="patch_82">
    <path clip-path="url(#pe5534144ec)" d="M 433.475122 147.939429 
L 450.89561 147.939429 
L 450.89561 110.664 
L 433.475122 110.664 
z
" style="fill:#ffbb78;"/>
   </g>
   <g id="patch_83">
    <path clip-path="url(#pe5534144ec)" d="M 455.250732 160.364571 
L 472.67122 160.364571 
L 472.67122 135.514286 
L 455.250732 135.514286 
z
" style="fill:#ffbb78;"/>
   </g>
   <g id="patch_84">
    <path clip-path="url(#pe5534144ec)" d="M 477.026341 138.620571 
L 494.446829 138.620571 
L 494.446829 99.792 
L 477.026341 99.792 
z
" style="fill:#ffbb78;"/>
   </g>
   <g id="patch_85">
    <path clip-path="url(#pe5534144ec)" d="M 498.801951 119.982857 
L 516.222439 119.982857 
L 516.222439 79.601143 
L 498.801951 79.601143 
z
" style="fill:#ffbb78;"/>
   </g>
   <g id="patch_86">
    <path clip-path="url(#pe5534144ec)" d="M 520.577561 248.893714 
L 537.998049 248.893714 
L 537.998049 248.893714 
L 520.577561 248.893714 
z
" style="fill:#ffbb78;"/>
   </g>
   <g id="patch_87">
    <path clip-path="url(#pe5534144ec)" d="M 85.065366 250.446857 
L 102.485854 250.446857 
L 102.485854 250.446857 
L 85.065366 250.446857 
z
" style="fill:#2ca02c;"/>
   </g>
   <g id="patch_88">
    <path clip-path="url(#pe5534144ec)" d="M 106.840976 252 
L 124.261463 252 
L 124.261463 252 
L 106.840976 252 
z
" style="fill:#2ca02c;"/>
   </g>
   <g id="patch_89">
    <path clip-path="url(#pe5534144ec)" d="M 128.616585 248.893714 
L 146.037073 248.893714 
L 146.037073 248.893714 
L 128.616585 248.893714 
z
" style="fill:#2ca02c;"/>
   </g>
   <g id="patch_90">
    <path clip-path="url(#pe5534144ec)" d="M 150.392195 248.893714 
L 167.812683 248.893714 
L 167.812683 248.893714 
L 150.392195 248.893714 
z
" style="fill:#2ca02c;"/>
   </g>
   <g id="patch_91">
    <path clip-path="url(#pe5534144ec)" d="M 172.167805 250.446857 
L 189.588293 250.446857 
L 189.588293 250.446857 
L 172.167805 250.446857 
z
" style="fill:#2ca02c;"/>
   </g>
   <g id="patch_92">
    <path clip-path="url(#pe5534144ec)" d="M 193.943415 241.128 
L 211.363902 241.128 
L 211.363902 241.128 
L 193.943415 241.128 
z
" style="fill:#2ca02c;"/>
   </g>
   <g id="patch_93">
    <path clip-path="url(#pe5534144ec)" d="M 215.719024 228.702857 
L 233.139512 228.702857 
L 233.139512 228.702857 
L 215.719024 228.702857 
z
" style="fill:#2ca02c;"/>
   </g>
   <g id="patch_94">
    <path clip-path="url(#pe5534144ec)" d="M 237.494634 242.681143 
L 254.915122 242.681143 
L 254.915122 242.681143 
L 237.494634 242.681143 
z
" style="fill:#2ca02c;"/>
   </g>
   <g id="patch_95">
    <path clip-path="url(#pe5534144ec)" d="M 259.270244 228.702857 
L 276.690732 228.702857 
L 276.690732 228.702857 
L 259.270244 228.702857 
z
" style="fill:#2ca02c;"/>
   </g>
   <g id="patch_96">
    <path clip-path="url(#pe5534144ec)" d="M 281.045854 222.490286 
L 298.466341 222.490286 
L 298.466341 222.490286 
L 281.045854 222.490286 
z
" style="fill:#2ca02c;"/>
   </g>
   <g id="patch_97">
    <path clip-path="url(#pe5534144ec)" d="M 302.821463 202.299429 
L 320.241951 202.299429 
L 320.241951 200.746286 
L 302.821463 200.746286 
z
" style="fill:#2ca02c;"/>
   </g>
   <g id="patch_98">
    <path clip-path="url(#pe5534144ec)" d="M 324.597073 205.405714 
L 342.017561 205.405714 
L 342.017561 205.405714 
L 324.597073 205.405714 
z
" style="fill:#2ca02c;"/>
   </g>
   <g id="patch_99">
    <path clip-path="url(#pe5534144ec)" d="M 346.372683 210.065143 
L 363.793171 210.065143 
L 363.793171 208.512 
L 346.372683 208.512 
z
" style="fill:#2ca02c;"/>
   </g>
   <g id="patch_100">
    <path clip-path="url(#pe5534144ec)" d="M 368.148293 196.086857 
L 385.56878 196.086857 
L 385.56878 196.086857 
L 368.148293 196.086857 
z
" style="fill:#2ca02c;"/>
   </g>
   <g id="patch_101">
    <path clip-path="url(#pe5534144ec)" d="M 389.923902 152.598857 
L 407.34439 152.598857 
L 407.34439 152.598857 
L 389.923902 152.598857 
z
" style="fill:#2ca02c;"/>
   </g>
   <g id="patch_102">
    <path clip-path="url(#pe5534144ec)" d="M 411.699512 121.536 
L 429.12 121.536 
L 429.12 121.536 
L 411.699512 121.536 
z
" style="fill:#2ca02c;"/>
   </g>
   <g id="patch_103">
    <path clip-path="url(#pe5534144ec)" d="M 433.475122 110.664 
L 450.89561 110.664 
L 450.89561 107.557714 
L 433.475122 107.557714 
z
" style="fill:#2ca02c;"/>
   </g>
   <g id="patch_104">
    <path clip-path="url(#pe5534144ec)" d="M 455.250732 135.514286 
L 472.67122 135.514286 
L 472.67122 135.514286 
L 455.250732 135.514286 
z
" style="fill:#2ca02c;"/>
   </g>
   <g id="patch_105">
    <path clip-path="url(#pe5534144ec)" d="M 477.026341 99.792 
L 494.446829 99.792 
L 494.446829 98.238857 
L 477.026341 98.238857 
z
" style="fill:#2ca02c;"/>
   </g>
   <g id="patch_106">
    <path clip-path="url(#pe5534144ec)" d="M 498.801951 79.601143 
L 516.222439 79.601143 
L 516.222439 79.601143 
L 498.801951 79.601143 
z
" style="fill:#2ca02c;"/>
   </g>
   <g id="patch_107">
    <path clip-path="url(#pe5534144ec)" d="M 520.577561 248.893714 
L 537.998049 248.893714 
L 537.998049 248.893714 
L 520.577561 248.893714 
z
" style="fill:#2ca02c;"/>
   </g>
   <g id="patch_108">
    <path clip-path="url(#pe5534144ec)" d="M 85.065366 250.446857 
L 102.485854 250.446857 
L 102.485854 250.446857 
L 85.065366 250.446857 
z
" style="fill:#98df8a;"/>
   </g>
   <g id="patch_109">
    <path clip-path="url(#pe5534144ec)" d="M 106.840976 252 
L 124.261463 252 
L 124.261463 252 
L 106.840976 252 
z
" style="fill:#98df8a;"/>
   </g>
   <g id="patch_110">
    <path clip-path="url(#pe5534144ec)" d="M 128.616585 248.893714 
L 146.037073 248.893714 
L 146.037073 248.893714 
L 128.616585 248.893714 
z
" style="fill:#98df8a;"/>
   </g>
   <g id="patch_111">
    <path clip-path="url(#pe5534144ec)" d="M 150.392195 248.893714 
L 167.812683 248.893714 
L 167.812683 248.893714 
L 150.392195 248.893714 
z
" style="fill:#98df8a;"/>
   </g>
   <g id="patch_112">
    <path clip-path="url(#pe5534144ec)" d="M 172.167805 250.446857 
L 189.588293 250.446857 
L 189.588293 250.446857 
L 172.167805 250.446857 
z
" style="fill:#98df8a;"/>
   </g>
   <g id="patch_113">
    <path clip-path="url(#pe5534144ec)" d="M 193.943415 241.128 
L 211.363902 241.128 
L 211.363902 241.128 
L 193.943415 241.128 
z
" style="fill:#98df8a;"/>
   </g>
   <g id="patch_114">
    <path clip-path="url(#pe5534144ec)" d="M 215.719024 228.702857 
L 233.139512 228.702857 
L 233.139512 222.490286 
L 215.719024 222.490286 
z
" style="fill:#98df8a;"/>
   </g>
   <g id="patch_115">
    <path clip-path="url(#pe5534144ec)" d="M 237.494634 242.681143 
L 254.915122 242.681143 
L 254.915122 239.574857 
L 237.494634 239.574857 
z
" style="fill:#98df8a;"/>
   </g>
   <g id="patch_116">
    <path clip-path="url(#pe5534144ec)" d="M 259.270244 228.702857 
L 276.690732 228.702857 
L 276.690732 220.937143 
L 259.270244 220.937143 
z
" style="fill:#98df8a;"/>
   </g>
   <g id="patch_117">
    <path clip-path="url(#pe5534144ec)" d="M 281.045854 222.490286 
L 298.466341 222.490286 
L 298.466341 214.724571 
L 281.045854 214.724571 
z
" style="fill:#98df8a;"/>
   </g>
   <g id="patch_118">
    <path clip-path="url(#pe5534144ec)" d="M 302.821463 200.746286 
L 320.241951 200.746286 
L 320.241951 189.874286 
L 302.821463 189.874286 
z
" style="fill:#98df8a;"/>
   </g>
   <g id="patch_119">
    <path clip-path="url(#pe5534144ec)" d="M 324.597073 205.405714 
L 342.017561 205.405714 
L 342.017561 197.64 
L 324.597073 197.64 
z
" style="fill:#98df8a;"/>
   </g>
   <g id="patch_120">
    <path clip-path="url(#pe5534144ec)" d="M 346.372683 208.512 
L 363.793171 208.512 
L 363.793171 199.193143 
L 346.372683 199.193143 
z
" style="fill:#98df8a;"/>
   </g>
   <g id="patch_121">
    <path clip-path="url(#pe5534144ec)" d="M 368.148293 196.086857 
L 385.56878 196.086857 
L 385.56878 185.214857 
L 368.148293 185.214857 
z
" style="fill:#98df8a;"/>
   </g>
   <g id="patch_122">
    <path clip-path="url(#pe5534144ec)" d="M 389.923902 152.598857 
L 407.34439 152.598857 
L 407.34439 138.620571 
L 389.923902 138.620571 
z
" style="fill:#98df8a;"/>
   </g>
   <g id="patch_123">
    <path clip-path="url(#pe5534144ec)" d="M 411.699512 121.536 
L 429.12 121.536 
L 429.12 99.792 
L 411.699512 99.792 
z
" style="fill:#98df8a;"/>
   </g>
   <g id="patch_124">
    <path clip-path="url(#pe5534144ec)" d="M 433.475122 107.557714 
L 450.89561 107.557714 
L 450.89561 95.132571 
L 433.475122 95.132571 
z
" style="fill:#98df8a;"/>
   </g>
   <g id="patch_125">
    <path clip-path="url(#pe5534144ec)" d="M 455.250732 135.514286 
L 472.67122 135.514286 
L 472.67122 119.982857 
L 455.250732 119.982857 
z
" style="fill:#98df8a;"/>
   </g>
   <g id="patch_126">
    <path clip-path="url(#pe5534144ec)" d="M 477.026341 98.238857 
L 494.446829 98.238857 
L 494.446829 81.154286 
L 477.026341 81.154286 
z
" style="fill:#98df8a;"/>
   </g>
   <g id="patch_127">
    <path clip-path="url(#pe5534144ec)" d="M 498.801951 79.601143 
L 516.222439 79.601143 
L 516.222439 70.282286 
L 498.801951 70.282286 
z
" style="fill:#98df8a;"/>
   </g>
   <g id="patch_128">
    <path clip-path="url(#pe5534144ec)" d="M 520.577561 248.893714 
L 537.998049 248.893714 
L 537.998049 247.340571 
L 520.577561 247.340571 
z
" style="fill:#98df8a;"/>
   </g>
   <g id="patch_129">
    <path clip-path="url(#pe5534144ec)" d="M 85.065366 250.446857 
L 102.485854 250.446857 
L 102.485854 250.446857 
L 85.065366 250.446857 
z
" style="fill:#d62728;"/>
   </g>
   <g id="patch_130">
    <path clip-path="url(#pe5534144ec)" d="M 106.840976 252 
L 124.261463 252 
L 124.261463 252 
L 106.840976 252 
z
" style="fill:#d62728;"/>
   </g>
   <g id="patch_131">
    <path clip-path="url(#pe5534144ec)" d="M 128.616585 248.893714 
L 146.037073 248.893714 
L 146.037073 248.893714 
L 128.616585 248.893714 
z
" style="fill:#d62728;"/>
   </g>
   <g id="patch_132">
    <path clip-path="url(#pe5534144ec)" d="M 150.392195 248.893714 
L 167.812683 248.893714 
L 167.812683 248.893714 
L 150.392195 248.893714 
z
" style="fill:#d62728;"/>
   </g>
   <g id="patch_133">
    <path clip-path="url(#pe5534144ec)" d="M 172.167805 250.446857 
L 189.588293 250.446857 
L 189.588293 250.446857 
L 172.167805 250.446857 
z
" style="fill:#d62728;"/>
   </g>
   <g id="patch_134">
    <path clip-path="url(#pe5534144ec)" d="M 193.943415 241.128 
L 211.363902 241.128 
L 211.363902 241.128 
L 193.943415 241.128 
z
" style="fill:#d62728;"/>
   </g>
   <g id="patch_135">
    <path clip-path="url(#pe5534144ec)" d="M 215.719024 222.490286 
L 233.139512 222.490286 
L 233.139512 220.937143 
L 215.719024 220.937143 
z
" style="fill:#d62728;"/>
   </g>
   <g id="patch_136">
    <path clip-path="url(#pe5534144ec)" d="M 237.494634 239.574857 
L 254.915122 239.574857 
L 254.915122 239.574857 
L 237.494634 239.574857 
z
" style="fill:#d62728;"/>
   </g>
   <g id="patch_137">
    <path clip-path="url(#pe5534144ec)" d="M 259.270244 220.937143 
L 276.690732 220.937143 
L 276.690732 220.937143 
L 259.270244 220.937143 
z
" style="fill:#d62728;"/>
   </g>
   <g id="patch_138">
    <path clip-path="url(#pe5534144ec)" d="M 281.045854 214.724571 
L 298.466341 214.724571 
L 298.466341 213.171429 
L 281.045854 213.171429 
z
" style="fill:#d62728;"/>
   </g>
   <g id="patch_139">
    <path clip-path="url(#pe5534144ec)" d="M 302.821463 189.874286 
L 320.241951 189.874286 
L 320.241951 188.321143 
L 302.821463 188.321143 
z
" style="fill:#d62728;"/>
   </g>
   <g id="patch_140">
    <path clip-path="url(#pe5534144ec)" d="M 324.597073 197.64 
L 342.017561 197.64 
L 342.017561 196.086857 
L 324.597073 196.086857 
z
" style="fill:#d62728;"/>
   </g>
   <g id="patch_141">
    <path clip-path="url(#pe5534144ec)" d="M 346.372683 199.193143 
L 363.793171 199.193143 
L 363.793171 194.533714 
L 346.372683 194.533714 
z
" style="fill:#d62728;"/>
   </g>
   <g id="patch_142">
    <path clip-path="url(#pe5534144ec)" d="M 368.148293 185.214857 
L 385.56878 185.214857 
L 385.56878 185.214857 
L 368.148293 185.214857 
z
" style="fill:#d62728;"/>
   </g>
   <g id="patch_143">
    <path clip-path="url(#pe5534144ec)" d="M 389.923902 138.620571 
L 407.34439 138.620571 
L 407.34439 135.514286 
L 389.923902 135.514286 
z
" style="fill:#d62728;"/>
   </g>
   <g id="patch_144">
    <path clip-path="url(#pe5534144ec)" d="M 411.699512 99.792 
L 429.12 99.792 
L 429.12 96.685714 
L 411.699512 96.685714 
z
" style="fill:#d62728;"/>
   </g>
   <g id="patch_145">
    <path clip-path="url(#pe5534144ec)" d="M 433.475122 95.132571 
L 450.89561 95.132571 
L 450.89561 88.92 
L 433.475122 88.92 
z
" style="fill:#d62728;"/>
   </g>
   <g id="patch_146">
    <path clip-path="url(#pe5534144ec)" d="M 455.250732 119.982857 
L 472.67122 119.982857 
L 472.67122 115.323429 
L 455.250732 115.323429 
z
" style="fill:#d62728;"/>
   </g>
   <g id="patch_147">
    <path clip-path="url(#pe5534144ec)" d="M 477.026341 81.154286 
L 494.446829 81.154286 
L 494.446829 71.835429 
L 477.026341 71.835429 
z
" style="fill:#d62728;"/>
   </g>
   <g id="patch_148">
    <path clip-path="url(#pe5534144ec)" d="M 498.801951 70.282286 
L 516.222439 70.282286 
L 516.222439 51.644571 
L 498.801951 51.644571 
z
" style="fill:#d62728;"/>
   </g>
   <g id="patch_149">
    <path clip-path="url(#pe5534144ec)" d="M 520.577561 247.340571 
L 537.998049 247.340571 
L 537.998049 247.340571 
L 520.577561 247.340571 
z
" style="fill:#d62728;"/>
   </g>
   <g id="patch_150">
    <path clip-path="url(#pe5534144ec)" d="M 85.065366 250.446857 
L 102.485854 250.446857 
L 102.485854 250.446857 
L 85.065366 250.446857 
z
" style="fill:#ff9896;"/>
   </g>
   <g id="patch_151">
    <path clip-path="url(#pe5534144ec)" d="M 106.840976 252 
L 124.261463 252 
L 124.261463 252 
L 106.840976 252 
z
" style="fill:#ff9896;"/>
   </g>
   <g id="patch_152">
    <path clip-path="url(#pe5534144ec)" d="M 128.616585 248.893714 
L 146.037073 248.893714 
L 146.037073 248.893714 
L 128.616585 248.893714 
z
" style="fill:#ff9896;"/>
   </g>
   <g id="patch_153">
    <path clip-path="url(#pe5534144ec)" d="M 150.392195 248.893714 
L 167.812683 248.893714 
L 167.812683 248.893714 
L 150.392195 248.893714 
z
" style="fill:#ff9896;"/>
   </g>
   <g id="patch_154">
    <path clip-path="url(#pe5534144ec)" d="M 172.167805 250.446857 
L 189.588293 250.446857 
L 189.588293 250.446857 
L 172.167805 250.446857 
z
" style="fill:#ff9896;"/>
   </g>
   <g id="patch_155">
    <path clip-path="url(#pe5534144ec)" d="M 193.943415 241.128 
L 211.363902 241.128 
L 211.363902 241.128 
L 193.943415 241.128 
z
" style="fill:#ff9896;"/>
   </g>
   <g id="patch_156">
    <path clip-path="url(#pe5534144ec)" d="M 215.719024 220.937143 
L 233.139512 220.937143 
L 233.139512 220.937143 
L 215.719024 220.937143 
z
" style="fill:#ff9896;"/>
   </g>
   <g id="patch_157">
    <path clip-path="url(#pe5534144ec)" d="M 237.494634 239.574857 
L 254.915122 239.574857 
L 254.915122 239.574857 
L 237.494634 239.574857 
z
" style="fill:#ff9896;"/>
   </g>
   <g id="patch_158">
    <path clip-path="url(#pe5534144ec)" d="M 259.270244 220.937143 
L 276.690732 220.937143 
L 276.690732 220.937143 
L 259.270244 220.937143 
z
" style="fill:#ff9896;"/>
   </g>
   <g id="patch_159">
    <path clip-path="url(#pe5534144ec)" d="M 281.045854 213.171429 
L 298.466341 213.171429 
L 298.466341 213.171429 
L 281.045854 213.171429 
z
" style="fill:#ff9896;"/>
   </g>
   <g id="patch_160">
    <path clip-path="url(#pe5534144ec)" d="M 302.821463 188.321143 
L 320.241951 188.321143 
L 320.241951 186.768 
L 302.821463 186.768 
z
" style="fill:#ff9896;"/>
   </g>
   <g id="patch_161">
    <path clip-path="url(#pe5534144ec)" d="M 324.597073 196.086857 
L 342.017561 196.086857 
L 342.017561 196.086857 
L 324.597073 196.086857 
z
" style="fill:#ff9896;"/>
   </g>
   <g id="patch_162">
    <path clip-path="url(#pe5534144ec)" d="M 346.372683 194.533714 
L 363.793171 194.533714 
L 363.793171 192.980571 
L 346.372683 192.980571 
z
" style="fill:#ff9896;"/>
   </g>
   <g id="patch_163">
    <path clip-path="url(#pe5534144ec)" d="M 368.148293 185.214857 
L 385.56878 185.214857 
L 385.56878 185.214857 
L 368.148293 185.214857 
z
" style="fill:#ff9896;"/>
   </g>
   <g id="patch_164">
    <path clip-path="url(#pe5534144ec)" d="M 389.923902 135.514286 
L 407.34439 135.514286 
L 407.34439 135.514286 
L 389.923902 135.514286 
z
" style="fill:#ff9896;"/>
   </g>
   <g id="patch_165">
    <path clip-path="url(#pe5534144ec)" d="M 411.699512 96.685714 
L 429.12 96.685714 
L 429.12 93.579429 
L 411.699512 93.579429 
z
" style="fill:#ff9896;"/>
   </g>
   <g id="patch_166">
    <path clip-path="url(#pe5534144ec)" d="M 433.475122 88.92 
L 450.89561 88.92 
L 450.89561 87.366857 
L 433.475122 87.366857 
z
" style="fill:#ff9896;"/>
   </g>
   <g id="patch_167">
    <path clip-path="url(#pe5534144ec)" d="M 455.250732 115.323429 
L 472.67122 115.323429 
L 472.67122 115.323429 
L 455.250732 115.323429 
z
" style="fill:#ff9896;"/>
   </g>
   <g id="patch_168">
    <path clip-path="url(#pe5534144ec)" d="M 477.026341 71.835429 
L 494.446829 71.835429 
L 494.446829 65.622857 
L 477.026341 65.622857 
z
" style="fill:#ff9896;"/>
   </g>
   <g id="patch_169">
    <path clip-path="url(#pe5534144ec)" d="M 498.801951 51.644571 
L 516.222439 51.644571 
L 516.222439 50.091429 
L 498.801951 50.091429 
z
" style="fill:#ff9896;"/>
   </g>
   <g id="patch_170">
    <path clip-path="url(#pe5534144ec)" d="M 520.577561 247.340571 
L 537.998049 247.340571 
L 537.998049 247.340571 
L 520.577561 247.340571 
z
" style="fill:#ff9896;"/>
   </g>
   <g id="patch_171">
    <path clip-path="url(#pe5534144ec)" d="M 85.065366 250.446857 
L 102.485854 250.446857 
L 102.485854 250.446857 
L 85.065366 250.446857 
z
" style="fill:#9467bd;"/>
   </g>
   <g id="patch_172">
    <path clip-path="url(#pe5534144ec)" d="M 106.840976 252 
L 124.261463 252 
L 124.261463 252 
L 106.840976 252 
z
" style="fill:#9467bd;"/>
   </g>
   <g id="patch_173">
    <path clip-path="url(#pe5534144ec)" d="M 128.616585 248.893714 
L 146.037073 248.893714 
L 146.037073 248.893714 
L 128.616585 248.893714 
z
" style="fill:#9467bd;"/>
   </g>
   <g id="patch_174">
    <path clip-path="url(#pe5534144ec)" d="M 150.392195 248.893714 
L 167.812683 248.893714 
L 167.812683 248.893714 
L 150.392195 248.893714 
z
" style="fill:#9467bd;"/>
   </g>
   <g id="patch_175">
    <path clip-path="url(#pe5534144ec)" d="M 172.167805 250.446857 
L 189.588293 250.446857 
L 189.588293 250.446857 
L 172.167805 250.446857 
z
" style="fill:#9467bd;"/>
   </g>
   <g id="patch_176">
    <path clip-path="url(#pe5534144ec)" d="M 193.943415 241.128 
L 211.363902 241.128 
L 211.363902 241.128 
L 193.943415 241.128 
z
" style="fill:#9467bd;"/>
   </g>
   <g id="patch_177">
    <path clip-path="url(#pe5534144ec)" d="M 215.719024 220.937143 
L 233.139512 220.937143 
L 233.139512 220.937143 
L 215.719024 220.937143 
z
" style="fill:#9467bd;"/>
   </g>
   <g id="patch_178">
    <path clip-path="url(#pe5534144ec)" d="M 237.494634 239.574857 
L 254.915122 239.574857 
L 254.915122 238.021714 
L 237.494634 238.021714 
z
" style="fill:#9467bd;"/>
   </g>
   <g id="patch_179">
    <path clip-path="url(#pe5534144ec)" d="M 259.270244 220.937143 
L 276.690732 220.937143 
L 276.690732 220.937143 
L 259.270244 220.937143 
z
" style="fill:#9467bd;"/>
   </g>
   <g id="patch_180">
    <path clip-path="url(#pe5534144ec)" d="M 281.045854 213.171429 
L 298.466341 213.171429 
L 298.466341 213.171429 
L 281.045854 213.171429 
z
" style="fill:#9467bd;"/>
   </g>
   <g id="patch_181">
    <path clip-path="url(#pe5534144ec)" d="M 302.821463 186.768 
L 320.241951 186.768 
L 320.241951 185.214857 
L 302.821463 185.214857 
z
" style="fill:#9467bd;"/>
   </g>
   <g id="patch_182">
    <path clip-path="url(#pe5534144ec)" d="M 324.597073 196.086857 
L 342.017561 196.086857 
L 342.017561 196.086857 
L 324.597073 196.086857 
z
" style="fill:#9467bd;"/>
   </g>
   <g id="patch_183">
    <path clip-path="url(#pe5534144ec)" d="M 346.372683 192.980571 
L 363.793171 192.980571 
L 363.793171 192.980571 
L 346.372683 192.980571 
z
" style="fill:#9467bd;"/>
   </g>
   <g id="patch_184">
    <path clip-path="url(#pe5534144ec)" d="M 368.148293 185.214857 
L 385.56878 185.214857 
L 385.56878 185.214857 
L 368.148293 185.214857 
z
" style="fill:#9467bd;"/>
   </g>
   <g id="patch_185">
    <path clip-path="url(#pe5534144ec)" d="M 389.923902 135.514286 
L 407.34439 135.514286 
L 407.34439 133.961143 
L 389.923902 133.961143 
z
" style="fill:#9467bd;"/>
   </g>
   <g id="patch_186">
    <path clip-path="url(#pe5534144ec)" d="M 411.699512 93.579429 
L 429.12 93.579429 
L 429.12 90.473143 
L 411.699512 90.473143 
z
" style="fill:#9467bd;"/>
   </g>
   <g id="patch_187">
    <path clip-path="url(#pe5534144ec)" d="M 433.475122 87.366857 
L 450.89561 87.366857 
L 450.89561 82.707429 
L 433.475122 82.707429 
z
" style="fill:#9467bd;"/>
   </g>
   <g id="patch_188">
    <path clip-path="url(#pe5534144ec)" d="M 455.250732 115.323429 
L 472.67122 115.323429 
L 472.67122 113.770286 
L 455.250732 113.770286 
z
" style="fill:#9467bd;"/>
   </g>
   <g id="patch_189">
    <path clip-path="url(#pe5534144ec)" d="M 477.026341 65.622857 
L 494.446829 65.622857 
L 494.446829 64.069714 
L 477.026341 64.069714 
z
" style="fill:#9467bd;"/>
   </g>
   <g id="patch_190">
    <path clip-path="url(#pe5534144ec)" d="M 498.801951 50.091429 
L 516.222439 50.091429 
L 516.222439 48.538286 
L 498.801951 48.538286 
z
" style="fill:#9467bd;"/>
   </g>
   <g id="patch_191">
    <path clip-path="url(#pe5534144ec)" d="M 520.577561 247.340571 
L 537.998049 247.340571 
L 537.998049 247.340571 
L 520.577561 247.340571 
z
" style="fill:#9467bd;"/>
   </g>
   <g id="patch_192">
    <path clip-path="url(#pe5534144ec)" d="M 85.065366 250.446857 
L 102.485854 250.446857 
L 102.485854 250.446857 
L 85.065366 250.446857 
z
" style="fill:#c5b0d5;"/>
   </g>
   <g id="patch_193">
    <path clip-path="url(#pe5534144ec)" d="M 106.840976 252 
L 124.261463 252 
L 124.261463 252 
L 106.840976 252 
z
" style="fill:#c5b0d5;"/>
   </g>
   <g id="patch_194">
    <path clip-path="url(#pe5534144ec)" d="M 128.616585 248.893714 
L 146.037073 248.893714 
L 146.037073 248.893714 
L 128.616585 248.893714 
z
" style="fill:#c5b0d5;"/>
   </g>
   <g id="patch_195">
    <path clip-path="url(#pe5534144ec)" d="M 150.392195 248.893714 
L 167.812683 248.893714 
L 167.812683 248.893714 
L 150.392195 248.893714 
z
" style="fill:#c5b0d5;"/>
   </g>
   <g id="patch_196">
    <path clip-path="url(#pe5534144ec)" d="M 172.167805 250.446857 
L 189.588293 250.446857 
L 189.588293 250.446857 
L 172.167805 250.446857 
z
" style="fill:#c5b0d5;"/>
   </g>
   <g id="patch_197">
    <path clip-path="url(#pe5534144ec)" d="M 193.943415 241.128 
L 211.363902 241.128 
L 211.363902 241.128 
L 193.943415 241.128 
z
" style="fill:#c5b0d5;"/>
   </g>
   <g id="patch_198">
    <path clip-path="url(#pe5534144ec)" d="M 215.719024 220.937143 
L 233.139512 220.937143 
L 233.139512 219.384 
L 215.719024 219.384 
z
" style="fill:#c5b0d5;"/>
   </g>
   <g id="patch_199">
    <path clip-path="url(#pe5534144ec)" d="M 237.494634 238.021714 
L 254.915122 238.021714 
L 254.915122 238.021714 
L 237.494634 238.021714 
z
" style="fill:#c5b0d5;"/>
   </g>
   <g id="patch_200">
    <path clip-path="url(#pe5534144ec)" d="M 259.270244 220.937143 
L 276.690732 220.937143 
L 276.690732 220.937143 
L 259.270244 220.937143 
z
" style="fill:#c5b0d5;"/>
   </g>
   <g id="patch_201">
    <path clip-path="url(#pe5534144ec)" d="M 281.045854 213.171429 
L 298.466341 213.171429 
L 298.466341 213.171429 
L 281.045854 213.171429 
z
" style="fill:#c5b0d5;"/>
   </g>
   <g id="patch_202">
    <path clip-path="url(#pe5534144ec)" d="M 302.821463 185.214857 
L 320.241951 185.214857 
L 320.241951 183.661714 
L 302.821463 183.661714 
z
" style="fill:#c5b0d5;"/>
   </g>
   <g id="patch_203">
    <path clip-path="url(#pe5534144ec)" d="M 324.597073 196.086857 
L 342.017561 196.086857 
L 342.017561 196.086857 
L 324.597073 196.086857 
z
" style="fill:#c5b0d5;"/>
   </g>
   <g id="patch_204">
    <path clip-path="url(#pe5534144ec)" d="M 346.372683 192.980571 
L 363.793171 192.980571 
L 363.793171 192.980571 
L 346.372683 192.980571 
z
" style="fill:#c5b0d5;"/>
   </g>
   <g id="patch_205">
    <path clip-path="url(#pe5534144ec)" d="M 368.148293 185.214857 
L 385.56878 185.214857 
L 385.56878 185.214857 
L 368.148293 185.214857 
z
" style="fill:#c5b0d5;"/>
   </g>
   <g id="patch_206">
    <path clip-path="url(#pe5534144ec)" d="M 389.923902 133.961143 
L 407.34439 133.961143 
L 407.34439 132.408 
L 389.923902 132.408 
z
" style="fill:#c5b0d5;"/>
   </g>
   <g id="patch_207">
    <path clip-path="url(#pe5534144ec)" d="M 411.699512 90.473143 
L 429.12 90.473143 
L 429.12 88.92 
L 411.699512 88.92 
z
" style="fill:#c5b0d5;"/>
   </g>
   <g id="patch_208">
    <path clip-path="url(#pe5534144ec)" d="M 433.475122 82.707429 
L 450.89561 82.707429 
L 450.89561 82.707429 
L 433.475122 82.707429 
z
" style="fill:#c5b0d5;"/>
   </g>
   <g id="patch_209">
    <path clip-path="url(#pe5534144ec)" d="M 455.250732 113.770286 
L 472.67122 113.770286 
L 472.67122 112.217143 
L 455.250732 112.217143 
z
" style="fill:#c5b0d5;"/>
   </g>
   <g id="patch_210">
    <path clip-path="url(#pe5534144ec)" d="M 477.026341 64.069714 
L 494.446829 64.069714 
L 494.446829 64.069714 
L 477.026341 64.069714 
z
" style="fill:#c5b0d5;"/>
   </g>
   <g id="patch_211">
    <path clip-path="url(#pe5534144ec)" d="M 498.801951 48.538286 
L 516.222439 48.538286 
L 516.222439 46.985143 
L 498.801951 46.985143 
z
" style="fill:#c5b0d5;"/>
   </g>
   <g id="patch_212">
    <path clip-path="url(#pe5534144ec)" d="M 520.577561 247.340571 
L 537.998049 247.340571 
L 537.998049 247.340571 
L 520.577561 247.340571 
z
" style="fill:#c5b0d5;"/>
   </g>
   <g id="matplotlib.axis_1">
    <g id="xtick_1">
     <g id="line2d_1">
      <defs>
       <path d="M 0 0 
L 0 3.5 
" id="m66a0bfaa55" style="stroke:#000000;stroke-width:0.8;"/>
      </defs>
      <g>
       <use style="stroke:#000000;stroke-width:0.8;" x="72" xlink:href="#m66a0bfaa55" y="252"/>
      </g>
     </g>
     <g id="text_1">
      <!-- 2000 -->
      <g transform="translate(59.275 266.598437)scale(0.1 -0.1)">
       <defs>
        <path d="M 1228 531 
L 3431 531 
L 3431 0 
L 469 0 
L 469 531 
Q 828 903 1448 1529 
Q 2069 2156 2228 2338 
Q 2531 2678 2651 2914 
Q 2772 3150 2772 3378 
Q 2772 3750 2511 3984 
Q 2250 4219 1831 4219 
Q 1534 4219 1204 4116 
Q 875 4013 500 3803 
L 500 4441 
Q 881 4594 1212 4672 
Q 1544 4750 1819 4750 
Q 2544 4750 2975 4387 
Q 3406 4025 3406 3419 
Q 3406 3131 3298 2873 
Q 3191 2616 2906 2266 
Q 2828 2175 2409 1742 
Q 1991 1309 1228 531 
z
" id="DejaVuSans-32" transform="scale(0.015625)"/>
        <path d="M 2034 4250 
Q 1547 4250 1301 3770 
Q 1056 3291 1056 2328 
Q 1056 1369 1301 889 
Q 1547 409 2034 409 
Q 2525 409 2770 889 
Q 3016 1369 3016 2328 
Q 3016 3291 2770 3770 
Q 2525 4250 2034 4250 
z
M 2034 4750 
Q 2819 4750 3233 4129 
Q 3647 3509 3647 2328 
Q 3647 1150 3233 529 
Q 2819 -91 2034 -91 
Q 1250 -91 836 529 
Q 422 1150 422 2328 
Q 422 3509 836 4129 
Q 1250 4750 2034 4750 
z
" id="DejaVuSans-30" transform="scale(0.015625)"/>
       </defs>
       <use xlink:href="#DejaVuSans-32"/>
       <use x="63.623047" xlink:href="#DejaVuSans-30"/>
       <use x="127.246094" xlink:href="#DejaVuSans-30"/>
       <use x="190.869141" xlink:href="#DejaVuSans-30"/>
      </g>
     </g>
    </g>
    <g id="xtick_2">
     <g id="line2d_2">
      <g>
       <use style="stroke:#000000;stroke-width:0.8;" x="180.878049" xlink:href="#m66a0bfaa55" y="252"/>
      </g>
     </g>
     <g id="text_2">
      <!-- 2005 -->
      <g transform="translate(168.153049 266.598437)scale(0.1 -0.1)">
       <defs>
        <path d="M 691 4666 
L 3169 4666 
L 3169 4134 
L 1269 4134 
L 1269 2991 
Q 1406 3038 1543 3061 
Q 1681 3084 1819 3084 
Q 2600 3084 3056 2656 
Q 3513 2228 3513 1497 
Q 3513 744 3044 326 
Q 2575 -91 1722 -91 
Q 1428 -91 1123 -41 
Q 819 9 494 109 
L 494 744 
Q 775 591 1075 516 
Q 1375 441 1709 441 
Q 2250 441 2565 725 
Q 2881 1009 2881 1497 
Q 2881 1984 2565 2268 
Q 2250 2553 1709 2553 
Q 1456 2553 1204 2497 
Q 953 2441 691 2322 
L 691 4666 
z
" id="DejaVuSans-35" transform="scale(0.015625)"/>
       </defs>
       <use xlink:href="#DejaVuSans-32"/>
       <use x="63.623047" xlink:href="#DejaVuSans-30"/>
       <use x="127.246094" xlink:href="#DejaVuSans-30"/>
       <use x="190.869141" xlink:href="#DejaVuSans-35"/>
      </g>
     </g>
    </g>
    <g id="xtick_3">
     <g id="line2d_3">
      <g>
       <use style="stroke:#000000;stroke-width:0.8;" x="289.756098" xlink:href="#m66a0bfaa55" y="252"/>
      </g>
     </g>
     <g id="text_3">
      <!-- 2010 -->
      <g transform="translate(277.031098 266.598437)scale(0.1 -0.1)">
       <defs>
        <path d="M 794 531 
L 1825 531 
L 1825 4091 
L 703 3866 
L 703 4441 
L 1819 4666 
L 2450 4666 
L 2450 531 
L 3481 531 
L 3481 0 
L 794 0 
L 794 531 
z
" id="DejaVuSans-31" transform="scale(0.015625)"/>
       </defs>
       <use xlink:href="#DejaVuSans-32"/>
       <use x="63.623047" xlink:href="#DejaVuSans-30"/>
       <use x="127.246094" xlink:href="#DejaVuSans-31"/>
       <use x="190.869141" xlink:href="#DejaVuSans-30"/>
      </g>
     </g>
    </g>
    <g id="xtick_4">
     <g id="line2d_4">
      <g>
       <use style="stroke:#000000;stroke-width:0.8;" x="398.634146" xlink:href="#m66a0bfaa55" y="252"/>
      </g>
     </g>
     <g id="text_4">
      <!-- 2015 -->
      <g transform="translate(385.909146 266.598437)scale(0.1 -0.1)">
       <use xlink:href="#DejaVuSans-32"/>
       <use x="63.623047" xlink:href="#DejaVuSans-30"/>
       <use x="127.246094" xlink:href="#DejaVuSans-31"/>
       <use x="190.869141" xlink:href="#DejaVuSans-35"/>
      </g>
     </g>
    </g>
    <g id="xtick_5">
     <g id="line2d_5">
      <g>
       <use style="stroke:#000000;stroke-width:0.8;" x="507.512195" xlink:href="#m66a0bfaa55" y="252"/>
      </g>
     </g>
     <g id="text_5">
      <!-- 2020 -->
      <g transform="translate(494.787195 266.598437)scale(0.1 -0.1)">
       <use xlink:href="#DejaVuSans-32"/>
       <use x="63.623047" xlink:href="#DejaVuSans-30"/>
       <use x="127.246094" xlink:href="#DejaVuSans-32"/>
       <use x="190.869141" xlink:href="#DejaVuSans-30"/>
      </g>
     </g>
    </g>
    <g id="text_6">
     <!-- year of publication -->
     <g transform="translate(220.2575 284.835625)scale(0.16 -0.16)">
      <defs>
       <path d="M 2059 -325 
Q 1816 -950 1584 -1140 
Q 1353 -1331 966 -1331 
L 506 -1331 
L 506 -850 
L 844 -850 
Q 1081 -850 1212 -737 
Q 1344 -625 1503 -206 
L 1606 56 
L 191 3500 
L 800 3500 
L 1894 763 
L 2988 3500 
L 3597 3500 
L 2059 -325 
z
" id="DejaVuSans-79" transform="scale(0.015625)"/>
       <path d="M 3597 1894 
L 3597 1613 
L 953 1613 
Q 991 1019 1311 708 
Q 1631 397 2203 397 
Q 2534 397 2845 478 
Q 3156 559 3463 722 
L 3463 178 
Q 3153 47 2828 -22 
Q 2503 -91 2169 -91 
Q 1331 -91 842 396 
Q 353 884 353 1716 
Q 353 2575 817 3079 
Q 1281 3584 2069 3584 
Q 2775 3584 3186 3129 
Q 3597 2675 3597 1894 
z
M 3022 2063 
Q 3016 2534 2758 2815 
Q 2500 3097 2075 3097 
Q 1594 3097 1305 2825 
Q 1016 2553 972 2059 
L 3022 2063 
z
" id="DejaVuSans-65" transform="scale(0.015625)"/>
       <path d="M 2194 1759 
Q 1497 1759 1228 1600 
Q 959 1441 959 1056 
Q 959 750 1161 570 
Q 1363 391 1709 391 
Q 2188 391 2477 730 
Q 2766 1069 2766 1631 
L 2766 1759 
L 2194 1759 
z
M 3341 1997 
L 3341 0 
L 2766 0 
L 2766 531 
Q 2569 213 2275 61 
Q 1981 -91 1556 -91 
Q 1019 -91 701 211 
Q 384 513 384 1019 
Q 384 1609 779 1909 
Q 1175 2209 1959 2209 
L 2766 2209 
L 2766 2266 
Q 2766 2663 2505 2880 
Q 2244 3097 1772 3097 
Q 1472 3097 1187 3025 
Q 903 2953 641 2809 
L 641 3341 
Q 956 3463 1253 3523 
Q 1550 3584 1831 3584 
Q 2591 3584 2966 3190 
Q 3341 2797 3341 1997 
z
" id="DejaVuSans-61" transform="scale(0.015625)"/>
       <path d="M 2631 2963 
Q 2534 3019 2420 3045 
Q 2306 3072 2169 3072 
Q 1681 3072 1420 2755 
Q 1159 2438 1159 1844 
L 1159 0 
L 581 0 
L 581 3500 
L 1159 3500 
L 1159 2956 
Q 1341 3275 1631 3429 
Q 1922 3584 2338 3584 
Q 2397 3584 2469 3576 
Q 2541 3569 2628 3553 
L 2631 2963 
z
" id="DejaVuSans-72" transform="scale(0.015625)"/>
       <path id="DejaVuSans-20" transform="scale(0.015625)"/>
       <path d="M 1959 3097 
Q 1497 3097 1228 2736 
Q 959 2375 959 1747 
Q 959 1119 1226 758 
Q 1494 397 1959 397 
Q 2419 397 2687 759 
Q 2956 1122 2956 1747 
Q 2956 2369 2687 2733 
Q 2419 3097 1959 3097 
z
M 1959 3584 
Q 2709 3584 3137 3096 
Q 3566 2609 3566 1747 
Q 3566 888 3137 398 
Q 2709 -91 1959 -91 
Q 1206 -91 779 398 
Q 353 888 353 1747 
Q 353 2609 779 3096 
Q 1206 3584 1959 3584 
z
" id="DejaVuSans-6f" transform="scale(0.015625)"/>
       <path d="M 2375 4863 
L 2375 4384 
L 1825 4384 
Q 1516 4384 1395 4259 
Q 1275 4134 1275 3809 
L 1275 3500 
L 2222 3500 
L 2222 3053 
L 1275 3053 
L 1275 0 
L 697 0 
L 697 3053 
L 147 3053 
L 147 3500 
L 697 3500 
L 697 3744 
Q 697 4328 969 4595 
Q 1241 4863 1831 4863 
L 2375 4863 
z
" id="DejaVuSans-66" transform="scale(0.015625)"/>
       <path d="M 1159 525 
L 1159 -1331 
L 581 -1331 
L 581 3500 
L 1159 3500 
L 1159 2969 
Q 1341 3281 1617 3432 
Q 1894 3584 2278 3584 
Q 2916 3584 3314 3078 
Q 3713 2572 3713 1747 
Q 3713 922 3314 415 
Q 2916 -91 2278 -91 
Q 1894 -91 1617 61 
Q 1341 213 1159 525 
z
M 3116 1747 
Q 3116 2381 2855 2742 
Q 2594 3103 2138 3103 
Q 1681 3103 1420 2742 
Q 1159 2381 1159 1747 
Q 1159 1113 1420 752 
Q 1681 391 2138 391 
Q 2594 391 2855 752 
Q 3116 1113 3116 1747 
z
" id="DejaVuSans-70" transform="scale(0.015625)"/>
       <path d="M 544 1381 
L 544 3500 
L 1119 3500 
L 1119 1403 
Q 1119 906 1312 657 
Q 1506 409 1894 409 
Q 2359 409 2629 706 
Q 2900 1003 2900 1516 
L 2900 3500 
L 3475 3500 
L 3475 0 
L 2900 0 
L 2900 538 
Q 2691 219 2414 64 
Q 2138 -91 1772 -91 
Q 1169 -91 856 284 
Q 544 659 544 1381 
z
M 1991 3584 
L 1991 3584 
z
" id="DejaVuSans-75" transform="scale(0.015625)"/>
       <path d="M 3116 1747 
Q 3116 2381 2855 2742 
Q 2594 3103 2138 3103 
Q 1681 3103 1420 2742 
Q 1159 2381 1159 1747 
Q 1159 1113 1420 752 
Q 1681 391 2138 391 
Q 2594 391 2855 752 
Q 3116 1113 3116 1747 
z
M 1159 2969 
Q 1341 3281 1617 3432 
Q 1894 3584 2278 3584 
Q 2916 3584 3314 3078 
Q 3713 2572 3713 1747 
Q 3713 922 3314 415 
Q 2916 -91 2278 -91 
Q 1894 -91 1617 61 
Q 1341 213 1159 525 
L 1159 0 
L 581 0 
L 581 4863 
L 1159 4863 
L 1159 2969 
z
" id="DejaVuSans-62" transform="scale(0.015625)"/>
       <path d="M 603 4863 
L 1178 4863 
L 1178 0 
L 603 0 
L 603 4863 
z
" id="DejaVuSans-6c" transform="scale(0.015625)"/>
       <path d="M 603 3500 
L 1178 3500 
L 1178 0 
L 603 0 
L 603 3500 
z
M 603 4863 
L 1178 4863 
L 1178 4134 
L 603 4134 
L 603 4863 
z
" id="DejaVuSans-69" transform="scale(0.015625)"/>
       <path d="M 3122 3366 
L 3122 2828 
Q 2878 2963 2633 3030 
Q 2388 3097 2138 3097 
Q 1578 3097 1268 2742 
Q 959 2388 959 1747 
Q 959 1106 1268 751 
Q 1578 397 2138 397 
Q 2388 397 2633 464 
Q 2878 531 3122 666 
L 3122 134 
Q 2881 22 2623 -34 
Q 2366 -91 2075 -91 
Q 1284 -91 818 406 
Q 353 903 353 1747 
Q 353 2603 823 3093 
Q 1294 3584 2113 3584 
Q 2378 3584 2631 3529 
Q 2884 3475 3122 3366 
z
" id="DejaVuSans-63" transform="scale(0.015625)"/>
       <path d="M 1172 4494 
L 1172 3500 
L 2356 3500 
L 2356 3053 
L 1172 3053 
L 1172 1153 
Q 1172 725 1289 603 
Q 1406 481 1766 481 
L 2356 481 
L 2356 0 
L 1766 0 
Q 1100 0 847 248 
Q 594 497 594 1153 
L 594 3053 
L 172 3053 
L 172 3500 
L 594 3500 
L 594 4494 
L 1172 4494 
z
" id="DejaVuSans-74" transform="scale(0.015625)"/>
       <path d="M 3513 2113 
L 3513 0 
L 2938 0 
L 2938 2094 
Q 2938 2591 2744 2837 
Q 2550 3084 2163 3084 
Q 1697 3084 1428 2787 
Q 1159 2491 1159 1978 
L 1159 0 
L 581 0 
L 581 3500 
L 1159 3500 
L 1159 2956 
Q 1366 3272 1645 3428 
Q 1925 3584 2291 3584 
Q 2894 3584 3203 3211 
Q 3513 2838 3513 2113 
z
" id="DejaVuSans-6e" transform="scale(0.015625)"/>
      </defs>
      <use xlink:href="#DejaVuSans-79"/>
      <use x="59.179688" xlink:href="#DejaVuSans-65"/>
      <use x="120.703125" xlink:href="#DejaVuSans-61"/>
      <use x="181.982422" xlink:href="#DejaVuSans-72"/>
      <use x="223.095703" xlink:href="#DejaVuSans-20"/>
      <use x="254.882812" xlink:href="#DejaVuSans-6f"/>
      <use x="316.064453" xlink:href="#DejaVuSans-66"/>
      <use x="351.269531" xlink:href="#DejaVuSans-20"/>
      <use x="383.056641" xlink:href="#DejaVuSans-70"/>
      <use x="446.533203" xlink:href="#DejaVuSans-75"/>
      <use x="509.912109" xlink:href="#DejaVuSans-62"/>
      <use x="573.388672" xlink:href="#DejaVuSans-6c"/>
      <use x="601.171875" xlink:href="#DejaVuSans-69"/>
      <use x="628.955078" xlink:href="#DejaVuSans-63"/>
      <use x="683.935547" xlink:href="#DejaVuSans-61"/>
      <use x="745.214844" xlink:href="#DejaVuSans-74"/>
      <use x="784.423828" xlink:href="#DejaVuSans-69"/>
      <use x="812.207031" xlink:href="#DejaVuSans-6f"/>
      <use x="873.388672" xlink:href="#DejaVuSans-6e"/>
     </g>
    </g>
   </g>
   <g id="matplotlib.axis_2">
    <g id="ytick_1">
     <g id="line2d_6">
      <defs>
       <path d="M 0 0 
L -3.5 0 
" id="mf866629604" style="stroke:#000000;stroke-width:0.8;"/>
      </defs>
      <g>
       <use style="stroke:#000000;stroke-width:0.8;" x="72" xlink:href="#mf866629604" y="252"/>
      </g>
     </g>
     <g id="text_7">
      <!-- 0 -->
      <g transform="translate(58.6375 255.799219)scale(0.1 -0.1)">
       <use xlink:href="#DejaVuSans-30"/>
      </g>
     </g>
    </g>
    <g id="ytick_2">
     <g id="line2d_7">
      <g>
       <use style="stroke:#000000;stroke-width:0.8;" x="72" xlink:href="#mf866629604" y="220.937143"/>
      </g>
     </g>
     <g id="text_8">
      <!-- 20 -->
      <g transform="translate(52.275 224.736362)scale(0.1 -0.1)">
       <use xlink:href="#DejaVuSans-32"/>
       <use x="63.623047" xlink:href="#DejaVuSans-30"/>
      </g>
     </g>
    </g>
    <g id="ytick_3">
     <g id="line2d_8">
      <g>
       <use style="stroke:#000000;stroke-width:0.8;" x="72" xlink:href="#mf866629604" y="189.874286"/>
      </g>
     </g>
     <g id="text_9">
      <!-- 40 -->
      <g transform="translate(52.275 193.673504)scale(0.1 -0.1)">
       <defs>
        <path d="M 2419 4116 
L 825 1625 
L 2419 1625 
L 2419 4116 
z
M 2253 4666 
L 3047 4666 
L 3047 1625 
L 3713 1625 
L 3713 1100 
L 3047 1100 
L 3047 0 
L 2419 0 
L 2419 1100 
L 313 1100 
L 313 1709 
L 2253 4666 
z
" id="DejaVuSans-34" transform="scale(0.015625)"/>
       </defs>
       <use xlink:href="#DejaVuSans-34"/>
       <use x="63.623047" xlink:href="#DejaVuSans-30"/>
      </g>
     </g>
    </g>
    <g id="ytick_4">
     <g id="line2d_9">
      <g>
       <use style="stroke:#000000;stroke-width:0.8;" x="72" xlink:href="#mf866629604" y="158.811429"/>
      </g>
     </g>
     <g id="text_10">
      <!-- 60 -->
      <g transform="translate(52.275 162.610647)scale(0.1 -0.1)">
       <defs>
        <path d="M 2113 2584 
Q 1688 2584 1439 2293 
Q 1191 2003 1191 1497 
Q 1191 994 1439 701 
Q 1688 409 2113 409 
Q 2538 409 2786 701 
Q 3034 994 3034 1497 
Q 3034 2003 2786 2293 
Q 2538 2584 2113 2584 
z
M 3366 4563 
L 3366 3988 
Q 3128 4100 2886 4159 
Q 2644 4219 2406 4219 
Q 1781 4219 1451 3797 
Q 1122 3375 1075 2522 
Q 1259 2794 1537 2939 
Q 1816 3084 2150 3084 
Q 2853 3084 3261 2657 
Q 3669 2231 3669 1497 
Q 3669 778 3244 343 
Q 2819 -91 2113 -91 
Q 1303 -91 875 529 
Q 447 1150 447 2328 
Q 447 3434 972 4092 
Q 1497 4750 2381 4750 
Q 2619 4750 2861 4703 
Q 3103 4656 3366 4563 
z
" id="DejaVuSans-36" transform="scale(0.015625)"/>
       </defs>
       <use xlink:href="#DejaVuSans-36"/>
       <use x="63.623047" xlink:href="#DejaVuSans-30"/>
      </g>
     </g>
    </g>
    <g id="ytick_5">
     <g id="line2d_10">
      <g>
       <use style="stroke:#000000;stroke-width:0.8;" x="72" xlink:href="#mf866629604" y="127.748571"/>
      </g>
     </g>
     <g id="text_11">
      <!-- 80 -->
      <g transform="translate(52.275 131.54779)scale(0.1 -0.1)">
       <defs>
        <path d="M 2034 2216 
Q 1584 2216 1326 1975 
Q 1069 1734 1069 1313 
Q 1069 891 1326 650 
Q 1584 409 2034 409 
Q 2484 409 2743 651 
Q 3003 894 3003 1313 
Q 3003 1734 2745 1975 
Q 2488 2216 2034 2216 
z
M 1403 2484 
Q 997 2584 770 2862 
Q 544 3141 544 3541 
Q 544 4100 942 4425 
Q 1341 4750 2034 4750 
Q 2731 4750 3128 4425 
Q 3525 4100 3525 3541 
Q 3525 3141 3298 2862 
Q 3072 2584 2669 2484 
Q 3125 2378 3379 2068 
Q 3634 1759 3634 1313 
Q 3634 634 3220 271 
Q 2806 -91 2034 -91 
Q 1263 -91 848 271 
Q 434 634 434 1313 
Q 434 1759 690 2068 
Q 947 2378 1403 2484 
z
M 1172 3481 
Q 1172 3119 1398 2916 
Q 1625 2713 2034 2713 
Q 2441 2713 2670 2916 
Q 2900 3119 2900 3481 
Q 2900 3844 2670 4047 
Q 2441 4250 2034 4250 
Q 1625 4250 1398 4047 
Q 1172 3844 1172 3481 
z
" id="DejaVuSans-38" transform="scale(0.015625)"/>
       </defs>
       <use xlink:href="#DejaVuSans-38"/>
       <use x="63.623047" xlink:href="#DejaVuSans-30"/>
      </g>
     </g>
    </g>
    <g id="ytick_6">
     <g id="line2d_11">
      <g>
       <use style="stroke:#000000;stroke-width:0.8;" x="72" xlink:href="#mf866629604" y="96.685714"/>
      </g>
     </g>
     <g id="text_12">
      <!-- 100 -->
      <g transform="translate(45.9125 100.484933)scale(0.1 -0.1)">
       <use xlink:href="#DejaVuSans-31"/>
       <use x="63.623047" xlink:href="#DejaVuSans-30"/>
       <use x="127.246094" xlink:href="#DejaVuSans-30"/>
      </g>
     </g>
    </g>
    <g id="ytick_7">
     <g id="line2d_12">
      <g>
       <use style="stroke:#000000;stroke-width:0.8;" x="72" xlink:href="#mf866629604" y="65.622857"/>
      </g>
     </g>
     <g id="text_13">
      <!-- 120 -->
      <g transform="translate(45.9125 69.422076)scale(0.1 -0.1)">
       <use xlink:href="#DejaVuSans-31"/>
       <use x="63.623047" xlink:href="#DejaVuSans-32"/>
       <use x="127.246094" xlink:href="#DejaVuSans-30"/>
      </g>
     </g>
    </g>
    <g id="ytick_8">
     <g id="line2d_13">
      <g>
       <use style="stroke:#000000;stroke-width:0.8;" x="72" xlink:href="#mf866629604" y="34.56"/>
      </g>
     </g>
     <g id="text_14">
      <!-- 140 -->
      <g transform="translate(45.9125 38.359219)scale(0.1 -0.1)">
       <use xlink:href="#DejaVuSans-31"/>
       <use x="63.623047" xlink:href="#DejaVuSans-34"/>
       <use x="127.246094" xlink:href="#DejaVuSans-30"/>
      </g>
     </g>
    </g>
    <g id="text_15">
     <!-- number of publications -->
     <g transform="translate(38.585 235.76375)rotate(-90)scale(0.16 -0.16)">
      <defs>
       <path d="M 3328 2828 
Q 3544 3216 3844 3400 
Q 4144 3584 4550 3584 
Q 5097 3584 5394 3201 
Q 5691 2819 5691 2113 
L 5691 0 
L 5113 0 
L 5113 2094 
Q 5113 2597 4934 2840 
Q 4756 3084 4391 3084 
Q 3944 3084 3684 2787 
Q 3425 2491 3425 1978 
L 3425 0 
L 2847 0 
L 2847 2094 
Q 2847 2600 2669 2842 
Q 2491 3084 2119 3084 
Q 1678 3084 1418 2786 
Q 1159 2488 1159 1978 
L 1159 0 
L 581 0 
L 581 3500 
L 1159 3500 
L 1159 2956 
Q 1356 3278 1631 3431 
Q 1906 3584 2284 3584 
Q 2666 3584 2933 3390 
Q 3200 3197 3328 2828 
z
" id="DejaVuSans-6d" transform="scale(0.015625)"/>
       <path d="M 2834 3397 
L 2834 2853 
Q 2591 2978 2328 3040 
Q 2066 3103 1784 3103 
Q 1356 3103 1142 2972 
Q 928 2841 928 2578 
Q 928 2378 1081 2264 
Q 1234 2150 1697 2047 
L 1894 2003 
Q 2506 1872 2764 1633 
Q 3022 1394 3022 966 
Q 3022 478 2636 193 
Q 2250 -91 1575 -91 
Q 1294 -91 989 -36 
Q 684 19 347 128 
L 347 722 
Q 666 556 975 473 
Q 1284 391 1588 391 
Q 1994 391 2212 530 
Q 2431 669 2431 922 
Q 2431 1156 2273 1281 
Q 2116 1406 1581 1522 
L 1381 1569 
Q 847 1681 609 1914 
Q 372 2147 372 2553 
Q 372 3047 722 3315 
Q 1072 3584 1716 3584 
Q 2034 3584 2315 3537 
Q 2597 3491 2834 3397 
z
" id="DejaVuSans-73" transform="scale(0.015625)"/>
      </defs>
      <use xlink:href="#DejaVuSans-6e"/>
      <use x="63.378906" xlink:href="#DejaVuSans-75"/>
      <use x="126.757812" xlink:href="#DejaVuSans-6d"/>
      <use x="224.169922" xlink:href="#DejaVuSans-62"/>
      <use x="287.646484" xlink:href="#DejaVuSans-65"/>
      <use x="349.169922" xlink:href="#DejaVuSans-72"/>
      <use x="390.283203" xlink:href="#DejaVuSans-20"/>
      <use x="422.070312" xlink:href="#DejaVuSans-6f"/>
      <use x="483.251953" xlink:href="#DejaVuSans-66"/>
      <use x="518.457031" xlink:href="#DejaVuSans-20"/>
      <use x="550.244141" xlink:href="#DejaVuSans-70"/>
      <use x="613.720703" xlink:href="#DejaVuSans-75"/>
      <use x="677.099609" xlink:href="#DejaVuSans-62"/>
      <use x="740.576172" xlink:href="#DejaVuSans-6c"/>
      <use x="768.359375" xlink:href="#DejaVuSans-69"/>
      <use x="796.142578" xlink:href="#DejaVuSans-63"/>
      <use x="851.123047" xlink:href="#DejaVuSans-61"/>
      <use x="912.402344" xlink:href="#DejaVuSans-74"/>
      <use x="951.611328" xlink:href="#DejaVuSans-69"/>
      <use x="979.394531" xlink:href="#DejaVuSans-6f"/>
      <use x="1040.576172" xlink:href="#DejaVuSans-6e"/>
      <use x="1103.955078" xlink:href="#DejaVuSans-73"/>
     </g>
    </g>
   </g>
   <g id="patch_213">
    <path d="M 72 252 
L 72 34.56 
" style="fill:none;stroke:#000000;stroke-linecap:square;stroke-linejoin:miter;stroke-width:0.8;"/>
   </g>
   <g id="patch_214">
    <path d="M 518.4 252 
L 518.4 34.56 
" style="fill:none;stroke:#000000;stroke-linecap:square;stroke-linejoin:miter;stroke-width:0.8;"/>
   </g>
   <g id="patch_215">
    <path d="M 72 252 
L 518.4 252 
" style="fill:none;stroke:#000000;stroke-linecap:square;stroke-linejoin:miter;stroke-width:0.8;"/>
   </g>
   <g id="patch_216">
    <path d="M 72 34.56 
L 518.4 34.56 
" style="fill:none;stroke:#000000;stroke-linecap:square;stroke-linejoin:miter;stroke-width:0.8;"/>
   </g>
   <g id="legend_1">
    <g id="patch_217">
     <path d="M 79.7 124.089688 
L 312.515 124.089688 
Q 314.715 124.089688 314.715 121.889688 
L 314.715 42.26 
Q 314.715 40.06 312.515 40.06 
L 79.7 40.06 
Q 77.5 40.06 77.5 42.26 
L 77.5 121.889688 
Q 77.5 124.089688 79.7 124.089688 
z
" style="fill:#ffffff;opacity:0.8;stroke:#cccccc;stroke-linejoin:miter;"/>
    </g>
    <g id="patch_218">
     <path d="M 81.9 52.818281 
L 103.9 52.818281 
L 103.9 45.118281 
L 81.9 45.118281 
z
" style="fill:#1f77b4;"/>
    </g>
    <g id="text_16">
     <!-- publisher -->
     <g transform="translate(112.7 52.818281)scale(0.11 -0.11)">
      <defs>
       <path d="M 3513 2113 
L 3513 0 
L 2938 0 
L 2938 2094 
Q 2938 2591 2744 2837 
Q 2550 3084 2163 3084 
Q 1697 3084 1428 2787 
Q 1159 2491 1159 1978 
L 1159 0 
L 581 0 
L 581 4863 
L 1159 4863 
L 1159 2956 
Q 1366 3272 1645 3428 
Q 1925 3584 2291 3584 
Q 2894 3584 3203 3211 
Q 3513 2838 3513 2113 
z
" id="DejaVuSans-68" transform="scale(0.015625)"/>
      </defs>
      <use xlink:href="#DejaVuSans-70"/>
      <use x="63.476562" xlink:href="#DejaVuSans-75"/>
      <use x="126.855469" xlink:href="#DejaVuSans-62"/>
      <use x="190.332031" xlink:href="#DejaVuSans-6c"/>
      <use x="218.115234" xlink:href="#DejaVuSans-69"/>
      <use x="245.898438" xlink:href="#DejaVuSans-73"/>
      <use x="297.998047" xlink:href="#DejaVuSans-68"/>
      <use x="361.376953" xlink:href="#DejaVuSans-65"/>
      <use x="422.900391" xlink:href="#DejaVuSans-72"/>
     </g>
    </g>
    <g id="patch_219">
     <path d="M 81.9 68.964219 
L 103.9 68.964219 
L 103.9 61.264219 
L 81.9 61.264219 
z
" style="fill:#aec7e8;"/>
    </g>
    <g id="text_17">
     <!-- university -->
     <g transform="translate(112.7 68.964219)scale(0.11 -0.11)">
      <defs>
       <path d="M 191 3500 
L 800 3500 
L 1894 563 
L 2988 3500 
L 3597 3500 
L 2284 0 
L 1503 0 
L 191 3500 
z
" id="DejaVuSans-76" transform="scale(0.015625)"/>
      </defs>
      <use xlink:href="#DejaVuSans-75"/>
      <use x="63.378906" xlink:href="#DejaVuSans-6e"/>
      <use x="126.757812" xlink:href="#DejaVuSans-69"/>
      <use x="154.541016" xlink:href="#DejaVuSans-76"/>
      <use x="213.720703" xlink:href="#DejaVuSans-65"/>
      <use x="275.244141" xlink:href="#DejaVuSans-72"/>
      <use x="316.357422" xlink:href="#DejaVuSans-73"/>
      <use x="368.457031" xlink:href="#DejaVuSans-69"/>
      <use x="396.240234" xlink:href="#DejaVuSans-74"/>
      <use x="435.449219" xlink:href="#DejaVuSans-79"/>
     </g>
    </g>
    <g id="patch_220">
     <path d="M 81.9 85.110156 
L 103.9 85.110156 
L 103.9 77.410156 
L 81.9 77.410156 
z
" style="fill:#ff7f0e;"/>
    </g>
    <g id="text_18">
     <!-- researcher -->
     <g transform="translate(112.7 85.110156)scale(0.11 -0.11)">
      <use xlink:href="#DejaVuSans-72"/>
      <use x="38.863281" xlink:href="#DejaVuSans-65"/>
      <use x="100.386719" xlink:href="#DejaVuSans-73"/>
      <use x="152.486328" xlink:href="#DejaVuSans-65"/>
      <use x="214.009766" xlink:href="#DejaVuSans-61"/>
      <use x="275.289062" xlink:href="#DejaVuSans-72"/>
      <use x="314.152344" xlink:href="#DejaVuSans-63"/>
      <use x="369.132812" xlink:href="#DejaVuSans-68"/>
      <use x="432.511719" xlink:href="#DejaVuSans-65"/>
      <use x="494.035156" xlink:href="#DejaVuSans-72"/>
     </g>
    </g>
    <g id="patch_221">
     <path d="M 81.9 101.256094 
L 103.9 101.256094 
L 103.9 93.556094 
L 81.9 93.556094 
z
" style="fill:#ffbb78;"/>
    </g>
    <g id="text_19">
     <!-- othergroup -->
     <g transform="translate(112.7 101.256094)scale(0.11 -0.11)">
      <defs>
       <path d="M 2906 1791 
Q 2906 2416 2648 2759 
Q 2391 3103 1925 3103 
Q 1463 3103 1205 2759 
Q 947 2416 947 1791 
Q 947 1169 1205 825 
Q 1463 481 1925 481 
Q 2391 481 2648 825 
Q 2906 1169 2906 1791 
z
M 3481 434 
Q 3481 -459 3084 -895 
Q 2688 -1331 1869 -1331 
Q 1566 -1331 1297 -1286 
Q 1028 -1241 775 -1147 
L 775 -588 
Q 1028 -725 1275 -790 
Q 1522 -856 1778 -856 
Q 2344 -856 2625 -561 
Q 2906 -266 2906 331 
L 2906 616 
Q 2728 306 2450 153 
Q 2172 0 1784 0 
Q 1141 0 747 490 
Q 353 981 353 1791 
Q 353 2603 747 3093 
Q 1141 3584 1784 3584 
Q 2172 3584 2450 3431 
Q 2728 3278 2906 2969 
L 2906 3500 
L 3481 3500 
L 3481 434 
z
" id="DejaVuSans-67" transform="scale(0.015625)"/>
      </defs>
      <use xlink:href="#DejaVuSans-6f"/>
      <use x="61.181641" xlink:href="#DejaVuSans-74"/>
      <use x="100.390625" xlink:href="#DejaVuSans-68"/>
      <use x="163.769531" xlink:href="#DejaVuSans-65"/>
      <use x="225.292969" xlink:href="#DejaVuSans-72"/>
      <use x="264.65625" xlink:href="#DejaVuSans-67"/>
      <use x="328.132812" xlink:href="#DejaVuSans-72"/>
      <use x="366.996094" xlink:href="#DejaVuSans-6f"/>
      <use x="428.177734" xlink:href="#DejaVuSans-75"/>
      <use x="491.556641" xlink:href="#DejaVuSans-70"/>
     </g>
    </g>
    <g id="patch_222">
     <path d="M 81.9 117.402031 
L 103.9 117.402031 
L 103.9 109.702031 
L 81.9 109.702031 
z
" style="fill:#2ca02c;"/>
    </g>
    <g id="text_20">
     <!-- business -->
     <g transform="translate(112.7 117.402031)scale(0.11 -0.11)">
      <use xlink:href="#DejaVuSans-62"/>
      <use x="63.476562" xlink:href="#DejaVuSans-75"/>
      <use x="126.855469" xlink:href="#DejaVuSans-73"/>
      <use x="178.955078" xlink:href="#DejaVuSans-69"/>
      <use x="206.738281" xlink:href="#DejaVuSans-6e"/>
      <use x="270.117188" xlink:href="#DejaVuSans-65"/>
      <use x="331.640625" xlink:href="#DejaVuSans-73"/>
      <use x="383.740234" xlink:href="#DejaVuSans-73"/>
     </g>
    </g>
    <g id="patch_223">
     <path d="M 195.755156 52.818281 
L 217.755156 52.818281 
L 217.755156 45.118281 
L 195.755156 45.118281 
z
" style="fill:#98df8a;"/>
    </g>
    <g id="text_21">
     <!-- librarian -->
     <g transform="translate(226.555156 52.818281)scale(0.11 -0.11)">
      <use xlink:href="#DejaVuSans-6c"/>
      <use x="27.783203" xlink:href="#DejaVuSans-69"/>
      <use x="55.566406" xlink:href="#DejaVuSans-62"/>
      <use x="119.042969" xlink:href="#DejaVuSans-72"/>
      <use x="160.15625" xlink:href="#DejaVuSans-61"/>
      <use x="221.435547" xlink:href="#DejaVuSans-72"/>
      <use x="262.548828" xlink:href="#DejaVuSans-69"/>
      <use x="290.332031" xlink:href="#DejaVuSans-61"/>
      <use x="351.611328" xlink:href="#DejaVuSans-6e"/>
     </g>
    </g>
    <g id="patch_224">
     <path d="M 195.755156 68.964219 
L 217.755156 68.964219 
L 217.755156 61.264219 
L 195.755156 61.264219 
z
" style="fill:#d62728;"/>
    </g>
    <g id="text_22">
     <!-- policy -->
     <g transform="translate(226.555156 68.964219)scale(0.11 -0.11)">
      <use xlink:href="#DejaVuSans-70"/>
      <use x="63.476562" xlink:href="#DejaVuSans-6f"/>
      <use x="124.658203" xlink:href="#DejaVuSans-6c"/>
      <use x="152.441406" xlink:href="#DejaVuSans-69"/>
      <use x="180.224609" xlink:href="#DejaVuSans-63"/>
      <use x="235.205078" xlink:href="#DejaVuSans-79"/>
     </g>
    </g>
    <g id="patch_225">
     <path d="M 195.755156 85.110156 
L 217.755156 85.110156 
L 217.755156 77.410156 
L 195.755156 77.410156 
z
" style="fill:#ff9896;"/>
    </g>
    <g id="text_23">
     <!-- funder -->
     <g transform="translate(226.555156 85.110156)scale(0.11 -0.11)">
      <defs>
       <path d="M 2906 2969 
L 2906 4863 
L 3481 4863 
L 3481 0 
L 2906 0 
L 2906 525 
Q 2725 213 2448 61 
Q 2172 -91 1784 -91 
Q 1150 -91 751 415 
Q 353 922 353 1747 
Q 353 2572 751 3078 
Q 1150 3584 1784 3584 
Q 2172 3584 2448 3432 
Q 2725 3281 2906 2969 
z
M 947 1747 
Q 947 1113 1208 752 
Q 1469 391 1925 391 
Q 2381 391 2643 752 
Q 2906 1113 2906 1747 
Q 2906 2381 2643 2742 
Q 2381 3103 1925 3103 
Q 1469 3103 1208 2742 
Q 947 2381 947 1747 
z
" id="DejaVuSans-64" transform="scale(0.015625)"/>
      </defs>
      <use xlink:href="#DejaVuSans-66"/>
      <use x="35.205078" xlink:href="#DejaVuSans-75"/>
      <use x="98.583984" xlink:href="#DejaVuSans-6e"/>
      <use x="161.962891" xlink:href="#DejaVuSans-64"/>
      <use x="225.439453" xlink:href="#DejaVuSans-65"/>
      <use x="286.962891" xlink:href="#DejaVuSans-72"/>
     </g>
    </g>
    <g id="patch_226">
     <path d="M 195.755156 101.256094 
L 217.755156 101.256094 
L 217.755156 93.556094 
L 195.755156 93.556094 
z
" style="fill:#9467bd;"/>
    </g>
    <g id="text_24">
     <!-- practitioner -->
     <g transform="translate(226.555156 101.256094)scale(0.11 -0.11)">
      <use xlink:href="#DejaVuSans-70"/>
      <use x="63.476562" xlink:href="#DejaVuSans-72"/>
      <use x="104.589844" xlink:href="#DejaVuSans-61"/>
      <use x="165.869141" xlink:href="#DejaVuSans-63"/>
      <use x="220.849609" xlink:href="#DejaVuSans-74"/>
      <use x="260.058594" xlink:href="#DejaVuSans-69"/>
      <use x="287.841797" xlink:href="#DejaVuSans-74"/>
      <use x="327.050781" xlink:href="#DejaVuSans-69"/>
      <use x="354.833984" xlink:href="#DejaVuSans-6f"/>
      <use x="416.015625" xlink:href="#DejaVuSans-6e"/>
      <use x="479.394531" xlink:href="#DejaVuSans-65"/>
      <use x="540.917969" xlink:href="#DejaVuSans-72"/>
     </g>
    </g>
    <g id="patch_227">
     <path d="M 195.755156 117.402031 
L 217.755156 117.402031 
L 217.755156 109.702031 
L 195.755156 109.702031 
z
" style="fill:#c5b0d5;"/>
    </g>
    <g id="text_25">
     <!-- unisupportstaff -->
     <g transform="translate(226.555156 117.402031)scale(0.11 -0.11)">
      <use xlink:href="#DejaVuSans-75"/>
      <use x="63.378906" xlink:href="#DejaVuSans-6e"/>
      <use x="126.757812" xlink:href="#DejaVuSans-69"/>
      <use x="154.541016" xlink:href="#DejaVuSans-73"/>
      <use x="206.640625" xlink:href="#DejaVuSans-75"/>
      <use x="270.019531" xlink:href="#DejaVuSans-70"/>
      <use x="333.496094" xlink:href="#DejaVuSans-70"/>
      <use x="396.972656" xlink:href="#DejaVuSans-6f"/>
      <use x="458.154297" xlink:href="#DejaVuSans-72"/>
      <use x="499.267578" xlink:href="#DejaVuSans-74"/>
      <use x="538.476562" xlink:href="#DejaVuSans-73"/>
      <use x="590.576172" xlink:href="#DejaVuSans-74"/>
      <use x="629.785156" xlink:href="#DejaVuSans-61"/>
      <use x="691.064453" xlink:href="#DejaVuSans-66"/>
      <use x="726.269531" xlink:href="#DejaVuSans-66"/>
     </g>
    </g>
   </g>
  </g>
 </g>
 <defs>
  <clipPath id="pe5534144ec">
   <rect height="217.44" width="446.4" x="72" y="34.56"/>
  </clipPath>
 </defs>
</svg>
