<?xml version="1.0" encoding="utf-8" standalone="no"?>
<!DOCTYPE svg PUBLIC "-//W3C//DTD SVG 1.1//EN"
  "http://www.w3.org/Graphics/SVG/1.1/DTD/svg11.dtd">
<svg height="288pt" version="1.1" viewBox="0 0 576 288" width="576pt" xmlns="http://www.w3.org/2000/svg" xmlns:xlink="http://www.w3.org/1999/xlink">
 <metadata>
  <rdf:RDF xmlns:cc="http://creativecommons.org/ns#" xmlns:dc="http://purl.org/dc/elements/1.1/" xmlns:rdf="http://www.w3.org/1999/02/22-rdf-syntax-ns#">
   <cc:Work>
    <dc:type rdf:resource="http://purl.org/dc/dcmitype/StillImage"/>
    <dc:date>2022-04-26T17:23:12.107974</dc:date>
    <dc:format>image/svg+xml</dc:format>
    <dc:creator>
     <cc:Agent>
      <dc:title>Matplotlib v3.4.2, https://matplotlib.org/</dc:title>
     </cc:Agent>
    </dc:creator>
   </cc:Work>
  </rdf:RDF>
 </metadata>
 <defs>
  <style type="text/css">*{stroke-linecap:butt;stroke-linejoin:round;}</style>
 </defs>
 <g id="figure_1">
  <g id="patch_1">
   <path d="M 0 288 
L 576 288 
L 576 0 
L 0 0 
z
" style="fill:none;"/>
  </g>
  <g id="axes_1">
   <g id="patch_2">
    <path d="M 72 252 
L 518.4 252 
L 518.4 34.56 
L 72 34.56 
z
" style="fill:#ffffff;"/>
   </g>
   <g id="patch_3">
    <path clip-path="url(#pc31be7372a)" d="M 85.065366 252 
L 102.485854 252 
L 102.485854 250.188 
L 85.065366 250.188 
z
" style="fill:#1f77b4;"/>
   </g>
   <g id="patch_4">
    <path clip-path="url(#pc31be7372a)" d="M 106.840976 252 
L 124.261463 252 
L 124.261463 252 
L 106.840976 252 
z
" style="fill:#1f77b4;"/>
   </g>
   <g id="patch_5">
    <path clip-path="url(#pc31be7372a)" d="M 128.616585 252 
L 146.037073 252 
L 146.037073 248.376 
L 128.616585 248.376 
z
" style="fill:#1f77b4;"/>
   </g>
   <g id="patch_6">
    <path clip-path="url(#pc31be7372a)" d="M 150.392195 252 
L 167.812683 252 
L 167.812683 250.188 
L 150.392195 250.188 
z
" style="fill:#1f77b4;"/>
   </g>
   <g id="patch_7">
    <path clip-path="url(#pc31be7372a)" d="M 172.167805 252 
L 189.588293 252 
L 189.588293 250.188 
L 172.167805 250.188 
z
" style="fill:#1f77b4;"/>
   </g>
   <g id="patch_8">
    <path clip-path="url(#pc31be7372a)" d="M 193.943415 252 
L 211.363902 252 
L 211.363902 242.94 
L 193.943415 242.94 
z
" style="fill:#1f77b4;"/>
   </g>
   <g id="patch_9">
    <path clip-path="url(#pc31be7372a)" d="M 215.719024 252 
L 233.139512 252 
L 233.139512 244.752 
L 215.719024 244.752 
z
" style="fill:#1f77b4;"/>
   </g>
   <g id="patch_10">
    <path clip-path="url(#pc31be7372a)" d="M 237.494634 252 
L 254.915122 252 
L 254.915122 252 
L 237.494634 252 
z
" style="fill:#1f77b4;"/>
   </g>
   <g id="patch_11">
    <path clip-path="url(#pc31be7372a)" d="M 259.270244 252 
L 276.690732 252 
L 276.690732 242.94 
L 259.270244 242.94 
z
" style="fill:#1f77b4;"/>
   </g>
   <g id="patch_12">
    <path clip-path="url(#pc31be7372a)" d="M 281.045854 252 
L 298.466341 252 
L 298.466341 239.316 
L 281.045854 239.316 
z
" style="fill:#1f77b4;"/>
   </g>
   <g id="patch_13">
    <path clip-path="url(#pc31be7372a)" d="M 302.821463 252 
L 320.241951 252 
L 320.241951 230.256 
L 302.821463 230.256 
z
" style="fill:#1f77b4;"/>
   </g>
   <g id="patch_14">
    <path clip-path="url(#pc31be7372a)" d="M 324.597073 252 
L 342.017561 252 
L 342.017561 235.692 
L 324.597073 235.692 
z
" style="fill:#1f77b4;"/>
   </g>
   <g id="patch_15">
    <path clip-path="url(#pc31be7372a)" d="M 346.372683 252 
L 363.793171 252 
L 363.793171 235.692 
L 346.372683 235.692 
z
" style="fill:#1f77b4;"/>
   </g>
   <g id="patch_16">
    <path clip-path="url(#pc31be7372a)" d="M 368.148293 252 
L 385.56878 252 
L 385.56878 226.632 
L 368.148293 226.632 
z
" style="fill:#1f77b4;"/>
   </g>
   <g id="patch_17">
    <path clip-path="url(#pc31be7372a)" d="M 389.923902 252 
L 407.34439 252 
L 407.34439 212.136 
L 389.923902 212.136 
z
" style="fill:#1f77b4;"/>
   </g>
   <g id="patch_18">
    <path clip-path="url(#pc31be7372a)" d="M 411.699512 252 
L 429.12 252 
L 429.12 204.888 
L 411.699512 204.888 
z
" style="fill:#1f77b4;"/>
   </g>
   <g id="patch_19">
    <path clip-path="url(#pc31be7372a)" d="M 433.475122 252 
L 450.89561 252 
L 450.89561 192.204 
L 433.475122 192.204 
z
" style="fill:#1f77b4;"/>
   </g>
   <g id="patch_20">
    <path clip-path="url(#pc31be7372a)" d="M 455.250732 252 
L 472.67122 252 
L 472.67122 195.828 
L 455.250732 195.828 
z
" style="fill:#1f77b4;"/>
   </g>
   <g id="patch_21">
    <path clip-path="url(#pc31be7372a)" d="M 477.026341 252 
L 494.446829 252 
L 494.446829 170.46 
L 477.026341 170.46 
z
" style="fill:#1f77b4;"/>
   </g>
   <g id="patch_22">
    <path clip-path="url(#pc31be7372a)" d="M 498.801951 252 
L 516.222439 252 
L 516.222439 163.212 
L 498.801951 163.212 
z
" style="fill:#1f77b4;"/>
   </g>
   <g id="patch_23">
    <path clip-path="url(#pc31be7372a)" d="M 520.577561 252 
L 537.998049 252 
L 537.998049 252 
L 520.577561 252 
z
" style="fill:#1f77b4;"/>
   </g>
   <g id="patch_24">
    <path clip-path="url(#pc31be7372a)" d="M 85.065366 250.188 
L 102.485854 250.188 
L 102.485854 250.188 
L 85.065366 250.188 
z
" style="fill:#aec7e8;"/>
   </g>
   <g id="patch_25">
    <path clip-path="url(#pc31be7372a)" d="M 106.840976 252 
L 124.261463 252 
L 124.261463 252 
L 106.840976 252 
z
" style="fill:#aec7e8;"/>
   </g>
   <g id="patch_26">
    <path clip-path="url(#pc31be7372a)" d="M 128.616585 248.376 
L 146.037073 248.376 
L 146.037073 248.376 
L 128.616585 248.376 
z
" style="fill:#aec7e8;"/>
   </g>
   <g id="patch_27">
    <path clip-path="url(#pc31be7372a)" d="M 150.392195 250.188 
L 167.812683 250.188 
L 167.812683 250.188 
L 150.392195 250.188 
z
" style="fill:#aec7e8;"/>
   </g>
   <g id="patch_28">
    <path clip-path="url(#pc31be7372a)" d="M 172.167805 250.188 
L 189.588293 250.188 
L 189.588293 250.188 
L 172.167805 250.188 
z
" style="fill:#aec7e8;"/>
   </g>
   <g id="patch_29">
    <path clip-path="url(#pc31be7372a)" d="M 193.943415 242.94 
L 211.363902 242.94 
L 211.363902 242.94 
L 193.943415 242.94 
z
" style="fill:#aec7e8;"/>
   </g>
   <g id="patch_30">
    <path clip-path="url(#pc31be7372a)" d="M 215.719024 244.752 
L 233.139512 244.752 
L 233.139512 241.128 
L 215.719024 241.128 
z
" style="fill:#aec7e8;"/>
   </g>
   <g id="patch_31">
    <path clip-path="url(#pc31be7372a)" d="M 237.494634 252 
L 254.915122 252 
L 254.915122 248.376 
L 237.494634 248.376 
z
" style="fill:#aec7e8;"/>
   </g>
   <g id="patch_32">
    <path clip-path="url(#pc31be7372a)" d="M 259.270244 242.94 
L 276.690732 242.94 
L 276.690732 239.316 
L 259.270244 239.316 
z
" style="fill:#aec7e8;"/>
   </g>
   <g id="patch_33">
    <path clip-path="url(#pc31be7372a)" d="M 281.045854 239.316 
L 298.466341 239.316 
L 298.466341 239.316 
L 281.045854 239.316 
z
" style="fill:#aec7e8;"/>
   </g>
   <g id="patch_34">
    <path clip-path="url(#pc31be7372a)" d="M 302.821463 230.256 
L 320.241951 230.256 
L 320.241951 217.572 
L 302.821463 217.572 
z
" style="fill:#aec7e8;"/>
   </g>
   <g id="patch_35">
    <path clip-path="url(#pc31be7372a)" d="M 324.597073 235.692 
L 342.017561 235.692 
L 342.017561 230.256 
L 324.597073 230.256 
z
" style="fill:#aec7e8;"/>
   </g>
   <g id="patch_36">
    <path clip-path="url(#pc31be7372a)" d="M 346.372683 235.692 
L 363.793171 235.692 
L 363.793171 224.82 
L 346.372683 224.82 
z
" style="fill:#aec7e8;"/>
   </g>
   <g id="patch_37">
    <path clip-path="url(#pc31be7372a)" d="M 368.148293 226.632 
L 385.56878 226.632 
L 385.56878 212.136 
L 368.148293 212.136 
z
" style="fill:#aec7e8;"/>
   </g>
   <g id="patch_38">
    <path clip-path="url(#pc31be7372a)" d="M 389.923902 212.136 
L 407.34439 212.136 
L 407.34439 197.64 
L 389.923902 197.64 
z
" style="fill:#aec7e8;"/>
   </g>
   <g id="patch_39">
    <path clip-path="url(#pc31be7372a)" d="M 411.699512 204.888 
L 429.12 204.888 
L 429.12 190.392 
L 411.699512 190.392 
z
" style="fill:#aec7e8;"/>
   </g>
   <g id="patch_40">
    <path clip-path="url(#pc31be7372a)" d="M 433.475122 192.204 
L 450.89561 192.204 
L 450.89561 183.144 
L 433.475122 183.144 
z
" style="fill:#aec7e8;"/>
   </g>
   <g id="patch_41">
    <path clip-path="url(#pc31be7372a)" d="M 455.250732 195.828 
L 472.67122 195.828 
L 472.67122 181.332 
L 455.250732 181.332 
z
" style="fill:#aec7e8;"/>
   </g>
   <g id="patch_42">
    <path clip-path="url(#pc31be7372a)" d="M 477.026341 170.46 
L 494.446829 170.46 
L 494.446829 157.776 
L 477.026341 157.776 
z
" style="fill:#aec7e8;"/>
   </g>
   <g id="patch_43">
    <path clip-path="url(#pc31be7372a)" d="M 498.801951 163.212 
L 516.222439 163.212 
L 516.222439 143.28 
L 498.801951 143.28 
z
" style="fill:#aec7e8;"/>
   </g>
   <g id="patch_44">
    <path clip-path="url(#pc31be7372a)" d="M 520.577561 252 
L 537.998049 252 
L 537.998049 250.188 
L 520.577561 250.188 
z
" style="fill:#aec7e8;"/>
   </g>
   <g id="patch_45">
    <path clip-path="url(#pc31be7372a)" d="M 85.065366 250.188 
L 102.485854 250.188 
L 102.485854 250.188 
L 85.065366 250.188 
z
" style="fill:#ff7f0e;"/>
   </g>
   <g id="patch_46">
    <path clip-path="url(#pc31be7372a)" d="M 106.840976 252 
L 124.261463 252 
L 124.261463 252 
L 106.840976 252 
z
" style="fill:#ff7f0e;"/>
   </g>
   <g id="patch_47">
    <path clip-path="url(#pc31be7372a)" d="M 128.616585 248.376 
L 146.037073 248.376 
L 146.037073 248.376 
L 128.616585 248.376 
z
" style="fill:#ff7f0e;"/>
   </g>
   <g id="patch_48">
    <path clip-path="url(#pc31be7372a)" d="M 150.392195 250.188 
L 167.812683 250.188 
L 167.812683 250.188 
L 150.392195 250.188 
z
" style="fill:#ff7f0e;"/>
   </g>
   <g id="patch_49">
    <path clip-path="url(#pc31be7372a)" d="M 172.167805 250.188 
L 189.588293 250.188 
L 189.588293 250.188 
L 172.167805 250.188 
z
" style="fill:#ff7f0e;"/>
   </g>
   <g id="patch_50">
    <path clip-path="url(#pc31be7372a)" d="M 193.943415 242.94 
L 211.363902 242.94 
L 211.363902 242.94 
L 193.943415 242.94 
z
" style="fill:#ff7f0e;"/>
   </g>
   <g id="patch_51">
    <path clip-path="url(#pc31be7372a)" d="M 215.719024 241.128 
L 233.139512 241.128 
L 233.139512 237.504 
L 215.719024 237.504 
z
" style="fill:#ff7f0e;"/>
   </g>
   <g id="patch_52">
    <path clip-path="url(#pc31be7372a)" d="M 237.494634 248.376 
L 254.915122 248.376 
L 254.915122 248.376 
L 237.494634 248.376 
z
" style="fill:#ff7f0e;"/>
   </g>
   <g id="patch_53">
    <path clip-path="url(#pc31be7372a)" d="M 259.270244 239.316 
L 276.690732 239.316 
L 276.690732 237.504 
L 259.270244 237.504 
z
" style="fill:#ff7f0e;"/>
   </g>
   <g id="patch_54">
    <path clip-path="url(#pc31be7372a)" d="M 281.045854 239.316 
L 298.466341 239.316 
L 298.466341 233.88 
L 281.045854 233.88 
z
" style="fill:#ff7f0e;"/>
   </g>
   <g id="patch_55">
    <path clip-path="url(#pc31be7372a)" d="M 302.821463 217.572 
L 320.241951 217.572 
L 320.241951 212.136 
L 302.821463 212.136 
z
" style="fill:#ff7f0e;"/>
   </g>
   <g id="patch_56">
    <path clip-path="url(#pc31be7372a)" d="M 324.597073 230.256 
L 342.017561 230.256 
L 342.017561 228.444 
L 324.597073 228.444 
z
" style="fill:#ff7f0e;"/>
   </g>
   <g id="patch_57">
    <path clip-path="url(#pc31be7372a)" d="M 346.372683 224.82 
L 363.793171 224.82 
L 363.793171 219.384 
L 346.372683 219.384 
z
" style="fill:#ff7f0e;"/>
   </g>
   <g id="patch_58">
    <path clip-path="url(#pc31be7372a)" d="M 368.148293 212.136 
L 385.56878 212.136 
L 385.56878 206.7 
L 368.148293 206.7 
z
" style="fill:#ff7f0e;"/>
   </g>
   <g id="patch_59">
    <path clip-path="url(#pc31be7372a)" d="M 389.923902 197.64 
L 407.34439 197.64 
L 407.34439 192.204 
L 389.923902 192.204 
z
" style="fill:#ff7f0e;"/>
   </g>
   <g id="patch_60">
    <path clip-path="url(#pc31be7372a)" d="M 411.699512 190.392 
L 429.12 190.392 
L 429.12 175.896 
L 411.699512 175.896 
z
" style="fill:#ff7f0e;"/>
   </g>
   <g id="patch_61">
    <path clip-path="url(#pc31be7372a)" d="M 433.475122 183.144 
L 450.89561 183.144 
L 450.89561 175.896 
L 433.475122 175.896 
z
" style="fill:#ff7f0e;"/>
   </g>
   <g id="patch_62">
    <path clip-path="url(#pc31be7372a)" d="M 455.250732 181.332 
L 472.67122 181.332 
L 472.67122 170.46 
L 455.250732 170.46 
z
" style="fill:#ff7f0e;"/>
   </g>
   <g id="patch_63">
    <path clip-path="url(#pc31be7372a)" d="M 477.026341 157.776 
L 494.446829 157.776 
L 494.446829 148.716 
L 477.026341 148.716 
z
" style="fill:#ff7f0e;"/>
   </g>
   <g id="patch_64">
    <path clip-path="url(#pc31be7372a)" d="M 498.801951 143.28 
L 516.222439 143.28 
L 516.222439 132.408 
L 498.801951 132.408 
z
" style="fill:#ff7f0e;"/>
   </g>
   <g id="patch_65">
    <path clip-path="url(#pc31be7372a)" d="M 520.577561 250.188 
L 537.998049 250.188 
L 537.998049 250.188 
L 520.577561 250.188 
z
" style="fill:#ff7f0e;"/>
   </g>
   <g id="patch_66">
    <path clip-path="url(#pc31be7372a)" d="M 85.065366 250.188 
L 102.485854 250.188 
L 102.485854 250.188 
L 85.065366 250.188 
z
" style="fill:#ffbb78;"/>
   </g>
   <g id="patch_67">
    <path clip-path="url(#pc31be7372a)" d="M 106.840976 252 
L 124.261463 252 
L 124.261463 252 
L 106.840976 252 
z
" style="fill:#ffbb78;"/>
   </g>
   <g id="patch_68">
    <path clip-path="url(#pc31be7372a)" d="M 128.616585 248.376 
L 146.037073 248.376 
L 146.037073 248.376 
L 128.616585 248.376 
z
" style="fill:#ffbb78;"/>
   </g>
   <g id="patch_69">
    <path clip-path="url(#pc31be7372a)" d="M 150.392195 250.188 
L 167.812683 250.188 
L 167.812683 250.188 
L 150.392195 250.188 
z
" style="fill:#ffbb78;"/>
   </g>
   <g id="patch_70">
    <path clip-path="url(#pc31be7372a)" d="M 172.167805 250.188 
L 189.588293 250.188 
L 189.588293 250.188 
L 172.167805 250.188 
z
" style="fill:#ffbb78;"/>
   </g>
   <g id="patch_71">
    <path clip-path="url(#pc31be7372a)" d="M 193.943415 242.94 
L 211.363902 242.94 
L 211.363902 242.94 
L 193.943415 242.94 
z
" style="fill:#ffbb78;"/>
   </g>
   <g id="patch_72">
    <path clip-path="url(#pc31be7372a)" d="M 215.719024 237.504 
L 233.139512 237.504 
L 233.139512 235.692 
L 215.719024 235.692 
z
" style="fill:#ffbb78;"/>
   </g>
   <g id="patch_73">
    <path clip-path="url(#pc31be7372a)" d="M 237.494634 248.376 
L 254.915122 248.376 
L 254.915122 248.376 
L 237.494634 248.376 
z
" style="fill:#ffbb78;"/>
   </g>
   <g id="patch_74">
    <path clip-path="url(#pc31be7372a)" d="M 259.270244 237.504 
L 276.690732 237.504 
L 276.690732 232.068 
L 259.270244 232.068 
z
" style="fill:#ffbb78;"/>
   </g>
   <g id="patch_75">
    <path clip-path="url(#pc31be7372a)" d="M 281.045854 233.88 
L 298.466341 233.88 
L 298.466341 230.256 
L 281.045854 230.256 
z
" style="fill:#ffbb78;"/>
   </g>
   <g id="patch_76">
    <path clip-path="url(#pc31be7372a)" d="M 302.821463 212.136 
L 320.241951 212.136 
L 320.241951 212.136 
L 302.821463 212.136 
z
" style="fill:#ffbb78;"/>
   </g>
   <g id="patch_77">
    <path clip-path="url(#pc31be7372a)" d="M 324.597073 228.444 
L 342.017561 228.444 
L 342.017561 228.444 
L 324.597073 228.444 
z
" style="fill:#ffbb78;"/>
   </g>
   <g id="patch_78">
    <path clip-path="url(#pc31be7372a)" d="M 346.372683 219.384 
L 363.793171 219.384 
L 363.793171 215.76 
L 346.372683 215.76 
z
" style="fill:#ffbb78;"/>
   </g>
   <g id="patch_79">
    <path clip-path="url(#pc31be7372a)" d="M 368.148293 206.7 
L 385.56878 206.7 
L 385.56878 203.076 
L 368.148293 203.076 
z
" style="fill:#ffbb78;"/>
   </g>
   <g id="patch_80">
    <path clip-path="url(#pc31be7372a)" d="M 389.923902 192.204 
L 407.34439 192.204 
L 407.34439 183.144 
L 389.923902 183.144 
z
" style="fill:#ffbb78;"/>
   </g>
   <g id="patch_81">
    <path clip-path="url(#pc31be7372a)" d="M 411.699512 175.896 
L 429.12 175.896 
L 429.12 166.836 
L 411.699512 166.836 
z
" style="fill:#ffbb78;"/>
   </g>
   <g id="patch_82">
    <path clip-path="url(#pc31be7372a)" d="M 433.475122 175.896 
L 450.89561 175.896 
L 450.89561 174.084 
L 433.475122 174.084 
z
" style="fill:#ffbb78;"/>
   </g>
   <g id="patch_83">
    <path clip-path="url(#pc31be7372a)" d="M 455.250732 170.46 
L 472.67122 170.46 
L 472.67122 157.776 
L 455.250732 157.776 
z
" style="fill:#ffbb78;"/>
   </g>
   <g id="patch_84">
    <path clip-path="url(#pc31be7372a)" d="M 477.026341 148.716 
L 494.446829 148.716 
L 494.446829 141.468 
L 477.026341 141.468 
z
" style="fill:#ffbb78;"/>
   </g>
   <g id="patch_85">
    <path clip-path="url(#pc31be7372a)" d="M 498.801951 132.408 
L 516.222439 132.408 
L 516.222439 123.348 
L 498.801951 123.348 
z
" style="fill:#ffbb78;"/>
   </g>
   <g id="patch_86">
    <path clip-path="url(#pc31be7372a)" d="M 520.577561 250.188 
L 537.998049 250.188 
L 537.998049 250.188 
L 520.577561 250.188 
z
" style="fill:#ffbb78;"/>
   </g>
   <g id="patch_87">
    <path clip-path="url(#pc31be7372a)" d="M 85.065366 250.188 
L 102.485854 250.188 
L 102.485854 250.188 
L 85.065366 250.188 
z
" style="fill:#2ca02c;"/>
   </g>
   <g id="patch_88">
    <path clip-path="url(#pc31be7372a)" d="M 106.840976 252 
L 124.261463 252 
L 124.261463 252 
L 106.840976 252 
z
" style="fill:#2ca02c;"/>
   </g>
   <g id="patch_89">
    <path clip-path="url(#pc31be7372a)" d="M 128.616585 248.376 
L 146.037073 248.376 
L 146.037073 248.376 
L 128.616585 248.376 
z
" style="fill:#2ca02c;"/>
   </g>
   <g id="patch_90">
    <path clip-path="url(#pc31be7372a)" d="M 150.392195 250.188 
L 167.812683 250.188 
L 167.812683 250.188 
L 150.392195 250.188 
z
" style="fill:#2ca02c;"/>
   </g>
   <g id="patch_91">
    <path clip-path="url(#pc31be7372a)" d="M 172.167805 250.188 
L 189.588293 250.188 
L 189.588293 250.188 
L 172.167805 250.188 
z
" style="fill:#2ca02c;"/>
   </g>
   <g id="patch_92">
    <path clip-path="url(#pc31be7372a)" d="M 193.943415 242.94 
L 211.363902 242.94 
L 211.363902 242.94 
L 193.943415 242.94 
z
" style="fill:#2ca02c;"/>
   </g>
   <g id="patch_93">
    <path clip-path="url(#pc31be7372a)" d="M 215.719024 235.692 
L 233.139512 235.692 
L 233.139512 233.88 
L 215.719024 233.88 
z
" style="fill:#2ca02c;"/>
   </g>
   <g id="patch_94">
    <path clip-path="url(#pc31be7372a)" d="M 237.494634 248.376 
L 254.915122 248.376 
L 254.915122 248.376 
L 237.494634 248.376 
z
" style="fill:#2ca02c;"/>
   </g>
   <g id="patch_95">
    <path clip-path="url(#pc31be7372a)" d="M 259.270244 232.068 
L 276.690732 232.068 
L 276.690732 228.444 
L 259.270244 228.444 
z
" style="fill:#2ca02c;"/>
   </g>
   <g id="patch_96">
    <path clip-path="url(#pc31be7372a)" d="M 281.045854 230.256 
L 298.466341 230.256 
L 298.466341 228.444 
L 281.045854 228.444 
z
" style="fill:#2ca02c;"/>
   </g>
   <g id="patch_97">
    <path clip-path="url(#pc31be7372a)" d="M 302.821463 212.136 
L 320.241951 212.136 
L 320.241951 208.512 
L 302.821463 208.512 
z
" style="fill:#2ca02c;"/>
   </g>
   <g id="patch_98">
    <path clip-path="url(#pc31be7372a)" d="M 324.597073 228.444 
L 342.017561 228.444 
L 342.017561 228.444 
L 324.597073 228.444 
z
" style="fill:#2ca02c;"/>
   </g>
   <g id="patch_99">
    <path clip-path="url(#pc31be7372a)" d="M 346.372683 215.76 
L 363.793171 215.76 
L 363.793171 212.136 
L 346.372683 212.136 
z
" style="fill:#2ca02c;"/>
   </g>
   <g id="patch_100">
    <path clip-path="url(#pc31be7372a)" d="M 368.148293 203.076 
L 385.56878 203.076 
L 385.56878 199.452 
L 368.148293 199.452 
z
" style="fill:#2ca02c;"/>
   </g>
   <g id="patch_101">
    <path clip-path="url(#pc31be7372a)" d="M 389.923902 183.144 
L 407.34439 183.144 
L 407.34439 174.084 
L 389.923902 174.084 
z
" style="fill:#2ca02c;"/>
   </g>
   <g id="patch_102">
    <path clip-path="url(#pc31be7372a)" d="M 411.699512 166.836 
L 429.12 166.836 
L 429.12 159.588 
L 411.699512 159.588 
z
" style="fill:#2ca02c;"/>
   </g>
   <g id="patch_103">
    <path clip-path="url(#pc31be7372a)" d="M 433.475122 174.084 
L 450.89561 174.084 
L 450.89561 170.46 
L 433.475122 170.46 
z
" style="fill:#2ca02c;"/>
   </g>
   <g id="patch_104">
    <path clip-path="url(#pc31be7372a)" d="M 455.250732 157.776 
L 472.67122 157.776 
L 472.67122 155.964 
L 455.250732 155.964 
z
" style="fill:#2ca02c;"/>
   </g>
   <g id="patch_105">
    <path clip-path="url(#pc31be7372a)" d="M 477.026341 141.468 
L 494.446829 141.468 
L 494.446829 132.408 
L 477.026341 132.408 
z
" style="fill:#2ca02c;"/>
   </g>
   <g id="patch_106">
    <path clip-path="url(#pc31be7372a)" d="M 498.801951 123.348 
L 516.222439 123.348 
L 516.222439 108.852 
L 498.801951 108.852 
z
" style="fill:#2ca02c;"/>
   </g>
   <g id="patch_107">
    <path clip-path="url(#pc31be7372a)" d="M 520.577561 250.188 
L 537.998049 250.188 
L 537.998049 250.188 
L 520.577561 250.188 
z
" style="fill:#2ca02c;"/>
   </g>
   <g id="patch_108">
    <path clip-path="url(#pc31be7372a)" d="M 85.065366 250.188 
L 102.485854 250.188 
L 102.485854 250.188 
L 85.065366 250.188 
z
" style="fill:#98df8a;"/>
   </g>
   <g id="patch_109">
    <path clip-path="url(#pc31be7372a)" d="M 106.840976 252 
L 124.261463 252 
L 124.261463 252 
L 106.840976 252 
z
" style="fill:#98df8a;"/>
   </g>
   <g id="patch_110">
    <path clip-path="url(#pc31be7372a)" d="M 128.616585 248.376 
L 146.037073 248.376 
L 146.037073 248.376 
L 128.616585 248.376 
z
" style="fill:#98df8a;"/>
   </g>
   <g id="patch_111">
    <path clip-path="url(#pc31be7372a)" d="M 150.392195 250.188 
L 167.812683 250.188 
L 167.812683 250.188 
L 150.392195 250.188 
z
" style="fill:#98df8a;"/>
   </g>
   <g id="patch_112">
    <path clip-path="url(#pc31be7372a)" d="M 172.167805 250.188 
L 189.588293 250.188 
L 189.588293 250.188 
L 172.167805 250.188 
z
" style="fill:#98df8a;"/>
   </g>
   <g id="patch_113">
    <path clip-path="url(#pc31be7372a)" d="M 193.943415 242.94 
L 211.363902 242.94 
L 211.363902 242.94 
L 193.943415 242.94 
z
" style="fill:#98df8a;"/>
   </g>
   <g id="patch_114">
    <path clip-path="url(#pc31be7372a)" d="M 215.719024 233.88 
L 233.139512 233.88 
L 233.139512 232.068 
L 215.719024 232.068 
z
" style="fill:#98df8a;"/>
   </g>
   <g id="patch_115">
    <path clip-path="url(#pc31be7372a)" d="M 237.494634 248.376 
L 254.915122 248.376 
L 254.915122 248.376 
L 237.494634 248.376 
z
" style="fill:#98df8a;"/>
   </g>
   <g id="patch_116">
    <path clip-path="url(#pc31be7372a)" d="M 259.270244 228.444 
L 276.690732 228.444 
L 276.690732 228.444 
L 259.270244 228.444 
z
" style="fill:#98df8a;"/>
   </g>
   <g id="patch_117">
    <path clip-path="url(#pc31be7372a)" d="M 281.045854 228.444 
L 298.466341 228.444 
L 298.466341 226.632 
L 281.045854 226.632 
z
" style="fill:#98df8a;"/>
   </g>
   <g id="patch_118">
    <path clip-path="url(#pc31be7372a)" d="M 302.821463 208.512 
L 320.241951 208.512 
L 320.241951 204.888 
L 302.821463 204.888 
z
" style="fill:#98df8a;"/>
   </g>
   <g id="patch_119">
    <path clip-path="url(#pc31be7372a)" d="M 324.597073 228.444 
L 342.017561 228.444 
L 342.017561 228.444 
L 324.597073 228.444 
z
" style="fill:#98df8a;"/>
   </g>
   <g id="patch_120">
    <path clip-path="url(#pc31be7372a)" d="M 346.372683 212.136 
L 363.793171 212.136 
L 363.793171 208.512 
L 346.372683 208.512 
z
" style="fill:#98df8a;"/>
   </g>
   <g id="patch_121">
    <path clip-path="url(#pc31be7372a)" d="M 368.148293 199.452 
L 385.56878 199.452 
L 385.56878 192.204 
L 368.148293 192.204 
z
" style="fill:#98df8a;"/>
   </g>
   <g id="patch_122">
    <path clip-path="url(#pc31be7372a)" d="M 389.923902 174.084 
L 407.34439 174.084 
L 407.34439 170.46 
L 389.923902 170.46 
z
" style="fill:#98df8a;"/>
   </g>
   <g id="patch_123">
    <path clip-path="url(#pc31be7372a)" d="M 411.699512 159.588 
L 429.12 159.588 
L 429.12 155.964 
L 411.699512 155.964 
z
" style="fill:#98df8a;"/>
   </g>
   <g id="patch_124">
    <path clip-path="url(#pc31be7372a)" d="M 433.475122 170.46 
L 450.89561 170.46 
L 450.89561 166.836 
L 433.475122 166.836 
z
" style="fill:#98df8a;"/>
   </g>
   <g id="patch_125">
    <path clip-path="url(#pc31be7372a)" d="M 455.250732 155.964 
L 472.67122 155.964 
L 472.67122 145.092 
L 455.250732 145.092 
z
" style="fill:#98df8a;"/>
   </g>
   <g id="patch_126">
    <path clip-path="url(#pc31be7372a)" d="M 477.026341 132.408 
L 494.446829 132.408 
L 494.446829 116.1 
L 477.026341 116.1 
z
" style="fill:#98df8a;"/>
   </g>
   <g id="patch_127">
    <path clip-path="url(#pc31be7372a)" d="M 498.801951 108.852 
L 516.222439 108.852 
L 516.222439 103.416 
L 498.801951 103.416 
z
" style="fill:#98df8a;"/>
   </g>
   <g id="patch_128">
    <path clip-path="url(#pc31be7372a)" d="M 520.577561 250.188 
L 537.998049 250.188 
L 537.998049 250.188 
L 520.577561 250.188 
z
" style="fill:#98df8a;"/>
   </g>
   <g id="patch_129">
    <path clip-path="url(#pc31be7372a)" d="M 85.065366 250.188 
L 102.485854 250.188 
L 102.485854 250.188 
L 85.065366 250.188 
z
" style="fill:#d62728;"/>
   </g>
   <g id="patch_130">
    <path clip-path="url(#pc31be7372a)" d="M 106.840976 252 
L 124.261463 252 
L 124.261463 252 
L 106.840976 252 
z
" style="fill:#d62728;"/>
   </g>
   <g id="patch_131">
    <path clip-path="url(#pc31be7372a)" d="M 128.616585 248.376 
L 146.037073 248.376 
L 146.037073 248.376 
L 128.616585 248.376 
z
" style="fill:#d62728;"/>
   </g>
   <g id="patch_132">
    <path clip-path="url(#pc31be7372a)" d="M 150.392195 250.188 
L 167.812683 250.188 
L 167.812683 250.188 
L 150.392195 250.188 
z
" style="fill:#d62728;"/>
   </g>
   <g id="patch_133">
    <path clip-path="url(#pc31be7372a)" d="M 172.167805 250.188 
L 189.588293 250.188 
L 189.588293 250.188 
L 172.167805 250.188 
z
" style="fill:#d62728;"/>
   </g>
   <g id="patch_134">
    <path clip-path="url(#pc31be7372a)" d="M 193.943415 242.94 
L 211.363902 242.94 
L 211.363902 242.94 
L 193.943415 242.94 
z
" style="fill:#d62728;"/>
   </g>
   <g id="patch_135">
    <path clip-path="url(#pc31be7372a)" d="M 215.719024 232.068 
L 233.139512 232.068 
L 233.139512 230.256 
L 215.719024 230.256 
z
" style="fill:#d62728;"/>
   </g>
   <g id="patch_136">
    <path clip-path="url(#pc31be7372a)" d="M 237.494634 248.376 
L 254.915122 248.376 
L 254.915122 246.564 
L 237.494634 246.564 
z
" style="fill:#d62728;"/>
   </g>
   <g id="patch_137">
    <path clip-path="url(#pc31be7372a)" d="M 259.270244 228.444 
L 276.690732 228.444 
L 276.690732 226.632 
L 259.270244 226.632 
z
" style="fill:#d62728;"/>
   </g>
   <g id="patch_138">
    <path clip-path="url(#pc31be7372a)" d="M 281.045854 226.632 
L 298.466341 226.632 
L 298.466341 226.632 
L 281.045854 226.632 
z
" style="fill:#d62728;"/>
   </g>
   <g id="patch_139">
    <path clip-path="url(#pc31be7372a)" d="M 302.821463 204.888 
L 320.241951 204.888 
L 320.241951 199.452 
L 302.821463 199.452 
z
" style="fill:#d62728;"/>
   </g>
   <g id="patch_140">
    <path clip-path="url(#pc31be7372a)" d="M 324.597073 228.444 
L 342.017561 228.444 
L 342.017561 228.444 
L 324.597073 228.444 
z
" style="fill:#d62728;"/>
   </g>
   <g id="patch_141">
    <path clip-path="url(#pc31be7372a)" d="M 346.372683 208.512 
L 363.793171 208.512 
L 363.793171 204.888 
L 346.372683 204.888 
z
" style="fill:#d62728;"/>
   </g>
   <g id="patch_142">
    <path clip-path="url(#pc31be7372a)" d="M 368.148293 192.204 
L 385.56878 192.204 
L 385.56878 188.58 
L 368.148293 188.58 
z
" style="fill:#d62728;"/>
   </g>
   <g id="patch_143">
    <path clip-path="url(#pc31be7372a)" d="M 389.923902 170.46 
L 407.34439 170.46 
L 407.34439 166.836 
L 389.923902 166.836 
z
" style="fill:#d62728;"/>
   </g>
   <g id="patch_144">
    <path clip-path="url(#pc31be7372a)" d="M 411.699512 155.964 
L 429.12 155.964 
L 429.12 150.528 
L 411.699512 150.528 
z
" style="fill:#d62728;"/>
   </g>
   <g id="patch_145">
    <path clip-path="url(#pc31be7372a)" d="M 433.475122 166.836 
L 450.89561 166.836 
L 450.89561 155.964 
L 433.475122 155.964 
z
" style="fill:#d62728;"/>
   </g>
   <g id="patch_146">
    <path clip-path="url(#pc31be7372a)" d="M 455.250732 145.092 
L 472.67122 145.092 
L 472.67122 141.468 
L 455.250732 141.468 
z
" style="fill:#d62728;"/>
   </g>
   <g id="patch_147">
    <path clip-path="url(#pc31be7372a)" d="M 477.026341 116.1 
L 494.446829 116.1 
L 494.446829 114.288 
L 477.026341 114.288 
z
" style="fill:#d62728;"/>
   </g>
   <g id="patch_148">
    <path clip-path="url(#pc31be7372a)" d="M 498.801951 103.416 
L 516.222439 103.416 
L 516.222439 99.792 
L 498.801951 99.792 
z
" style="fill:#d62728;"/>
   </g>
   <g id="patch_149">
    <path clip-path="url(#pc31be7372a)" d="M 520.577561 250.188 
L 537.998049 250.188 
L 537.998049 250.188 
L 520.577561 250.188 
z
" style="fill:#d62728;"/>
   </g>
   <g id="patch_150">
    <path clip-path="url(#pc31be7372a)" d="M 85.065366 250.188 
L 102.485854 250.188 
L 102.485854 250.188 
L 85.065366 250.188 
z
" style="fill:#ff9896;"/>
   </g>
   <g id="patch_151">
    <path clip-path="url(#pc31be7372a)" d="M 106.840976 252 
L 124.261463 252 
L 124.261463 252 
L 106.840976 252 
z
" style="fill:#ff9896;"/>
   </g>
   <g id="patch_152">
    <path clip-path="url(#pc31be7372a)" d="M 128.616585 248.376 
L 146.037073 248.376 
L 146.037073 248.376 
L 128.616585 248.376 
z
" style="fill:#ff9896;"/>
   </g>
   <g id="patch_153">
    <path clip-path="url(#pc31be7372a)" d="M 150.392195 250.188 
L 167.812683 250.188 
L 167.812683 250.188 
L 150.392195 250.188 
z
" style="fill:#ff9896;"/>
   </g>
   <g id="patch_154">
    <path clip-path="url(#pc31be7372a)" d="M 172.167805 250.188 
L 189.588293 250.188 
L 189.588293 250.188 
L 172.167805 250.188 
z
" style="fill:#ff9896;"/>
   </g>
   <g id="patch_155">
    <path clip-path="url(#pc31be7372a)" d="M 193.943415 242.94 
L 211.363902 242.94 
L 211.363902 242.94 
L 193.943415 242.94 
z
" style="fill:#ff9896;"/>
   </g>
   <g id="patch_156">
    <path clip-path="url(#pc31be7372a)" d="M 215.719024 230.256 
L 233.139512 230.256 
L 233.139512 224.82 
L 215.719024 224.82 
z
" style="fill:#ff9896;"/>
   </g>
   <g id="patch_157">
    <path clip-path="url(#pc31be7372a)" d="M 237.494634 246.564 
L 254.915122 246.564 
L 254.915122 246.564 
L 237.494634 246.564 
z
" style="fill:#ff9896;"/>
   </g>
   <g id="patch_158">
    <path clip-path="url(#pc31be7372a)" d="M 259.270244 226.632 
L 276.690732 226.632 
L 276.690732 224.82 
L 259.270244 224.82 
z
" style="fill:#ff9896;"/>
   </g>
   <g id="patch_159">
    <path clip-path="url(#pc31be7372a)" d="M 281.045854 226.632 
L 298.466341 226.632 
L 298.466341 226.632 
L 281.045854 226.632 
z
" style="fill:#ff9896;"/>
   </g>
   <g id="patch_160">
    <path clip-path="url(#pc31be7372a)" d="M 302.821463 199.452 
L 320.241951 199.452 
L 320.241951 197.64 
L 302.821463 197.64 
z
" style="fill:#ff9896;"/>
   </g>
   <g id="patch_161">
    <path clip-path="url(#pc31be7372a)" d="M 324.597073 228.444 
L 342.017561 228.444 
L 342.017561 223.008 
L 324.597073 223.008 
z
" style="fill:#ff9896;"/>
   </g>
   <g id="patch_162">
    <path clip-path="url(#pc31be7372a)" d="M 346.372683 204.888 
L 363.793171 204.888 
L 363.793171 203.076 
L 346.372683 203.076 
z
" style="fill:#ff9896;"/>
   </g>
   <g id="patch_163">
    <path clip-path="url(#pc31be7372a)" d="M 368.148293 188.58 
L 385.56878 188.58 
L 385.56878 179.52 
L 368.148293 179.52 
z
" style="fill:#ff9896;"/>
   </g>
   <g id="patch_164">
    <path clip-path="url(#pc31be7372a)" d="M 389.923902 166.836 
L 407.34439 166.836 
L 407.34439 165.024 
L 389.923902 165.024 
z
" style="fill:#ff9896;"/>
   </g>
   <g id="patch_165">
    <path clip-path="url(#pc31be7372a)" d="M 411.699512 150.528 
L 429.12 150.528 
L 429.12 145.092 
L 411.699512 145.092 
z
" style="fill:#ff9896;"/>
   </g>
   <g id="patch_166">
    <path clip-path="url(#pc31be7372a)" d="M 433.475122 155.964 
L 450.89561 155.964 
L 450.89561 154.152 
L 433.475122 154.152 
z
" style="fill:#ff9896;"/>
   </g>
   <g id="patch_167">
    <path clip-path="url(#pc31be7372a)" d="M 455.250732 141.468 
L 472.67122 141.468 
L 472.67122 137.844 
L 455.250732 137.844 
z
" style="fill:#ff9896;"/>
   </g>
   <g id="patch_168">
    <path clip-path="url(#pc31be7372a)" d="M 477.026341 114.288 
L 494.446829 114.288 
L 494.446829 112.476 
L 477.026341 112.476 
z
" style="fill:#ff9896;"/>
   </g>
   <g id="patch_169">
    <path clip-path="url(#pc31be7372a)" d="M 498.801951 99.792 
L 516.222439 99.792 
L 516.222439 97.98 
L 498.801951 97.98 
z
" style="fill:#ff9896;"/>
   </g>
   <g id="patch_170">
    <path clip-path="url(#pc31be7372a)" d="M 520.577561 250.188 
L 537.998049 250.188 
L 537.998049 250.188 
L 520.577561 250.188 
z
" style="fill:#ff9896;"/>
   </g>
   <g id="patch_171">
    <path clip-path="url(#pc31be7372a)" d="M 85.065366 250.188 
L 102.485854 250.188 
L 102.485854 250.188 
L 85.065366 250.188 
z
" style="fill:#9467bd;"/>
   </g>
   <g id="patch_172">
    <path clip-path="url(#pc31be7372a)" d="M 106.840976 252 
L 124.261463 252 
L 124.261463 252 
L 106.840976 252 
z
" style="fill:#9467bd;"/>
   </g>
   <g id="patch_173">
    <path clip-path="url(#pc31be7372a)" d="M 128.616585 248.376 
L 146.037073 248.376 
L 146.037073 248.376 
L 128.616585 248.376 
z
" style="fill:#9467bd;"/>
   </g>
   <g id="patch_174">
    <path clip-path="url(#pc31be7372a)" d="M 150.392195 250.188 
L 167.812683 250.188 
L 167.812683 250.188 
L 150.392195 250.188 
z
" style="fill:#9467bd;"/>
   </g>
   <g id="patch_175">
    <path clip-path="url(#pc31be7372a)" d="M 172.167805 250.188 
L 189.588293 250.188 
L 189.588293 250.188 
L 172.167805 250.188 
z
" style="fill:#9467bd;"/>
   </g>
   <g id="patch_176">
    <path clip-path="url(#pc31be7372a)" d="M 193.943415 242.94 
L 211.363902 242.94 
L 211.363902 242.94 
L 193.943415 242.94 
z
" style="fill:#9467bd;"/>
   </g>
   <g id="patch_177">
    <path clip-path="url(#pc31be7372a)" d="M 215.719024 224.82 
L 233.139512 224.82 
L 233.139512 223.008 
L 215.719024 223.008 
z
" style="fill:#9467bd;"/>
   </g>
   <g id="patch_178">
    <path clip-path="url(#pc31be7372a)" d="M 237.494634 246.564 
L 254.915122 246.564 
L 254.915122 246.564 
L 237.494634 246.564 
z
" style="fill:#9467bd;"/>
   </g>
   <g id="patch_179">
    <path clip-path="url(#pc31be7372a)" d="M 259.270244 224.82 
L 276.690732 224.82 
L 276.690732 223.008 
L 259.270244 223.008 
z
" style="fill:#9467bd;"/>
   </g>
   <g id="patch_180">
    <path clip-path="url(#pc31be7372a)" d="M 281.045854 226.632 
L 298.466341 226.632 
L 298.466341 224.82 
L 281.045854 224.82 
z
" style="fill:#9467bd;"/>
   </g>
   <g id="patch_181">
    <path clip-path="url(#pc31be7372a)" d="M 302.821463 197.64 
L 320.241951 197.64 
L 320.241951 194.016 
L 302.821463 194.016 
z
" style="fill:#9467bd;"/>
   </g>
   <g id="patch_182">
    <path clip-path="url(#pc31be7372a)" d="M 324.597073 223.008 
L 342.017561 223.008 
L 342.017561 223.008 
L 324.597073 223.008 
z
" style="fill:#9467bd;"/>
   </g>
   <g id="patch_183">
    <path clip-path="url(#pc31be7372a)" d="M 346.372683 203.076 
L 363.793171 203.076 
L 363.793171 201.264 
L 346.372683 201.264 
z
" style="fill:#9467bd;"/>
   </g>
   <g id="patch_184">
    <path clip-path="url(#pc31be7372a)" d="M 368.148293 179.52 
L 385.56878 179.52 
L 385.56878 175.896 
L 368.148293 175.896 
z
" style="fill:#9467bd;"/>
   </g>
   <g id="patch_185">
    <path clip-path="url(#pc31be7372a)" d="M 389.923902 165.024 
L 407.34439 165.024 
L 407.34439 161.4 
L 389.923902 161.4 
z
" style="fill:#9467bd;"/>
   </g>
   <g id="patch_186">
    <path clip-path="url(#pc31be7372a)" d="M 411.699512 145.092 
L 429.12 145.092 
L 429.12 136.032 
L 411.699512 136.032 
z
" style="fill:#9467bd;"/>
   </g>
   <g id="patch_187">
    <path clip-path="url(#pc31be7372a)" d="M 433.475122 154.152 
L 450.89561 154.152 
L 450.89561 154.152 
L 433.475122 154.152 
z
" style="fill:#9467bd;"/>
   </g>
   <g id="patch_188">
    <path clip-path="url(#pc31be7372a)" d="M 455.250732 137.844 
L 472.67122 137.844 
L 472.67122 134.22 
L 455.250732 134.22 
z
" style="fill:#9467bd;"/>
   </g>
   <g id="patch_189">
    <path clip-path="url(#pc31be7372a)" d="M 477.026341 112.476 
L 494.446829 112.476 
L 494.446829 107.04 
L 477.026341 107.04 
z
" style="fill:#9467bd;"/>
   </g>
   <g id="patch_190">
    <path clip-path="url(#pc31be7372a)" d="M 498.801951 97.98 
L 516.222439 97.98 
L 516.222439 94.356 
L 498.801951 94.356 
z
" style="fill:#9467bd;"/>
   </g>
   <g id="patch_191">
    <path clip-path="url(#pc31be7372a)" d="M 520.577561 250.188 
L 537.998049 250.188 
L 537.998049 250.188 
L 520.577561 250.188 
z
" style="fill:#9467bd;"/>
   </g>
   <g id="patch_192">
    <path clip-path="url(#pc31be7372a)" d="M 85.065366 250.188 
L 102.485854 250.188 
L 102.485854 250.188 
L 85.065366 250.188 
z
" style="fill:#c5b0d5;"/>
   </g>
   <g id="patch_193">
    <path clip-path="url(#pc31be7372a)" d="M 106.840976 252 
L 124.261463 252 
L 124.261463 252 
L 106.840976 252 
z
" style="fill:#c5b0d5;"/>
   </g>
   <g id="patch_194">
    <path clip-path="url(#pc31be7372a)" d="M 128.616585 248.376 
L 146.037073 248.376 
L 146.037073 248.376 
L 128.616585 248.376 
z
" style="fill:#c5b0d5;"/>
   </g>
   <g id="patch_195">
    <path clip-path="url(#pc31be7372a)" d="M 150.392195 250.188 
L 167.812683 250.188 
L 167.812683 250.188 
L 150.392195 250.188 
z
" style="fill:#c5b0d5;"/>
   </g>
   <g id="patch_196">
    <path clip-path="url(#pc31be7372a)" d="M 172.167805 250.188 
L 189.588293 250.188 
L 189.588293 250.188 
L 172.167805 250.188 
z
" style="fill:#c5b0d5;"/>
   </g>
   <g id="patch_197">
    <path clip-path="url(#pc31be7372a)" d="M 193.943415 242.94 
L 211.363902 242.94 
L 211.363902 242.94 
L 193.943415 242.94 
z
" style="fill:#c5b0d5;"/>
   </g>
   <g id="patch_198">
    <path clip-path="url(#pc31be7372a)" d="M 215.719024 223.008 
L 233.139512 223.008 
L 233.139512 221.196 
L 215.719024 221.196 
z
" style="fill:#c5b0d5;"/>
   </g>
   <g id="patch_199">
    <path clip-path="url(#pc31be7372a)" d="M 237.494634 246.564 
L 254.915122 246.564 
L 254.915122 246.564 
L 237.494634 246.564 
z
" style="fill:#c5b0d5;"/>
   </g>
   <g id="patch_200">
    <path clip-path="url(#pc31be7372a)" d="M 259.270244 223.008 
L 276.690732 223.008 
L 276.690732 221.196 
L 259.270244 221.196 
z
" style="fill:#c5b0d5;"/>
   </g>
   <g id="patch_201">
    <path clip-path="url(#pc31be7372a)" d="M 281.045854 224.82 
L 298.466341 224.82 
L 298.466341 221.196 
L 281.045854 221.196 
z
" style="fill:#c5b0d5;"/>
   </g>
   <g id="patch_202">
    <path clip-path="url(#pc31be7372a)" d="M 302.821463 194.016 
L 320.241951 194.016 
L 320.241951 192.204 
L 302.821463 192.204 
z
" style="fill:#c5b0d5;"/>
   </g>
   <g id="patch_203">
    <path clip-path="url(#pc31be7372a)" d="M 324.597073 223.008 
L 342.017561 223.008 
L 342.017561 221.196 
L 324.597073 221.196 
z
" style="fill:#c5b0d5;"/>
   </g>
   <g id="patch_204">
    <path clip-path="url(#pc31be7372a)" d="M 346.372683 201.264 
L 363.793171 201.264 
L 363.793171 194.016 
L 346.372683 194.016 
z
" style="fill:#c5b0d5;"/>
   </g>
   <g id="patch_205">
    <path clip-path="url(#pc31be7372a)" d="M 368.148293 175.896 
L 385.56878 175.896 
L 385.56878 172.272 
L 368.148293 172.272 
z
" style="fill:#c5b0d5;"/>
   </g>
   <g id="patch_206">
    <path clip-path="url(#pc31be7372a)" d="M 389.923902 161.4 
L 407.34439 161.4 
L 407.34439 159.588 
L 389.923902 159.588 
z
" style="fill:#c5b0d5;"/>
   </g>
   <g id="patch_207">
    <path clip-path="url(#pc31be7372a)" d="M 411.699512 136.032 
L 429.12 136.032 
L 429.12 130.596 
L 411.699512 130.596 
z
" style="fill:#c5b0d5;"/>
   </g>
   <g id="patch_208">
    <path clip-path="url(#pc31be7372a)" d="M 433.475122 154.152 
L 450.89561 154.152 
L 450.89561 154.152 
L 433.475122 154.152 
z
" style="fill:#c5b0d5;"/>
   </g>
   <g id="patch_209">
    <path clip-path="url(#pc31be7372a)" d="M 455.250732 134.22 
L 472.67122 134.22 
L 472.67122 132.408 
L 455.250732 132.408 
z
" style="fill:#c5b0d5;"/>
   </g>
   <g id="patch_210">
    <path clip-path="url(#pc31be7372a)" d="M 477.026341 107.04 
L 494.446829 107.04 
L 494.446829 103.416 
L 477.026341 103.416 
z
" style="fill:#c5b0d5;"/>
   </g>
   <g id="patch_211">
    <path clip-path="url(#pc31be7372a)" d="M 498.801951 94.356 
L 516.222439 94.356 
L 516.222439 90.732 
L 498.801951 90.732 
z
" style="fill:#c5b0d5;"/>
   </g>
   <g id="patch_212">
    <path clip-path="url(#pc31be7372a)" d="M 520.577561 250.188 
L 537.998049 250.188 
L 537.998049 250.188 
L 520.577561 250.188 
z
" style="fill:#c5b0d5;"/>
   </g>
   <g id="patch_213">
    <path clip-path="url(#pc31be7372a)" d="M 85.065366 250.188 
L 102.485854 250.188 
L 102.485854 250.188 
L 85.065366 250.188 
z
" style="fill:#8c564b;"/>
   </g>
   <g id="patch_214">
    <path clip-path="url(#pc31be7372a)" d="M 106.840976 252 
L 124.261463 252 
L 124.261463 252 
L 106.840976 252 
z
" style="fill:#8c564b;"/>
   </g>
   <g id="patch_215">
    <path clip-path="url(#pc31be7372a)" d="M 128.616585 248.376 
L 146.037073 248.376 
L 146.037073 248.376 
L 128.616585 248.376 
z
" style="fill:#8c564b;"/>
   </g>
   <g id="patch_216">
    <path clip-path="url(#pc31be7372a)" d="M 150.392195 250.188 
L 167.812683 250.188 
L 167.812683 250.188 
L 150.392195 250.188 
z
" style="fill:#8c564b;"/>
   </g>
   <g id="patch_217">
    <path clip-path="url(#pc31be7372a)" d="M 172.167805 250.188 
L 189.588293 250.188 
L 189.588293 250.188 
L 172.167805 250.188 
z
" style="fill:#8c564b;"/>
   </g>
   <g id="patch_218">
    <path clip-path="url(#pc31be7372a)" d="M 193.943415 242.94 
L 211.363902 242.94 
L 211.363902 242.94 
L 193.943415 242.94 
z
" style="fill:#8c564b;"/>
   </g>
   <g id="patch_219">
    <path clip-path="url(#pc31be7372a)" d="M 215.719024 221.196 
L 233.139512 221.196 
L 233.139512 217.572 
L 215.719024 217.572 
z
" style="fill:#8c564b;"/>
   </g>
   <g id="patch_220">
    <path clip-path="url(#pc31be7372a)" d="M 237.494634 246.564 
L 254.915122 246.564 
L 254.915122 246.564 
L 237.494634 246.564 
z
" style="fill:#8c564b;"/>
   </g>
   <g id="patch_221">
    <path clip-path="url(#pc31be7372a)" d="M 259.270244 221.196 
L 276.690732 221.196 
L 276.690732 221.196 
L 259.270244 221.196 
z
" style="fill:#8c564b;"/>
   </g>
   <g id="patch_222">
    <path clip-path="url(#pc31be7372a)" d="M 281.045854 221.196 
L 298.466341 221.196 
L 298.466341 221.196 
L 281.045854 221.196 
z
" style="fill:#8c564b;"/>
   </g>
   <g id="patch_223">
    <path clip-path="url(#pc31be7372a)" d="M 302.821463 192.204 
L 320.241951 192.204 
L 320.241951 186.768 
L 302.821463 186.768 
z
" style="fill:#8c564b;"/>
   </g>
   <g id="patch_224">
    <path clip-path="url(#pc31be7372a)" d="M 324.597073 221.196 
L 342.017561 221.196 
L 342.017561 221.196 
L 324.597073 221.196 
z
" style="fill:#8c564b;"/>
   </g>
   <g id="patch_225">
    <path clip-path="url(#pc31be7372a)" d="M 346.372683 194.016 
L 363.793171 194.016 
L 363.793171 192.204 
L 346.372683 192.204 
z
" style="fill:#8c564b;"/>
   </g>
   <g id="patch_226">
    <path clip-path="url(#pc31be7372a)" d="M 368.148293 172.272 
L 385.56878 172.272 
L 385.56878 168.648 
L 368.148293 168.648 
z
" style="fill:#8c564b;"/>
   </g>
   <g id="patch_227">
    <path clip-path="url(#pc31be7372a)" d="M 389.923902 159.588 
L 407.34439 159.588 
L 407.34439 155.964 
L 389.923902 155.964 
z
" style="fill:#8c564b;"/>
   </g>
   <g id="patch_228">
    <path clip-path="url(#pc31be7372a)" d="M 411.699512 130.596 
L 429.12 130.596 
L 429.12 126.972 
L 411.699512 126.972 
z
" style="fill:#8c564b;"/>
   </g>
   <g id="patch_229">
    <path clip-path="url(#pc31be7372a)" d="M 433.475122 154.152 
L 450.89561 154.152 
L 450.89561 154.152 
L 433.475122 154.152 
z
" style="fill:#8c564b;"/>
   </g>
   <g id="patch_230">
    <path clip-path="url(#pc31be7372a)" d="M 455.250732 132.408 
L 472.67122 132.408 
L 472.67122 128.784 
L 455.250732 128.784 
z
" style="fill:#8c564b;"/>
   </g>
   <g id="patch_231">
    <path clip-path="url(#pc31be7372a)" d="M 477.026341 103.416 
L 494.446829 103.416 
L 494.446829 97.98 
L 477.026341 97.98 
z
" style="fill:#8c564b;"/>
   </g>
   <g id="patch_232">
    <path clip-path="url(#pc31be7372a)" d="M 498.801951 90.732 
L 516.222439 90.732 
L 516.222439 88.92 
L 498.801951 88.92 
z
" style="fill:#8c564b;"/>
   </g>
   <g id="patch_233">
    <path clip-path="url(#pc31be7372a)" d="M 520.577561 250.188 
L 537.998049 250.188 
L 537.998049 250.188 
L 520.577561 250.188 
z
" style="fill:#8c564b;"/>
   </g>
   <g id="patch_234">
    <path clip-path="url(#pc31be7372a)" d="M 85.065366 250.188 
L 102.485854 250.188 
L 102.485854 250.188 
L 85.065366 250.188 
z
" style="fill:#c49c94;"/>
   </g>
   <g id="patch_235">
    <path clip-path="url(#pc31be7372a)" d="M 106.840976 252 
L 124.261463 252 
L 124.261463 252 
L 106.840976 252 
z
" style="fill:#c49c94;"/>
   </g>
   <g id="patch_236">
    <path clip-path="url(#pc31be7372a)" d="M 128.616585 248.376 
L 146.037073 248.376 
L 146.037073 248.376 
L 128.616585 248.376 
z
" style="fill:#c49c94;"/>
   </g>
   <g id="patch_237">
    <path clip-path="url(#pc31be7372a)" d="M 150.392195 250.188 
L 167.812683 250.188 
L 167.812683 250.188 
L 150.392195 250.188 
z
" style="fill:#c49c94;"/>
   </g>
   <g id="patch_238">
    <path clip-path="url(#pc31be7372a)" d="M 172.167805 250.188 
L 189.588293 250.188 
L 189.588293 250.188 
L 172.167805 250.188 
z
" style="fill:#c49c94;"/>
   </g>
   <g id="patch_239">
    <path clip-path="url(#pc31be7372a)" d="M 193.943415 242.94 
L 211.363902 242.94 
L 211.363902 242.94 
L 193.943415 242.94 
z
" style="fill:#c49c94;"/>
   </g>
   <g id="patch_240">
    <path clip-path="url(#pc31be7372a)" d="M 215.719024 217.572 
L 233.139512 217.572 
L 233.139512 217.572 
L 215.719024 217.572 
z
" style="fill:#c49c94;"/>
   </g>
   <g id="patch_241">
    <path clip-path="url(#pc31be7372a)" d="M 237.494634 246.564 
L 254.915122 246.564 
L 254.915122 246.564 
L 237.494634 246.564 
z
" style="fill:#c49c94;"/>
   </g>
   <g id="patch_242">
    <path clip-path="url(#pc31be7372a)" d="M 259.270244 221.196 
L 276.690732 221.196 
L 276.690732 219.384 
L 259.270244 219.384 
z
" style="fill:#c49c94;"/>
   </g>
   <g id="patch_243">
    <path clip-path="url(#pc31be7372a)" d="M 281.045854 221.196 
L 298.466341 221.196 
L 298.466341 221.196 
L 281.045854 221.196 
z
" style="fill:#c49c94;"/>
   </g>
   <g id="patch_244">
    <path clip-path="url(#pc31be7372a)" d="M 302.821463 186.768 
L 320.241951 186.768 
L 320.241951 183.144 
L 302.821463 183.144 
z
" style="fill:#c49c94;"/>
   </g>
   <g id="patch_245">
    <path clip-path="url(#pc31be7372a)" d="M 324.597073 221.196 
L 342.017561 221.196 
L 342.017561 221.196 
L 324.597073 221.196 
z
" style="fill:#c49c94;"/>
   </g>
   <g id="patch_246">
    <path clip-path="url(#pc31be7372a)" d="M 346.372683 192.204 
L 363.793171 192.204 
L 363.793171 188.58 
L 346.372683 188.58 
z
" style="fill:#c49c94;"/>
   </g>
   <g id="patch_247">
    <path clip-path="url(#pc31be7372a)" d="M 368.148293 168.648 
L 385.56878 168.648 
L 385.56878 166.836 
L 368.148293 166.836 
z
" style="fill:#c49c94;"/>
   </g>
   <g id="patch_248">
    <path clip-path="url(#pc31be7372a)" d="M 389.923902 155.964 
L 407.34439 155.964 
L 407.34439 154.152 
L 389.923902 154.152 
z
" style="fill:#c49c94;"/>
   </g>
   <g id="patch_249">
    <path clip-path="url(#pc31be7372a)" d="M 411.699512 126.972 
L 429.12 126.972 
L 429.12 123.348 
L 411.699512 123.348 
z
" style="fill:#c49c94;"/>
   </g>
   <g id="patch_250">
    <path clip-path="url(#pc31be7372a)" d="M 433.475122 154.152 
L 450.89561 154.152 
L 450.89561 148.716 
L 433.475122 148.716 
z
" style="fill:#c49c94;"/>
   </g>
   <g id="patch_251">
    <path clip-path="url(#pc31be7372a)" d="M 455.250732 128.784 
L 472.67122 128.784 
L 472.67122 126.972 
L 455.250732 126.972 
z
" style="fill:#c49c94;"/>
   </g>
   <g id="patch_252">
    <path clip-path="url(#pc31be7372a)" d="M 477.026341 97.98 
L 494.446829 97.98 
L 494.446829 94.356 
L 477.026341 94.356 
z
" style="fill:#c49c94;"/>
   </g>
   <g id="patch_253">
    <path clip-path="url(#pc31be7372a)" d="M 498.801951 88.92 
L 516.222439 88.92 
L 516.222439 87.108 
L 498.801951 87.108 
z
" style="fill:#c49c94;"/>
   </g>
   <g id="patch_254">
    <path clip-path="url(#pc31be7372a)" d="M 520.577561 250.188 
L 537.998049 250.188 
L 537.998049 250.188 
L 520.577561 250.188 
z
" style="fill:#c49c94;"/>
   </g>
   <g id="patch_255">
    <path clip-path="url(#pc31be7372a)" d="M 85.065366 250.188 
L 102.485854 250.188 
L 102.485854 250.188 
L 85.065366 250.188 
z
" style="fill:#e377c2;"/>
   </g>
   <g id="patch_256">
    <path clip-path="url(#pc31be7372a)" d="M 106.840976 252 
L 124.261463 252 
L 124.261463 252 
L 106.840976 252 
z
" style="fill:#e377c2;"/>
   </g>
   <g id="patch_257">
    <path clip-path="url(#pc31be7372a)" d="M 128.616585 248.376 
L 146.037073 248.376 
L 146.037073 248.376 
L 128.616585 248.376 
z
" style="fill:#e377c2;"/>
   </g>
   <g id="patch_258">
    <path clip-path="url(#pc31be7372a)" d="M 150.392195 250.188 
L 167.812683 250.188 
L 167.812683 250.188 
L 150.392195 250.188 
z
" style="fill:#e377c2;"/>
   </g>
   <g id="patch_259">
    <path clip-path="url(#pc31be7372a)" d="M 172.167805 250.188 
L 189.588293 250.188 
L 189.588293 250.188 
L 172.167805 250.188 
z
" style="fill:#e377c2;"/>
   </g>
   <g id="patch_260">
    <path clip-path="url(#pc31be7372a)" d="M 193.943415 242.94 
L 211.363902 242.94 
L 211.363902 242.94 
L 193.943415 242.94 
z
" style="fill:#e377c2;"/>
   </g>
   <g id="patch_261">
    <path clip-path="url(#pc31be7372a)" d="M 215.719024 217.572 
L 233.139512 217.572 
L 233.139512 215.76 
L 215.719024 215.76 
z
" style="fill:#e377c2;"/>
   </g>
   <g id="patch_262">
    <path clip-path="url(#pc31be7372a)" d="M 237.494634 246.564 
L 254.915122 246.564 
L 254.915122 246.564 
L 237.494634 246.564 
z
" style="fill:#e377c2;"/>
   </g>
   <g id="patch_263">
    <path clip-path="url(#pc31be7372a)" d="M 259.270244 219.384 
L 276.690732 219.384 
L 276.690732 219.384 
L 259.270244 219.384 
z
" style="fill:#e377c2;"/>
   </g>
   <g id="patch_264">
    <path clip-path="url(#pc31be7372a)" d="M 281.045854 221.196 
L 298.466341 221.196 
L 298.466341 221.196 
L 281.045854 221.196 
z
" style="fill:#e377c2;"/>
   </g>
   <g id="patch_265">
    <path clip-path="url(#pc31be7372a)" d="M 302.821463 183.144 
L 320.241951 183.144 
L 320.241951 179.52 
L 302.821463 179.52 
z
" style="fill:#e377c2;"/>
   </g>
   <g id="patch_266">
    <path clip-path="url(#pc31be7372a)" d="M 324.597073 221.196 
L 342.017561 221.196 
L 342.017561 219.384 
L 324.597073 219.384 
z
" style="fill:#e377c2;"/>
   </g>
   <g id="patch_267">
    <path clip-path="url(#pc31be7372a)" d="M 346.372683 188.58 
L 363.793171 188.58 
L 363.793171 183.144 
L 346.372683 183.144 
z
" style="fill:#e377c2;"/>
   </g>
   <g id="patch_268">
    <path clip-path="url(#pc31be7372a)" d="M 368.148293 166.836 
L 385.56878 166.836 
L 385.56878 166.836 
L 368.148293 166.836 
z
" style="fill:#e377c2;"/>
   </g>
   <g id="patch_269">
    <path clip-path="url(#pc31be7372a)" d="M 389.923902 154.152 
L 407.34439 154.152 
L 407.34439 152.34 
L 389.923902 152.34 
z
" style="fill:#e377c2;"/>
   </g>
   <g id="patch_270">
    <path clip-path="url(#pc31be7372a)" d="M 411.699512 123.348 
L 429.12 123.348 
L 429.12 123.348 
L 411.699512 123.348 
z
" style="fill:#e377c2;"/>
   </g>
   <g id="patch_271">
    <path clip-path="url(#pc31be7372a)" d="M 433.475122 148.716 
L 450.89561 148.716 
L 450.89561 146.904 
L 433.475122 146.904 
z
" style="fill:#e377c2;"/>
   </g>
   <g id="patch_272">
    <path clip-path="url(#pc31be7372a)" d="M 455.250732 126.972 
L 472.67122 126.972 
L 472.67122 126.972 
L 455.250732 126.972 
z
" style="fill:#e377c2;"/>
   </g>
   <g id="patch_273">
    <path clip-path="url(#pc31be7372a)" d="M 477.026341 94.356 
L 494.446829 94.356 
L 494.446829 90.732 
L 477.026341 90.732 
z
" style="fill:#e377c2;"/>
   </g>
   <g id="patch_274">
    <path clip-path="url(#pc31be7372a)" d="M 498.801951 87.108 
L 516.222439 87.108 
L 516.222439 81.672 
L 498.801951 81.672 
z
" style="fill:#e377c2;"/>
   </g>
   <g id="patch_275">
    <path clip-path="url(#pc31be7372a)" d="M 520.577561 250.188 
L 537.998049 250.188 
L 537.998049 250.188 
L 520.577561 250.188 
z
" style="fill:#e377c2;"/>
   </g>
   <g id="patch_276">
    <path clip-path="url(#pc31be7372a)" d="M 85.065366 250.188 
L 102.485854 250.188 
L 102.485854 250.188 
L 85.065366 250.188 
z
" style="fill:#f7b6d2;"/>
   </g>
   <g id="patch_277">
    <path clip-path="url(#pc31be7372a)" d="M 106.840976 252 
L 124.261463 252 
L 124.261463 252 
L 106.840976 252 
z
" style="fill:#f7b6d2;"/>
   </g>
   <g id="patch_278">
    <path clip-path="url(#pc31be7372a)" d="M 128.616585 248.376 
L 146.037073 248.376 
L 146.037073 248.376 
L 128.616585 248.376 
z
" style="fill:#f7b6d2;"/>
   </g>
   <g id="patch_279">
    <path clip-path="url(#pc31be7372a)" d="M 150.392195 250.188 
L 167.812683 250.188 
L 167.812683 250.188 
L 150.392195 250.188 
z
" style="fill:#f7b6d2;"/>
   </g>
   <g id="patch_280">
    <path clip-path="url(#pc31be7372a)" d="M 172.167805 250.188 
L 189.588293 250.188 
L 189.588293 250.188 
L 172.167805 250.188 
z
" style="fill:#f7b6d2;"/>
   </g>
   <g id="patch_281">
    <path clip-path="url(#pc31be7372a)" d="M 193.943415 242.94 
L 211.363902 242.94 
L 211.363902 242.94 
L 193.943415 242.94 
z
" style="fill:#f7b6d2;"/>
   </g>
   <g id="patch_282">
    <path clip-path="url(#pc31be7372a)" d="M 215.719024 215.76 
L 233.139512 215.76 
L 233.139512 215.76 
L 215.719024 215.76 
z
" style="fill:#f7b6d2;"/>
   </g>
   <g id="patch_283">
    <path clip-path="url(#pc31be7372a)" d="M 237.494634 246.564 
L 254.915122 246.564 
L 254.915122 246.564 
L 237.494634 246.564 
z
" style="fill:#f7b6d2;"/>
   </g>
   <g id="patch_284">
    <path clip-path="url(#pc31be7372a)" d="M 259.270244 219.384 
L 276.690732 219.384 
L 276.690732 217.572 
L 259.270244 217.572 
z
" style="fill:#f7b6d2;"/>
   </g>
   <g id="patch_285">
    <path clip-path="url(#pc31be7372a)" d="M 281.045854 221.196 
L 298.466341 221.196 
L 298.466341 219.384 
L 281.045854 219.384 
z
" style="fill:#f7b6d2;"/>
   </g>
   <g id="patch_286">
    <path clip-path="url(#pc31be7372a)" d="M 302.821463 179.52 
L 320.241951 179.52 
L 320.241951 177.708 
L 302.821463 177.708 
z
" style="fill:#f7b6d2;"/>
   </g>
   <g id="patch_287">
    <path clip-path="url(#pc31be7372a)" d="M 324.597073 219.384 
L 342.017561 219.384 
L 342.017561 217.572 
L 324.597073 217.572 
z
" style="fill:#f7b6d2;"/>
   </g>
   <g id="patch_288">
    <path clip-path="url(#pc31be7372a)" d="M 346.372683 183.144 
L 363.793171 183.144 
L 363.793171 181.332 
L 346.372683 181.332 
z
" style="fill:#f7b6d2;"/>
   </g>
   <g id="patch_289">
    <path clip-path="url(#pc31be7372a)" d="M 368.148293 166.836 
L 385.56878 166.836 
L 385.56878 163.212 
L 368.148293 163.212 
z
" style="fill:#f7b6d2;"/>
   </g>
   <g id="patch_290">
    <path clip-path="url(#pc31be7372a)" d="M 389.923902 152.34 
L 407.34439 152.34 
L 407.34439 148.716 
L 389.923902 148.716 
z
" style="fill:#f7b6d2;"/>
   </g>
   <g id="patch_291">
    <path clip-path="url(#pc31be7372a)" d="M 411.699512 123.348 
L 429.12 123.348 
L 429.12 119.724 
L 411.699512 119.724 
z
" style="fill:#f7b6d2;"/>
   </g>
   <g id="patch_292">
    <path clip-path="url(#pc31be7372a)" d="M 433.475122 146.904 
L 450.89561 146.904 
L 450.89561 145.092 
L 433.475122 145.092 
z
" style="fill:#f7b6d2;"/>
   </g>
   <g id="patch_293">
    <path clip-path="url(#pc31be7372a)" d="M 455.250732 126.972 
L 472.67122 126.972 
L 472.67122 125.16 
L 455.250732 125.16 
z
" style="fill:#f7b6d2;"/>
   </g>
   <g id="patch_294">
    <path clip-path="url(#pc31be7372a)" d="M 477.026341 90.732 
L 494.446829 90.732 
L 494.446829 88.92 
L 477.026341 88.92 
z
" style="fill:#f7b6d2;"/>
   </g>
   <g id="patch_295">
    <path clip-path="url(#pc31be7372a)" d="M 498.801951 81.672 
L 516.222439 81.672 
L 516.222439 81.672 
L 498.801951 81.672 
z
" style="fill:#f7b6d2;"/>
   </g>
   <g id="patch_296">
    <path clip-path="url(#pc31be7372a)" d="M 520.577561 250.188 
L 537.998049 250.188 
L 537.998049 250.188 
L 520.577561 250.188 
z
" style="fill:#f7b6d2;"/>
   </g>
   <g id="patch_297">
    <path clip-path="url(#pc31be7372a)" d="M 85.065366 250.188 
L 102.485854 250.188 
L 102.485854 250.188 
L 85.065366 250.188 
z
" style="fill:#7f7f7f;"/>
   </g>
   <g id="patch_298">
    <path clip-path="url(#pc31be7372a)" d="M 106.840976 252 
L 124.261463 252 
L 124.261463 252 
L 106.840976 252 
z
" style="fill:#7f7f7f;"/>
   </g>
   <g id="patch_299">
    <path clip-path="url(#pc31be7372a)" d="M 128.616585 248.376 
L 146.037073 248.376 
L 146.037073 248.376 
L 128.616585 248.376 
z
" style="fill:#7f7f7f;"/>
   </g>
   <g id="patch_300">
    <path clip-path="url(#pc31be7372a)" d="M 150.392195 250.188 
L 167.812683 250.188 
L 167.812683 250.188 
L 150.392195 250.188 
z
" style="fill:#7f7f7f;"/>
   </g>
   <g id="patch_301">
    <path clip-path="url(#pc31be7372a)" d="M 172.167805 250.188 
L 189.588293 250.188 
L 189.588293 250.188 
L 172.167805 250.188 
z
" style="fill:#7f7f7f;"/>
   </g>
   <g id="patch_302">
    <path clip-path="url(#pc31be7372a)" d="M 193.943415 242.94 
L 211.363902 242.94 
L 211.363902 242.94 
L 193.943415 242.94 
z
" style="fill:#7f7f7f;"/>
   </g>
   <g id="patch_303">
    <path clip-path="url(#pc31be7372a)" d="M 215.719024 215.76 
L 233.139512 215.76 
L 233.139512 215.76 
L 215.719024 215.76 
z
" style="fill:#7f7f7f;"/>
   </g>
   <g id="patch_304">
    <path clip-path="url(#pc31be7372a)" d="M 237.494634 246.564 
L 254.915122 246.564 
L 254.915122 246.564 
L 237.494634 246.564 
z
" style="fill:#7f7f7f;"/>
   </g>
   <g id="patch_305">
    <path clip-path="url(#pc31be7372a)" d="M 259.270244 217.572 
L 276.690732 217.572 
L 276.690732 215.76 
L 259.270244 215.76 
z
" style="fill:#7f7f7f;"/>
   </g>
   <g id="patch_306">
    <path clip-path="url(#pc31be7372a)" d="M 281.045854 219.384 
L 298.466341 219.384 
L 298.466341 219.384 
L 281.045854 219.384 
z
" style="fill:#7f7f7f;"/>
   </g>
   <g id="patch_307">
    <path clip-path="url(#pc31be7372a)" d="M 302.821463 177.708 
L 320.241951 177.708 
L 320.241951 175.896 
L 302.821463 175.896 
z
" style="fill:#7f7f7f;"/>
   </g>
   <g id="patch_308">
    <path clip-path="url(#pc31be7372a)" d="M 324.597073 217.572 
L 342.017561 217.572 
L 342.017561 217.572 
L 324.597073 217.572 
z
" style="fill:#7f7f7f;"/>
   </g>
   <g id="patch_309">
    <path clip-path="url(#pc31be7372a)" d="M 346.372683 181.332 
L 363.793171 181.332 
L 363.793171 179.52 
L 346.372683 179.52 
z
" style="fill:#7f7f7f;"/>
   </g>
   <g id="patch_310">
    <path clip-path="url(#pc31be7372a)" d="M 368.148293 163.212 
L 385.56878 163.212 
L 385.56878 159.588 
L 368.148293 159.588 
z
" style="fill:#7f7f7f;"/>
   </g>
   <g id="patch_311">
    <path clip-path="url(#pc31be7372a)" d="M 389.923902 148.716 
L 407.34439 148.716 
L 407.34439 148.716 
L 389.923902 148.716 
z
" style="fill:#7f7f7f;"/>
   </g>
   <g id="patch_312">
    <path clip-path="url(#pc31be7372a)" d="M 411.699512 119.724 
L 429.12 119.724 
L 429.12 119.724 
L 411.699512 119.724 
z
" style="fill:#7f7f7f;"/>
   </g>
   <g id="patch_313">
    <path clip-path="url(#pc31be7372a)" d="M 433.475122 145.092 
L 450.89561 145.092 
L 450.89561 145.092 
L 433.475122 145.092 
z
" style="fill:#7f7f7f;"/>
   </g>
   <g id="patch_314">
    <path clip-path="url(#pc31be7372a)" d="M 455.250732 125.16 
L 472.67122 125.16 
L 472.67122 121.536 
L 455.250732 121.536 
z
" style="fill:#7f7f7f;"/>
   </g>
   <g id="patch_315">
    <path clip-path="url(#pc31be7372a)" d="M 477.026341 88.92 
L 494.446829 88.92 
L 494.446829 78.048 
L 477.026341 78.048 
z
" style="fill:#7f7f7f;"/>
   </g>
   <g id="patch_316">
    <path clip-path="url(#pc31be7372a)" d="M 498.801951 81.672 
L 516.222439 81.672 
L 516.222439 81.672 
L 498.801951 81.672 
z
" style="fill:#7f7f7f;"/>
   </g>
   <g id="patch_317">
    <path clip-path="url(#pc31be7372a)" d="M 520.577561 250.188 
L 537.998049 250.188 
L 537.998049 250.188 
L 520.577561 250.188 
z
" style="fill:#7f7f7f;"/>
   </g>
   <g id="matplotlib.axis_1">
    <g id="xtick_1">
     <g id="line2d_1">
      <defs>
       <path d="M 0 0 
L 0 3.5 
" id="mdd9c568904" style="stroke:#000000;stroke-width:0.8;"/>
      </defs>
      <g>
       <use style="stroke:#000000;stroke-width:0.8;" x="72" xlink:href="#mdd9c568904" y="252"/>
      </g>
     </g>
     <g id="text_1">
      <!-- 2000 -->
      <g transform="translate(59.275 266.598437)scale(0.1 -0.1)">
       <defs>
        <path d="M 1228 531 
L 3431 531 
L 3431 0 
L 469 0 
L 469 531 
Q 828 903 1448 1529 
Q 2069 2156 2228 2338 
Q 2531 2678 2651 2914 
Q 2772 3150 2772 3378 
Q 2772 3750 2511 3984 
Q 2250 4219 1831 4219 
Q 1534 4219 1204 4116 
Q 875 4013 500 3803 
L 500 4441 
Q 881 4594 1212 4672 
Q 1544 4750 1819 4750 
Q 2544 4750 2975 4387 
Q 3406 4025 3406 3419 
Q 3406 3131 3298 2873 
Q 3191 2616 2906 2266 
Q 2828 2175 2409 1742 
Q 1991 1309 1228 531 
z
" id="DejaVuSans-32" transform="scale(0.015625)"/>
        <path d="M 2034 4250 
Q 1547 4250 1301 3770 
Q 1056 3291 1056 2328 
Q 1056 1369 1301 889 
Q 1547 409 2034 409 
Q 2525 409 2770 889 
Q 3016 1369 3016 2328 
Q 3016 3291 2770 3770 
Q 2525 4250 2034 4250 
z
M 2034 4750 
Q 2819 4750 3233 4129 
Q 3647 3509 3647 2328 
Q 3647 1150 3233 529 
Q 2819 -91 2034 -91 
Q 1250 -91 836 529 
Q 422 1150 422 2328 
Q 422 3509 836 4129 
Q 1250 4750 2034 4750 
z
" id="DejaVuSans-30" transform="scale(0.015625)"/>
       </defs>
       <use xlink:href="#DejaVuSans-32"/>
       <use x="63.623047" xlink:href="#DejaVuSans-30"/>
       <use x="127.246094" xlink:href="#DejaVuSans-30"/>
       <use x="190.869141" xlink:href="#DejaVuSans-30"/>
      </g>
     </g>
    </g>
    <g id="xtick_2">
     <g id="line2d_2">
      <g>
       <use style="stroke:#000000;stroke-width:0.8;" x="180.878049" xlink:href="#mdd9c568904" y="252"/>
      </g>
     </g>
     <g id="text_2">
      <!-- 2005 -->
      <g transform="translate(168.153049 266.598437)scale(0.1 -0.1)">
       <defs>
        <path d="M 691 4666 
L 3169 4666 
L 3169 4134 
L 1269 4134 
L 1269 2991 
Q 1406 3038 1543 3061 
Q 1681 3084 1819 3084 
Q 2600 3084 3056 2656 
Q 3513 2228 3513 1497 
Q 3513 744 3044 326 
Q 2575 -91 1722 -91 
Q 1428 -91 1123 -41 
Q 819 9 494 109 
L 494 744 
Q 775 591 1075 516 
Q 1375 441 1709 441 
Q 2250 441 2565 725 
Q 2881 1009 2881 1497 
Q 2881 1984 2565 2268 
Q 2250 2553 1709 2553 
Q 1456 2553 1204 2497 
Q 953 2441 691 2322 
L 691 4666 
z
" id="DejaVuSans-35" transform="scale(0.015625)"/>
       </defs>
       <use xlink:href="#DejaVuSans-32"/>
       <use x="63.623047" xlink:href="#DejaVuSans-30"/>
       <use x="127.246094" xlink:href="#DejaVuSans-30"/>
       <use x="190.869141" xlink:href="#DejaVuSans-35"/>
      </g>
     </g>
    </g>
    <g id="xtick_3">
     <g id="line2d_3">
      <g>
       <use style="stroke:#000000;stroke-width:0.8;" x="289.756098" xlink:href="#mdd9c568904" y="252"/>
      </g>
     </g>
     <g id="text_3">
      <!-- 2010 -->
      <g transform="translate(277.031098 266.598437)scale(0.1 -0.1)">
       <defs>
        <path d="M 794 531 
L 1825 531 
L 1825 4091 
L 703 3866 
L 703 4441 
L 1819 4666 
L 2450 4666 
L 2450 531 
L 3481 531 
L 3481 0 
L 794 0 
L 794 531 
z
" id="DejaVuSans-31" transform="scale(0.015625)"/>
       </defs>
       <use xlink:href="#DejaVuSans-32"/>
       <use x="63.623047" xlink:href="#DejaVuSans-30"/>
       <use x="127.246094" xlink:href="#DejaVuSans-31"/>
       <use x="190.869141" xlink:href="#DejaVuSans-30"/>
      </g>
     </g>
    </g>
    <g id="xtick_4">
     <g id="line2d_4">
      <g>
       <use style="stroke:#000000;stroke-width:0.8;" x="398.634146" xlink:href="#mdd9c568904" y="252"/>
      </g>
     </g>
     <g id="text_4">
      <!-- 2015 -->
      <g transform="translate(385.909146 266.598437)scale(0.1 -0.1)">
       <use xlink:href="#DejaVuSans-32"/>
       <use x="63.623047" xlink:href="#DejaVuSans-30"/>
       <use x="127.246094" xlink:href="#DejaVuSans-31"/>
       <use x="190.869141" xlink:href="#DejaVuSans-35"/>
      </g>
     </g>
    </g>
    <g id="xtick_5">
     <g id="line2d_5">
      <g>
       <use style="stroke:#000000;stroke-width:0.8;" x="507.512195" xlink:href="#mdd9c568904" y="252"/>
      </g>
     </g>
     <g id="text_5">
      <!-- 2020 -->
      <g transform="translate(494.787195 266.598437)scale(0.1 -0.1)">
       <use xlink:href="#DejaVuSans-32"/>
       <use x="63.623047" xlink:href="#DejaVuSans-30"/>
       <use x="127.246094" xlink:href="#DejaVuSans-32"/>
       <use x="190.869141" xlink:href="#DejaVuSans-30"/>
      </g>
     </g>
    </g>
    <g id="text_6">
     <!-- year of publication -->
     <g transform="translate(220.2575 284.835625)scale(0.16 -0.16)">
      <defs>
       <path d="M 2059 -325 
Q 1816 -950 1584 -1140 
Q 1353 -1331 966 -1331 
L 506 -1331 
L 506 -850 
L 844 -850 
Q 1081 -850 1212 -737 
Q 1344 -625 1503 -206 
L 1606 56 
L 191 3500 
L 800 3500 
L 1894 763 
L 2988 3500 
L 3597 3500 
L 2059 -325 
z
" id="DejaVuSans-79" transform="scale(0.015625)"/>
       <path d="M 3597 1894 
L 3597 1613 
L 953 1613 
Q 991 1019 1311 708 
Q 1631 397 2203 397 
Q 2534 397 2845 478 
Q 3156 559 3463 722 
L 3463 178 
Q 3153 47 2828 -22 
Q 2503 -91 2169 -91 
Q 1331 -91 842 396 
Q 353 884 353 1716 
Q 353 2575 817 3079 
Q 1281 3584 2069 3584 
Q 2775 3584 3186 3129 
Q 3597 2675 3597 1894 
z
M 3022 2063 
Q 3016 2534 2758 2815 
Q 2500 3097 2075 3097 
Q 1594 3097 1305 2825 
Q 1016 2553 972 2059 
L 3022 2063 
z
" id="DejaVuSans-65" transform="scale(0.015625)"/>
       <path d="M 2194 1759 
Q 1497 1759 1228 1600 
Q 959 1441 959 1056 
Q 959 750 1161 570 
Q 1363 391 1709 391 
Q 2188 391 2477 730 
Q 2766 1069 2766 1631 
L 2766 1759 
L 2194 1759 
z
M 3341 1997 
L 3341 0 
L 2766 0 
L 2766 531 
Q 2569 213 2275 61 
Q 1981 -91 1556 -91 
Q 1019 -91 701 211 
Q 384 513 384 1019 
Q 384 1609 779 1909 
Q 1175 2209 1959 2209 
L 2766 2209 
L 2766 2266 
Q 2766 2663 2505 2880 
Q 2244 3097 1772 3097 
Q 1472 3097 1187 3025 
Q 903 2953 641 2809 
L 641 3341 
Q 956 3463 1253 3523 
Q 1550 3584 1831 3584 
Q 2591 3584 2966 3190 
Q 3341 2797 3341 1997 
z
" id="DejaVuSans-61" transform="scale(0.015625)"/>
       <path d="M 2631 2963 
Q 2534 3019 2420 3045 
Q 2306 3072 2169 3072 
Q 1681 3072 1420 2755 
Q 1159 2438 1159 1844 
L 1159 0 
L 581 0 
L 581 3500 
L 1159 3500 
L 1159 2956 
Q 1341 3275 1631 3429 
Q 1922 3584 2338 3584 
Q 2397 3584 2469 3576 
Q 2541 3569 2628 3553 
L 2631 2963 
z
" id="DejaVuSans-72" transform="scale(0.015625)"/>
       <path id="DejaVuSans-20" transform="scale(0.015625)"/>
       <path d="M 1959 3097 
Q 1497 3097 1228 2736 
Q 959 2375 959 1747 
Q 959 1119 1226 758 
Q 1494 397 1959 397 
Q 2419 397 2687 759 
Q 2956 1122 2956 1747 
Q 2956 2369 2687 2733 
Q 2419 3097 1959 3097 
z
M 1959 3584 
Q 2709 3584 3137 3096 
Q 3566 2609 3566 1747 
Q 3566 888 3137 398 
Q 2709 -91 1959 -91 
Q 1206 -91 779 398 
Q 353 888 353 1747 
Q 353 2609 779 3096 
Q 1206 3584 1959 3584 
z
" id="DejaVuSans-6f" transform="scale(0.015625)"/>
       <path d="M 2375 4863 
L 2375 4384 
L 1825 4384 
Q 1516 4384 1395 4259 
Q 1275 4134 1275 3809 
L 1275 3500 
L 2222 3500 
L 2222 3053 
L 1275 3053 
L 1275 0 
L 697 0 
L 697 3053 
L 147 3053 
L 147 3500 
L 697 3500 
L 697 3744 
Q 697 4328 969 4595 
Q 1241 4863 1831 4863 
L 2375 4863 
z
" id="DejaVuSans-66" transform="scale(0.015625)"/>
       <path d="M 1159 525 
L 1159 -1331 
L 581 -1331 
L 581 3500 
L 1159 3500 
L 1159 2969 
Q 1341 3281 1617 3432 
Q 1894 3584 2278 3584 
Q 2916 3584 3314 3078 
Q 3713 2572 3713 1747 
Q 3713 922 3314 415 
Q 2916 -91 2278 -91 
Q 1894 -91 1617 61 
Q 1341 213 1159 525 
z
M 3116 1747 
Q 3116 2381 2855 2742 
Q 2594 3103 2138 3103 
Q 1681 3103 1420 2742 
Q 1159 2381 1159 1747 
Q 1159 1113 1420 752 
Q 1681 391 2138 391 
Q 2594 391 2855 752 
Q 3116 1113 3116 1747 
z
" id="DejaVuSans-70" transform="scale(0.015625)"/>
       <path d="M 544 1381 
L 544 3500 
L 1119 3500 
L 1119 1403 
Q 1119 906 1312 657 
Q 1506 409 1894 409 
Q 2359 409 2629 706 
Q 2900 1003 2900 1516 
L 2900 3500 
L 3475 3500 
L 3475 0 
L 2900 0 
L 2900 538 
Q 2691 219 2414 64 
Q 2138 -91 1772 -91 
Q 1169 -91 856 284 
Q 544 659 544 1381 
z
M 1991 3584 
L 1991 3584 
z
" id="DejaVuSans-75" transform="scale(0.015625)"/>
       <path d="M 3116 1747 
Q 3116 2381 2855 2742 
Q 2594 3103 2138 3103 
Q 1681 3103 1420 2742 
Q 1159 2381 1159 1747 
Q 1159 1113 1420 752 
Q 1681 391 2138 391 
Q 2594 391 2855 752 
Q 3116 1113 3116 1747 
z
M 1159 2969 
Q 1341 3281 1617 3432 
Q 1894 3584 2278 3584 
Q 2916 3584 3314 3078 
Q 3713 2572 3713 1747 
Q 3713 922 3314 415 
Q 2916 -91 2278 -91 
Q 1894 -91 1617 61 
Q 1341 213 1159 525 
L 1159 0 
L 581 0 
L 581 4863 
L 1159 4863 
L 1159 2969 
z
" id="DejaVuSans-62" transform="scale(0.015625)"/>
       <path d="M 603 4863 
L 1178 4863 
L 1178 0 
L 603 0 
L 603 4863 
z
" id="DejaVuSans-6c" transform="scale(0.015625)"/>
       <path d="M 603 3500 
L 1178 3500 
L 1178 0 
L 603 0 
L 603 3500 
z
M 603 4863 
L 1178 4863 
L 1178 4134 
L 603 4134 
L 603 4863 
z
" id="DejaVuSans-69" transform="scale(0.015625)"/>
       <path d="M 3122 3366 
L 3122 2828 
Q 2878 2963 2633 3030 
Q 2388 3097 2138 3097 
Q 1578 3097 1268 2742 
Q 959 2388 959 1747 
Q 959 1106 1268 751 
Q 1578 397 2138 397 
Q 2388 397 2633 464 
Q 2878 531 3122 666 
L 3122 134 
Q 2881 22 2623 -34 
Q 2366 -91 2075 -91 
Q 1284 -91 818 406 
Q 353 903 353 1747 
Q 353 2603 823 3093 
Q 1294 3584 2113 3584 
Q 2378 3584 2631 3529 
Q 2884 3475 3122 3366 
z
" id="DejaVuSans-63" transform="scale(0.015625)"/>
       <path d="M 1172 4494 
L 1172 3500 
L 2356 3500 
L 2356 3053 
L 1172 3053 
L 1172 1153 
Q 1172 725 1289 603 
Q 1406 481 1766 481 
L 2356 481 
L 2356 0 
L 1766 0 
Q 1100 0 847 248 
Q 594 497 594 1153 
L 594 3053 
L 172 3053 
L 172 3500 
L 594 3500 
L 594 4494 
L 1172 4494 
z
" id="DejaVuSans-74" transform="scale(0.015625)"/>
       <path d="M 3513 2113 
L 3513 0 
L 2938 0 
L 2938 2094 
Q 2938 2591 2744 2837 
Q 2550 3084 2163 3084 
Q 1697 3084 1428 2787 
Q 1159 2491 1159 1978 
L 1159 0 
L 581 0 
L 581 3500 
L 1159 3500 
L 1159 2956 
Q 1366 3272 1645 3428 
Q 1925 3584 2291 3584 
Q 2894 3584 3203 3211 
Q 3513 2838 3513 2113 
z
" id="DejaVuSans-6e" transform="scale(0.015625)"/>
      </defs>
      <use xlink:href="#DejaVuSans-79"/>
      <use x="59.179688" xlink:href="#DejaVuSans-65"/>
      <use x="120.703125" xlink:href="#DejaVuSans-61"/>
      <use x="181.982422" xlink:href="#DejaVuSans-72"/>
      <use x="223.095703" xlink:href="#DejaVuSans-20"/>
      <use x="254.882812" xlink:href="#DejaVuSans-6f"/>
      <use x="316.064453" xlink:href="#DejaVuSans-66"/>
      <use x="351.269531" xlink:href="#DejaVuSans-20"/>
      <use x="383.056641" xlink:href="#DejaVuSans-70"/>
      <use x="446.533203" xlink:href="#DejaVuSans-75"/>
      <use x="509.912109" xlink:href="#DejaVuSans-62"/>
      <use x="573.388672" xlink:href="#DejaVuSans-6c"/>
      <use x="601.171875" xlink:href="#DejaVuSans-69"/>
      <use x="628.955078" xlink:href="#DejaVuSans-63"/>
      <use x="683.935547" xlink:href="#DejaVuSans-61"/>
      <use x="745.214844" xlink:href="#DejaVuSans-74"/>
      <use x="784.423828" xlink:href="#DejaVuSans-69"/>
      <use x="812.207031" xlink:href="#DejaVuSans-6f"/>
      <use x="873.388672" xlink:href="#DejaVuSans-6e"/>
     </g>
    </g>
   </g>
   <g id="matplotlib.axis_2">
    <g id="ytick_1">
     <g id="line2d_6">
      <defs>
       <path d="M 0 0 
L -3.5 0 
" id="m643f7bcbda" style="stroke:#000000;stroke-width:0.8;"/>
      </defs>
      <g>
       <use style="stroke:#000000;stroke-width:0.8;" x="72" xlink:href="#m643f7bcbda" y="252"/>
      </g>
     </g>
     <g id="text_7">
      <!-- 0 -->
      <g transform="translate(58.6375 255.799219)scale(0.1 -0.1)">
       <use xlink:href="#DejaVuSans-30"/>
      </g>
     </g>
    </g>
    <g id="ytick_2">
     <g id="line2d_7">
      <g>
       <use style="stroke:#000000;stroke-width:0.8;" x="72" xlink:href="#m643f7bcbda" y="215.76"/>
      </g>
     </g>
     <g id="text_8">
      <!-- 20 -->
      <g transform="translate(52.275 219.559219)scale(0.1 -0.1)">
       <use xlink:href="#DejaVuSans-32"/>
       <use x="63.623047" xlink:href="#DejaVuSans-30"/>
      </g>
     </g>
    </g>
    <g id="ytick_3">
     <g id="line2d_8">
      <g>
       <use style="stroke:#000000;stroke-width:0.8;" x="72" xlink:href="#m643f7bcbda" y="179.52"/>
      </g>
     </g>
     <g id="text_9">
      <!-- 40 -->
      <g transform="translate(52.275 183.319219)scale(0.1 -0.1)">
       <defs>
        <path d="M 2419 4116 
L 825 1625 
L 2419 1625 
L 2419 4116 
z
M 2253 4666 
L 3047 4666 
L 3047 1625 
L 3713 1625 
L 3713 1100 
L 3047 1100 
L 3047 0 
L 2419 0 
L 2419 1100 
L 313 1100 
L 313 1709 
L 2253 4666 
z
" id="DejaVuSans-34" transform="scale(0.015625)"/>
       </defs>
       <use xlink:href="#DejaVuSans-34"/>
       <use x="63.623047" xlink:href="#DejaVuSans-30"/>
      </g>
     </g>
    </g>
    <g id="ytick_4">
     <g id="line2d_9">
      <g>
       <use style="stroke:#000000;stroke-width:0.8;" x="72" xlink:href="#m643f7bcbda" y="143.28"/>
      </g>
     </g>
     <g id="text_10">
      <!-- 60 -->
      <g transform="translate(52.275 147.079219)scale(0.1 -0.1)">
       <defs>
        <path d="M 2113 2584 
Q 1688 2584 1439 2293 
Q 1191 2003 1191 1497 
Q 1191 994 1439 701 
Q 1688 409 2113 409 
Q 2538 409 2786 701 
Q 3034 994 3034 1497 
Q 3034 2003 2786 2293 
Q 2538 2584 2113 2584 
z
M 3366 4563 
L 3366 3988 
Q 3128 4100 2886 4159 
Q 2644 4219 2406 4219 
Q 1781 4219 1451 3797 
Q 1122 3375 1075 2522 
Q 1259 2794 1537 2939 
Q 1816 3084 2150 3084 
Q 2853 3084 3261 2657 
Q 3669 2231 3669 1497 
Q 3669 778 3244 343 
Q 2819 -91 2113 -91 
Q 1303 -91 875 529 
Q 447 1150 447 2328 
Q 447 3434 972 4092 
Q 1497 4750 2381 4750 
Q 2619 4750 2861 4703 
Q 3103 4656 3366 4563 
z
" id="DejaVuSans-36" transform="scale(0.015625)"/>
       </defs>
       <use xlink:href="#DejaVuSans-36"/>
       <use x="63.623047" xlink:href="#DejaVuSans-30"/>
      </g>
     </g>
    </g>
    <g id="ytick_5">
     <g id="line2d_10">
      <g>
       <use style="stroke:#000000;stroke-width:0.8;" x="72" xlink:href="#m643f7bcbda" y="107.04"/>
      </g>
     </g>
     <g id="text_11">
      <!-- 80 -->
      <g transform="translate(52.275 110.839219)scale(0.1 -0.1)">
       <defs>
        <path d="M 2034 2216 
Q 1584 2216 1326 1975 
Q 1069 1734 1069 1313 
Q 1069 891 1326 650 
Q 1584 409 2034 409 
Q 2484 409 2743 651 
Q 3003 894 3003 1313 
Q 3003 1734 2745 1975 
Q 2488 2216 2034 2216 
z
M 1403 2484 
Q 997 2584 770 2862 
Q 544 3141 544 3541 
Q 544 4100 942 4425 
Q 1341 4750 2034 4750 
Q 2731 4750 3128 4425 
Q 3525 4100 3525 3541 
Q 3525 3141 3298 2862 
Q 3072 2584 2669 2484 
Q 3125 2378 3379 2068 
Q 3634 1759 3634 1313 
Q 3634 634 3220 271 
Q 2806 -91 2034 -91 
Q 1263 -91 848 271 
Q 434 634 434 1313 
Q 434 1759 690 2068 
Q 947 2378 1403 2484 
z
M 1172 3481 
Q 1172 3119 1398 2916 
Q 1625 2713 2034 2713 
Q 2441 2713 2670 2916 
Q 2900 3119 2900 3481 
Q 2900 3844 2670 4047 
Q 2441 4250 2034 4250 
Q 1625 4250 1398 4047 
Q 1172 3844 1172 3481 
z
" id="DejaVuSans-38" transform="scale(0.015625)"/>
       </defs>
       <use xlink:href="#DejaVuSans-38"/>
       <use x="63.623047" xlink:href="#DejaVuSans-30"/>
      </g>
     </g>
    </g>
    <g id="ytick_6">
     <g id="line2d_11">
      <g>
       <use style="stroke:#000000;stroke-width:0.8;" x="72" xlink:href="#m643f7bcbda" y="70.8"/>
      </g>
     </g>
     <g id="text_12">
      <!-- 100 -->
      <g transform="translate(45.9125 74.599219)scale(0.1 -0.1)">
       <use xlink:href="#DejaVuSans-31"/>
       <use x="63.623047" xlink:href="#DejaVuSans-30"/>
       <use x="127.246094" xlink:href="#DejaVuSans-30"/>
      </g>
     </g>
    </g>
    <g id="ytick_7">
     <g id="line2d_12">
      <g>
       <use style="stroke:#000000;stroke-width:0.8;" x="72" xlink:href="#m643f7bcbda" y="34.56"/>
      </g>
     </g>
     <g id="text_13">
      <!-- 120 -->
      <g transform="translate(45.9125 38.359219)scale(0.1 -0.1)">
       <use xlink:href="#DejaVuSans-31"/>
       <use x="63.623047" xlink:href="#DejaVuSans-32"/>
       <use x="127.246094" xlink:href="#DejaVuSans-30"/>
      </g>
     </g>
    </g>
    <g id="text_14">
     <!-- number of publications -->
     <g transform="translate(38.585 235.76375)rotate(-90)scale(0.16 -0.16)">
      <defs>
       <path d="M 3328 2828 
Q 3544 3216 3844 3400 
Q 4144 3584 4550 3584 
Q 5097 3584 5394 3201 
Q 5691 2819 5691 2113 
L 5691 0 
L 5113 0 
L 5113 2094 
Q 5113 2597 4934 2840 
Q 4756 3084 4391 3084 
Q 3944 3084 3684 2787 
Q 3425 2491 3425 1978 
L 3425 0 
L 2847 0 
L 2847 2094 
Q 2847 2600 2669 2842 
Q 2491 3084 2119 3084 
Q 1678 3084 1418 2786 
Q 1159 2488 1159 1978 
L 1159 0 
L 581 0 
L 581 3500 
L 1159 3500 
L 1159 2956 
Q 1356 3278 1631 3431 
Q 1906 3584 2284 3584 
Q 2666 3584 2933 3390 
Q 3200 3197 3328 2828 
z
" id="DejaVuSans-6d" transform="scale(0.015625)"/>
       <path d="M 2834 3397 
L 2834 2853 
Q 2591 2978 2328 3040 
Q 2066 3103 1784 3103 
Q 1356 3103 1142 2972 
Q 928 2841 928 2578 
Q 928 2378 1081 2264 
Q 1234 2150 1697 2047 
L 1894 2003 
Q 2506 1872 2764 1633 
Q 3022 1394 3022 966 
Q 3022 478 2636 193 
Q 2250 -91 1575 -91 
Q 1294 -91 989 -36 
Q 684 19 347 128 
L 347 722 
Q 666 556 975 473 
Q 1284 391 1588 391 
Q 1994 391 2212 530 
Q 2431 669 2431 922 
Q 2431 1156 2273 1281 
Q 2116 1406 1581 1522 
L 1381 1569 
Q 847 1681 609 1914 
Q 372 2147 372 2553 
Q 372 3047 722 3315 
Q 1072 3584 1716 3584 
Q 2034 3584 2315 3537 
Q 2597 3491 2834 3397 
z
" id="DejaVuSans-73" transform="scale(0.015625)"/>
      </defs>
      <use xlink:href="#DejaVuSans-6e"/>
      <use x="63.378906" xlink:href="#DejaVuSans-75"/>
      <use x="126.757812" xlink:href="#DejaVuSans-6d"/>
      <use x="224.169922" xlink:href="#DejaVuSans-62"/>
      <use x="287.646484" xlink:href="#DejaVuSans-65"/>
      <use x="349.169922" xlink:href="#DejaVuSans-72"/>
      <use x="390.283203" xlink:href="#DejaVuSans-20"/>
      <use x="422.070312" xlink:href="#DejaVuSans-6f"/>
      <use x="483.251953" xlink:href="#DejaVuSans-66"/>
      <use x="518.457031" xlink:href="#DejaVuSans-20"/>
      <use x="550.244141" xlink:href="#DejaVuSans-70"/>
      <use x="613.720703" xlink:href="#DejaVuSans-75"/>
      <use x="677.099609" xlink:href="#DejaVuSans-62"/>
      <use x="740.576172" xlink:href="#DejaVuSans-6c"/>
      <use x="768.359375" xlink:href="#DejaVuSans-69"/>
      <use x="796.142578" xlink:href="#DejaVuSans-63"/>
      <use x="851.123047" xlink:href="#DejaVuSans-61"/>
      <use x="912.402344" xlink:href="#DejaVuSans-74"/>
      <use x="951.611328" xlink:href="#DejaVuSans-69"/>
      <use x="979.394531" xlink:href="#DejaVuSans-6f"/>
      <use x="1040.576172" xlink:href="#DejaVuSans-6e"/>
      <use x="1103.955078" xlink:href="#DejaVuSans-73"/>
     </g>
    </g>
   </g>
   <g id="patch_318">
    <path d="M 72 252 
L 72 34.56 
" style="fill:none;stroke:#000000;stroke-linecap:square;stroke-linejoin:miter;stroke-width:0.8;"/>
   </g>
   <g id="patch_319">
    <path d="M 518.4 252 
L 518.4 34.56 
" style="fill:none;stroke:#000000;stroke-linecap:square;stroke-linejoin:miter;stroke-width:0.8;"/>
   </g>
   <g id="patch_320">
    <path d="M 72 252 
L 518.4 252 
" style="fill:none;stroke:#000000;stroke-linecap:square;stroke-linejoin:miter;stroke-width:0.8;"/>
   </g>
   <g id="patch_321">
    <path d="M 72 34.56 
L 518.4 34.56 
" style="fill:none;stroke:#000000;stroke-linecap:square;stroke-linejoin:miter;stroke-width:0.8;"/>
   </g>
   <g id="text_15">
    <!-- top 15 countries -->
    <g transform="translate(246.040312 28.56)scale(0.12 -0.12)">
     <use xlink:href="#DejaVuSans-74"/>
     <use x="39.208984" xlink:href="#DejaVuSans-6f"/>
     <use x="100.390625" xlink:href="#DejaVuSans-70"/>
     <use x="163.867188" xlink:href="#DejaVuSans-20"/>
     <use x="195.654297" xlink:href="#DejaVuSans-31"/>
     <use x="259.277344" xlink:href="#DejaVuSans-35"/>
     <use x="322.900391" xlink:href="#DejaVuSans-20"/>
     <use x="354.6875" xlink:href="#DejaVuSans-63"/>
     <use x="409.667969" xlink:href="#DejaVuSans-6f"/>
     <use x="470.849609" xlink:href="#DejaVuSans-75"/>
     <use x="534.228516" xlink:href="#DejaVuSans-6e"/>
     <use x="597.607422" xlink:href="#DejaVuSans-74"/>
     <use x="636.816406" xlink:href="#DejaVuSans-72"/>
     <use x="677.929688" xlink:href="#DejaVuSans-69"/>
     <use x="705.712891" xlink:href="#DejaVuSans-65"/>
     <use x="767.236328" xlink:href="#DejaVuSans-73"/>
    </g>
   </g>
   <g id="legend_1">
    <g id="patch_322">
     <path d="M 79.7 172.5275 
L 274.695625 172.5275 
Q 276.895625 172.5275 276.895625 170.3275 
L 276.895625 42.26 
Q 276.895625 40.06 274.695625 40.06 
L 79.7 40.06 
Q 77.5 40.06 77.5 42.26 
L 77.5 170.3275 
Q 77.5 172.5275 79.7 172.5275 
z
" style="fill:#ffffff;opacity:0.8;stroke:#cccccc;stroke-linejoin:miter;"/>
    </g>
    <g id="patch_323">
     <path d="M 81.9 52.818281 
L 103.9 52.818281 
L 103.9 45.118281 
L 81.9 45.118281 
z
" style="fill:#1f77b4;"/>
    </g>
    <g id="text_16">
     <!-- nonspecificgeo -->
     <g transform="translate(112.7 52.818281)scale(0.11 -0.11)">
      <defs>
       <path d="M 2906 1791 
Q 2906 2416 2648 2759 
Q 2391 3103 1925 3103 
Q 1463 3103 1205 2759 
Q 947 2416 947 1791 
Q 947 1169 1205 825 
Q 1463 481 1925 481 
Q 2391 481 2648 825 
Q 2906 1169 2906 1791 
z
M 3481 434 
Q 3481 -459 3084 -895 
Q 2688 -1331 1869 -1331 
Q 1566 -1331 1297 -1286 
Q 1028 -1241 775 -1147 
L 775 -588 
Q 1028 -725 1275 -790 
Q 1522 -856 1778 -856 
Q 2344 -856 2625 -561 
Q 2906 -266 2906 331 
L 2906 616 
Q 2728 306 2450 153 
Q 2172 0 1784 0 
Q 1141 0 747 490 
Q 353 981 353 1791 
Q 353 2603 747 3093 
Q 1141 3584 1784 3584 
Q 2172 3584 2450 3431 
Q 2728 3278 2906 2969 
L 2906 3500 
L 3481 3500 
L 3481 434 
z
" id="DejaVuSans-67" transform="scale(0.015625)"/>
      </defs>
      <use xlink:href="#DejaVuSans-6e"/>
      <use x="63.378906" xlink:href="#DejaVuSans-6f"/>
      <use x="124.560547" xlink:href="#DejaVuSans-6e"/>
      <use x="187.939453" xlink:href="#DejaVuSans-73"/>
      <use x="240.039062" xlink:href="#DejaVuSans-70"/>
      <use x="303.515625" xlink:href="#DejaVuSans-65"/>
      <use x="365.039062" xlink:href="#DejaVuSans-63"/>
      <use x="420.019531" xlink:href="#DejaVuSans-69"/>
      <use x="447.802734" xlink:href="#DejaVuSans-66"/>
      <use x="483.007812" xlink:href="#DejaVuSans-69"/>
      <use x="510.791016" xlink:href="#DejaVuSans-63"/>
      <use x="565.771484" xlink:href="#DejaVuSans-67"/>
      <use x="629.248047" xlink:href="#DejaVuSans-65"/>
      <use x="690.771484" xlink:href="#DejaVuSans-6f"/>
     </g>
    </g>
    <g id="patch_324">
     <path d="M 81.9 68.964219 
L 103.9 68.964219 
L 103.9 61.264219 
L 81.9 61.264219 
z
" style="fill:#aec7e8;"/>
    </g>
    <g id="text_17">
     <!-- USA -->
     <g transform="translate(112.7 68.964219)scale(0.11 -0.11)">
      <defs>
       <path d="M 556 4666 
L 1191 4666 
L 1191 1831 
Q 1191 1081 1462 751 
Q 1734 422 2344 422 
Q 2950 422 3222 751 
Q 3494 1081 3494 1831 
L 3494 4666 
L 4128 4666 
L 4128 1753 
Q 4128 841 3676 375 
Q 3225 -91 2344 -91 
Q 1459 -91 1007 375 
Q 556 841 556 1753 
L 556 4666 
z
" id="DejaVuSans-55" transform="scale(0.015625)"/>
       <path d="M 3425 4513 
L 3425 3897 
Q 3066 4069 2747 4153 
Q 2428 4238 2131 4238 
Q 1616 4238 1336 4038 
Q 1056 3838 1056 3469 
Q 1056 3159 1242 3001 
Q 1428 2844 1947 2747 
L 2328 2669 
Q 3034 2534 3370 2195 
Q 3706 1856 3706 1288 
Q 3706 609 3251 259 
Q 2797 -91 1919 -91 
Q 1588 -91 1214 -16 
Q 841 59 441 206 
L 441 856 
Q 825 641 1194 531 
Q 1563 422 1919 422 
Q 2459 422 2753 634 
Q 3047 847 3047 1241 
Q 3047 1584 2836 1778 
Q 2625 1972 2144 2069 
L 1759 2144 
Q 1053 2284 737 2584 
Q 422 2884 422 3419 
Q 422 4038 858 4394 
Q 1294 4750 2059 4750 
Q 2388 4750 2728 4690 
Q 3069 4631 3425 4513 
z
" id="DejaVuSans-53" transform="scale(0.015625)"/>
       <path d="M 2188 4044 
L 1331 1722 
L 3047 1722 
L 2188 4044 
z
M 1831 4666 
L 2547 4666 
L 4325 0 
L 3669 0 
L 3244 1197 
L 1141 1197 
L 716 0 
L 50 0 
L 1831 4666 
z
" id="DejaVuSans-41" transform="scale(0.015625)"/>
      </defs>
      <use xlink:href="#DejaVuSans-55"/>
      <use x="73.193359" xlink:href="#DejaVuSans-53"/>
      <use x="138.544922" xlink:href="#DejaVuSans-41"/>
     </g>
    </g>
    <g id="patch_325">
     <path d="M 81.9 85.110156 
L 103.9 85.110156 
L 103.9 77.410156 
L 81.9 77.410156 
z
" style="fill:#ff7f0e;"/>
    </g>
    <g id="text_18">
     <!-- GBR -->
     <g transform="translate(112.7 85.110156)scale(0.11 -0.11)">
      <defs>
       <path d="M 3809 666 
L 3809 1919 
L 2778 1919 
L 2778 2438 
L 4434 2438 
L 4434 434 
Q 4069 175 3628 42 
Q 3188 -91 2688 -91 
Q 1594 -91 976 548 
Q 359 1188 359 2328 
Q 359 3472 976 4111 
Q 1594 4750 2688 4750 
Q 3144 4750 3555 4637 
Q 3966 4525 4313 4306 
L 4313 3634 
Q 3963 3931 3569 4081 
Q 3175 4231 2741 4231 
Q 1884 4231 1454 3753 
Q 1025 3275 1025 2328 
Q 1025 1384 1454 906 
Q 1884 428 2741 428 
Q 3075 428 3337 486 
Q 3600 544 3809 666 
z
" id="DejaVuSans-47" transform="scale(0.015625)"/>
       <path d="M 1259 2228 
L 1259 519 
L 2272 519 
Q 2781 519 3026 730 
Q 3272 941 3272 1375 
Q 3272 1813 3026 2020 
Q 2781 2228 2272 2228 
L 1259 2228 
z
M 1259 4147 
L 1259 2741 
L 2194 2741 
Q 2656 2741 2882 2914 
Q 3109 3088 3109 3444 
Q 3109 3797 2882 3972 
Q 2656 4147 2194 4147 
L 1259 4147 
z
M 628 4666 
L 2241 4666 
Q 2963 4666 3353 4366 
Q 3744 4066 3744 3513 
Q 3744 3084 3544 2831 
Q 3344 2578 2956 2516 
Q 3422 2416 3680 2098 
Q 3938 1781 3938 1306 
Q 3938 681 3513 340 
Q 3088 0 2303 0 
L 628 0 
L 628 4666 
z
" id="DejaVuSans-42" transform="scale(0.015625)"/>
       <path d="M 2841 2188 
Q 3044 2119 3236 1894 
Q 3428 1669 3622 1275 
L 4263 0 
L 3584 0 
L 2988 1197 
Q 2756 1666 2539 1819 
Q 2322 1972 1947 1972 
L 1259 1972 
L 1259 0 
L 628 0 
L 628 4666 
L 2053 4666 
Q 2853 4666 3247 4331 
Q 3641 3997 3641 3322 
Q 3641 2881 3436 2590 
Q 3231 2300 2841 2188 
z
M 1259 4147 
L 1259 2491 
L 2053 2491 
Q 2509 2491 2742 2702 
Q 2975 2913 2975 3322 
Q 2975 3731 2742 3939 
Q 2509 4147 2053 4147 
L 1259 4147 
z
" id="DejaVuSans-52" transform="scale(0.015625)"/>
      </defs>
      <use xlink:href="#DejaVuSans-47"/>
      <use x="77.490234" xlink:href="#DejaVuSans-42"/>
      <use x="146.09375" xlink:href="#DejaVuSans-52"/>
     </g>
    </g>
    <g id="patch_326">
     <path d="M 81.9 101.256094 
L 103.9 101.256094 
L 103.9 93.556094 
L 81.9 93.556094 
z
" style="fill:#ffbb78;"/>
    </g>
    <g id="text_19">
     <!-- ESP -->
     <g transform="translate(112.7 101.256094)scale(0.11 -0.11)">
      <defs>
       <path d="M 628 4666 
L 3578 4666 
L 3578 4134 
L 1259 4134 
L 1259 2753 
L 3481 2753 
L 3481 2222 
L 1259 2222 
L 1259 531 
L 3634 531 
L 3634 0 
L 628 0 
L 628 4666 
z
" id="DejaVuSans-45" transform="scale(0.015625)"/>
       <path d="M 1259 4147 
L 1259 2394 
L 2053 2394 
Q 2494 2394 2734 2622 
Q 2975 2850 2975 3272 
Q 2975 3691 2734 3919 
Q 2494 4147 2053 4147 
L 1259 4147 
z
M 628 4666 
L 2053 4666 
Q 2838 4666 3239 4311 
Q 3641 3956 3641 3272 
Q 3641 2581 3239 2228 
Q 2838 1875 2053 1875 
L 1259 1875 
L 1259 0 
L 628 0 
L 628 4666 
z
" id="DejaVuSans-50" transform="scale(0.015625)"/>
      </defs>
      <use xlink:href="#DejaVuSans-45"/>
      <use x="63.183594" xlink:href="#DejaVuSans-53"/>
      <use x="126.660156" xlink:href="#DejaVuSans-50"/>
     </g>
    </g>
    <g id="patch_327">
     <path d="M 81.9 117.402031 
L 103.9 117.402031 
L 103.9 109.702031 
L 81.9 109.702031 
z
" style="fill:#2ca02c;"/>
    </g>
    <g id="text_20">
     <!-- DEU -->
     <g transform="translate(112.7 117.402031)scale(0.11 -0.11)">
      <defs>
       <path d="M 1259 4147 
L 1259 519 
L 2022 519 
Q 2988 519 3436 956 
Q 3884 1394 3884 2338 
Q 3884 3275 3436 3711 
Q 2988 4147 2022 4147 
L 1259 4147 
z
M 628 4666 
L 1925 4666 
Q 3281 4666 3915 4102 
Q 4550 3538 4550 2338 
Q 4550 1131 3912 565 
Q 3275 0 1925 0 
L 628 0 
L 628 4666 
z
" id="DejaVuSans-44" transform="scale(0.015625)"/>
      </defs>
      <use xlink:href="#DejaVuSans-44"/>
      <use x="77.001953" xlink:href="#DejaVuSans-45"/>
      <use x="140.185547" xlink:href="#DejaVuSans-55"/>
     </g>
    </g>
    <g id="patch_328">
     <path d="M 81.9 133.547969 
L 103.9 133.547969 
L 103.9 125.847969 
L 81.9 125.847969 
z
" style="fill:#98df8a;"/>
    </g>
    <g id="text_21">
     <!-- IND -->
     <g transform="translate(112.7 133.547969)scale(0.11 -0.11)">
      <defs>
       <path d="M 628 4666 
L 1259 4666 
L 1259 0 
L 628 0 
L 628 4666 
z
" id="DejaVuSans-49" transform="scale(0.015625)"/>
       <path d="M 628 4666 
L 1478 4666 
L 3547 763 
L 3547 4666 
L 4159 4666 
L 4159 0 
L 3309 0 
L 1241 3903 
L 1241 0 
L 628 0 
L 628 4666 
z
" id="DejaVuSans-4e" transform="scale(0.015625)"/>
      </defs>
      <use xlink:href="#DejaVuSans-49"/>
      <use x="29.492188" xlink:href="#DejaVuSans-4e"/>
      <use x="104.296875" xlink:href="#DejaVuSans-44"/>
     </g>
    </g>
    <g id="patch_329">
     <path d="M 81.9 149.693906 
L 103.9 149.693906 
L 103.9 141.993906 
L 81.9 141.993906 
z
" style="fill:#d62728;"/>
    </g>
    <g id="text_22">
     <!-- CAN -->
     <g transform="translate(112.7 149.693906)scale(0.11 -0.11)">
      <defs>
       <path d="M 4122 4306 
L 4122 3641 
Q 3803 3938 3442 4084 
Q 3081 4231 2675 4231 
Q 1875 4231 1450 3742 
Q 1025 3253 1025 2328 
Q 1025 1406 1450 917 
Q 1875 428 2675 428 
Q 3081 428 3442 575 
Q 3803 722 4122 1019 
L 4122 359 
Q 3791 134 3420 21 
Q 3050 -91 2638 -91 
Q 1578 -91 968 557 
Q 359 1206 359 2328 
Q 359 3453 968 4101 
Q 1578 4750 2638 4750 
Q 3056 4750 3426 4639 
Q 3797 4528 4122 4306 
z
" id="DejaVuSans-43" transform="scale(0.015625)"/>
      </defs>
      <use xlink:href="#DejaVuSans-43"/>
      <use x="69.824219" xlink:href="#DejaVuSans-41"/>
      <use x="138.232422" xlink:href="#DejaVuSans-4e"/>
     </g>
    </g>
    <g id="patch_330">
     <path d="M 81.9 165.839844 
L 103.9 165.839844 
L 103.9 158.139844 
L 81.9 158.139844 
z
" style="fill:#ff9896;"/>
    </g>
    <g id="text_23">
     <!-- CHN -->
     <g transform="translate(112.7 165.839844)scale(0.11 -0.11)">
      <defs>
       <path d="M 628 4666 
L 1259 4666 
L 1259 2753 
L 3553 2753 
L 3553 4666 
L 4184 4666 
L 4184 0 
L 3553 0 
L 3553 2222 
L 1259 2222 
L 1259 0 
L 628 0 
L 628 4666 
z
" id="DejaVuSans-48" transform="scale(0.015625)"/>
      </defs>
      <use xlink:href="#DejaVuSans-43"/>
      <use x="69.824219" xlink:href="#DejaVuSans-48"/>
      <use x="145.019531" xlink:href="#DejaVuSans-4e"/>
     </g>
    </g>
    <g id="patch_331">
     <path d="M 217.418281 52.818281 
L 239.418281 52.818281 
L 239.418281 45.118281 
L 217.418281 45.118281 
z
" style="fill:#9467bd;"/>
    </g>
    <g id="text_24">
     <!-- FRA -->
     <g transform="translate(248.218281 52.818281)scale(0.11 -0.11)">
      <defs>
       <path d="M 628 4666 
L 3309 4666 
L 3309 4134 
L 1259 4134 
L 1259 2759 
L 3109 2759 
L 3109 2228 
L 1259 2228 
L 1259 0 
L 628 0 
L 628 4666 
z
" id="DejaVuSans-46" transform="scale(0.015625)"/>
      </defs>
      <use xlink:href="#DejaVuSans-46"/>
      <use x="57.519531" xlink:href="#DejaVuSans-52"/>
      <use x="123.001953" xlink:href="#DejaVuSans-41"/>
     </g>
    </g>
    <g id="patch_332">
     <path d="M 217.418281 68.964219 
L 239.418281 68.964219 
L 239.418281 61.264219 
L 217.418281 61.264219 
z
" style="fill:#c5b0d5;"/>
    </g>
    <g id="text_25">
     <!-- ITA -->
     <g transform="translate(248.218281 68.964219)scale(0.11 -0.11)">
      <defs>
       <path d="M -19 4666 
L 3928 4666 
L 3928 4134 
L 2272 4134 
L 2272 0 
L 1638 0 
L 1638 4134 
L -19 4134 
L -19 4666 
z
" id="DejaVuSans-54" transform="scale(0.015625)"/>
      </defs>
      <use xlink:href="#DejaVuSans-49"/>
      <use x="29.492188" xlink:href="#DejaVuSans-54"/>
      <use x="82.826172" xlink:href="#DejaVuSans-41"/>
     </g>
    </g>
    <g id="patch_333">
     <path d="M 217.418281 85.110156 
L 239.418281 85.110156 
L 239.418281 77.410156 
L 217.418281 77.410156 
z
" style="fill:#8c564b;"/>
    </g>
    <g id="text_26">
     <!-- AUS -->
     <g transform="translate(248.218281 85.110156)scale(0.11 -0.11)">
      <use xlink:href="#DejaVuSans-41"/>
      <use x="68.408203" xlink:href="#DejaVuSans-55"/>
      <use x="141.601562" xlink:href="#DejaVuSans-53"/>
     </g>
    </g>
    <g id="patch_334">
     <path d="M 217.418281 101.256094 
L 239.418281 101.256094 
L 239.418281 93.556094 
L 217.418281 93.556094 
z
" style="fill:#c49c94;"/>
    </g>
    <g id="text_27">
     <!-- NGA -->
     <g transform="translate(248.218281 101.256094)scale(0.11 -0.11)">
      <use xlink:href="#DejaVuSans-4e"/>
      <use x="74.804688" xlink:href="#DejaVuSans-47"/>
      <use x="152.294922" xlink:href="#DejaVuSans-41"/>
     </g>
    </g>
    <g id="patch_335">
     <path d="M 217.418281 117.402031 
L 239.418281 117.402031 
L 239.418281 109.702031 
L 217.418281 109.702031 
z
" style="fill:#e377c2;"/>
    </g>
    <g id="text_28">
     <!-- AUT -->
     <g transform="translate(248.218281 117.402031)scale(0.11 -0.11)">
      <use xlink:href="#DejaVuSans-41"/>
      <use x="68.408203" xlink:href="#DejaVuSans-55"/>
      <use x="141.601562" xlink:href="#DejaVuSans-54"/>
     </g>
    </g>
    <g id="patch_336">
     <path d="M 217.418281 133.547969 
L 239.418281 133.547969 
L 239.418281 125.847969 
L 217.418281 125.847969 
z
" style="fill:#f7b6d2;"/>
    </g>
    <g id="text_29">
     <!-- KOR -->
     <g transform="translate(248.218281 133.547969)scale(0.11 -0.11)">
      <defs>
       <path d="M 628 4666 
L 1259 4666 
L 1259 2694 
L 3353 4666 
L 4166 4666 
L 1850 2491 
L 4331 0 
L 3500 0 
L 1259 2247 
L 1259 0 
L 628 0 
L 628 4666 
z
" id="DejaVuSans-4b" transform="scale(0.015625)"/>
       <path d="M 2522 4238 
Q 1834 4238 1429 3725 
Q 1025 3213 1025 2328 
Q 1025 1447 1429 934 
Q 1834 422 2522 422 
Q 3209 422 3611 934 
Q 4013 1447 4013 2328 
Q 4013 3213 3611 3725 
Q 3209 4238 2522 4238 
z
M 2522 4750 
Q 3503 4750 4090 4092 
Q 4678 3434 4678 2328 
Q 4678 1225 4090 567 
Q 3503 -91 2522 -91 
Q 1538 -91 948 565 
Q 359 1222 359 2328 
Q 359 3434 948 4092 
Q 1538 4750 2522 4750 
z
" id="DejaVuSans-4f" transform="scale(0.015625)"/>
      </defs>
      <use xlink:href="#DejaVuSans-4b"/>
      <use x="60.076172" xlink:href="#DejaVuSans-4f"/>
      <use x="138.787109" xlink:href="#DejaVuSans-52"/>
     </g>
    </g>
    <g id="patch_337">
     <path d="M 217.418281 149.693906 
L 239.418281 149.693906 
L 239.418281 141.993906 
L 217.418281 141.993906 
z
" style="fill:#7f7f7f;"/>
    </g>
    <g id="text_30">
     <!-- BRA -->
     <g transform="translate(248.218281 149.693906)scale(0.11 -0.11)">
      <use xlink:href="#DejaVuSans-42"/>
      <use x="68.603516" xlink:href="#DejaVuSans-52"/>
      <use x="134.085938" xlink:href="#DejaVuSans-41"/>
     </g>
    </g>
   </g>
  </g>
 </g>
 <defs>
  <clipPath id="pc31be7372a">
   <rect height="217.44" width="446.4" x="72" y="34.56"/>
  </clipPath>
 </defs>
</svg>
